SplineFontDB: 3.0
FontName: Vazir-Medium
FullName: Vazir Medium
FamilyName: Vazir Medium
Weight: Medium
Copyright: Copyright (c) 2003 by Bitstream, Inc. All Rights Reserved.\nDejaVu changes are in public domain\nChanges by Saber Rastikerdar are in public domain.\nNon-Arabic(Latin) glyphs and data in extended version are imported from Roboto font under the Apache License, Version 2.0.
Version: 20.1.1
ItalicAngle: 0
UnderlinePosition: -500
UnderlineWidth: 100
Ascent: 1638
Descent: 410
InvalidEm: 0
LayerCount: 2
Layer: 0 1 "Back" 1
Layer: 1 1 "Fore" 0
PreferredKerning: 4
XUID: [1021 502 1027637223 7270328]
UniqueID: 4048991
UseUniqueID: 1
FSType: 0
OS2Version: 1
OS2_WeightWidthSlopeOnly: 0
OS2_UseTypoMetrics: 1
CreationTime: 1431850356
ModificationTime: 1565583812
PfmFamily: 33
TTFWeight: 500
TTFWidth: 5
LineGap: 0
VLineGap: 0
Panose: 2 11 6 3 3 8 4 2 2 4
OS2TypoAscent: 2100
OS2TypoAOffset: 0
OS2TypoDescent: -1100
OS2TypoDOffset: 0
OS2TypoLinegap: 0
OS2WinAscent: 2100
OS2WinAOffset: 0
OS2WinDescent: 1100
OS2WinDOffset: 0
HheadAscent: 2100
HheadAOffset: 0
HheadDescent: -1100
HheadDOffset: 0
OS2SubXSize: 1331
OS2SubYSize: 1433
OS2SubXOff: 0
OS2SubYOff: 286
OS2SupXSize: 1331
OS2SupYSize: 1433
OS2SupXOff: 0
OS2SupYOff: 983
OS2StrikeYSize: 102
OS2StrikeYPos: 530
OS2CapHeight: 1638
OS2XHeight: 1082
OS2Vendor: '    '
OS2CodePages: 00000041.20080000
OS2UnicodeRanges: 80002003.80000000.00000008.00000000
Lookup: 1 9 0 "'fina' Terminal Forms in Arabic lookup 9" { "'fina' Terminal Forms in Arabic lookup 9 subtable"  } ['fina' ('arab' <'KUR ' 'SND ' 'URD ' 'dflt' > ) ]
Lookup: 1 9 0 "'medi' Medial Forms in Arabic lookup 11" { "'medi' Medial Forms in Arabic lookup 11 subtable"  } ['medi' ('arab' <'KUR ' 'SND ' 'URD ' 'dflt' > ) ]
Lookup: 1 9 0 "'init' Initial Forms in Arabic lookup 13" { "'init' Initial Forms in Arabic lookup 13 subtable"  } ['init' ('arab' <'KUR ' 'SND ' 'URD ' 'dflt' > ) ]

StartChar: exclam
Encoding: 33 33 1
GlifName: exclam
Width: 641
VWidth: 2784
GlyphClass: 2
Flags: W
LayerCount: 2
Fore
SplineSet
165.091796875 160.493164062 m 0,0,1
 165.091796875 224.65234375 165.091796875 224.65234375 210.60546875 270.165039062 c 128,-1,2
 256.119140625 315.6796875 256.119140625 315.6796875 320.278320312 315.6796875 c 128,-1,3
 384.438476562 315.6796875 384.438476562 315.6796875 429.952148438 270.165039062 c 128,-1,4
 475.463867188 224.65234375 475.463867188 224.65234375 475.463867188 160.493164062 c 128,-1,5
 475.463867188 96.333984375 475.463867188 96.333984375 429.952148438 50.8212890625 c 128,-1,6
 384.438476562 5.306640625 384.438476562 5.306640625 320.278320312 5.306640625 c 0,7,8
 301.837890625 5.306640625 301.837890625 5.306640625 284.638671875 9.2197265625 c 128,-1,9
 267.439453125 13.1328125 267.439453125 13.1328125 251.71484375 20.9345703125 c 128,-1,10
 235.990234375 28.736328125 235.990234375 28.736328125 222.126953125 40.2861328125 c 0,11,12
 206.693359375 53.1435546875 206.693359375 53.1435546875 195.208007812 68.3876953125 c 128,-1,13
 183.72265625 83.6318359375 183.72265625 83.6318359375 176.513671875 100.998046875 c 0,14,15
 165.091796875 128.512695312 165.091796875 128.512695312 165.091796875 160.493164062 c 0,0,1
213.161132812 1407.07128906 m 5,16,-1
 430.612304688 1407.07128906 l 5,17,-1
 451.130859375 1407.07128906 l 5,18,-1
 450.60546875 1386.55957031 l 5,19,-1
 426.087890625 468.8125 l 1,20,-1
 425.588867188 449.32421875 l 1,21,-1
 406.094726562 449.32421875 l 1,22,-1
 238.90234375 449.32421875 l 1,23,-1
 219.432617188 449.32421875 l 1,24,-1
 218.909179688 468.787109375 l 1,25,-1
 193.16796875 1386.53417969 l 5,26,-1
 192.616210938 1407.07128906 l 5,27,-1
 213.161132812 1407.07128906 l 5,16,-1
EndSplineSet
EndChar

StartChar: period
Encoding: 46 46 2
GlifName: period
Width: 641
VWidth: 2784
GlyphClass: 2
Flags: W
LayerCount: 2
Fore
SplineSet
165.091796875 160.493164062 m 0,0,1
 165.091796875 224.65234375 165.091796875 224.65234375 210.60546875 270.165039062 c 128,-1,2
 256.119140625 315.6796875 256.119140625 315.6796875 320.278320312 315.6796875 c 128,-1,3
 384.438476562 315.6796875 384.438476562 315.6796875 429.952148438 270.165039062 c 128,-1,4
 475.463867188 224.65234375 475.463867188 224.65234375 475.463867188 160.493164062 c 128,-1,5
 475.463867188 96.333984375 475.463867188 96.333984375 429.952148438 50.8212890625 c 128,-1,6
 384.438476562 5.306640625 384.438476562 5.306640625 320.278320312 5.306640625 c 0,7,8
 301.837890625 5.306640625 301.837890625 5.306640625 284.638671875 9.2197265625 c 128,-1,9
 267.439453125 13.1328125 267.439453125 13.1328125 251.71484375 20.9345703125 c 128,-1,10
 235.990234375 28.736328125 235.990234375 28.736328125 222.126953125 40.2861328125 c 0,11,12
 206.693359375 53.1435546875 206.693359375 53.1435546875 195.208007812 68.3876953125 c 128,-1,13
 183.72265625 83.6318359375 183.72265625 83.6318359375 176.513671875 100.998046875 c 0,14,15
 165.091796875 128.512695312 165.091796875 128.512695312 165.091796875 160.493164062 c 0,0,1
EndSplineSet
EndChar

StartChar: colon
Encoding: 58 58 3
GlifName: colon
Width: 641
VWidth: 2784
GlyphClass: 2
Flags: W
LayerCount: 2
Fore
SplineSet
165.091796875 1030.49316406 m 0,0,1
 165.091796875 1094.65234375 165.091796875 1094.65234375 210.60546875 1140.16503906 c 128,-1,2
 256.119140625 1185.6796875 256.119140625 1185.6796875 320.278320312 1185.6796875 c 0,3,4
 336.087890625 1185.6796875 336.087890625 1185.6796875 351.020507812 1182.77441406 c 128,-1,5
 365.953125 1179.86914062 365.953125 1179.86914062 379.729492188 1174.15039062 c 128,-1,6
 393.505859375 1168.43066406 393.505859375 1168.43066406 406.125 1159.90136719 c 128,-1,7
 418.744140625 1151.37304688 418.744140625 1151.37304688 429.952148438 1140.16503906 c 0,8,9
 452.404296875 1117.71289062 452.404296875 1117.71289062 463.93359375 1089.93652344 c 128,-1,10
 475.463867188 1062.16113281 475.463867188 1062.16113281 475.463867188 1030.49316406 c 0,11,12
 475.463867188 966.333984375 475.463867188 966.333984375 429.952148438 920.821289062 c 0,13,14
 407.499023438 898.368164062 407.499023438 898.368164062 379.72265625 886.836914062 c 128,-1,15
 351.946289062 875.306640625 351.946289062 875.306640625 320.278320312 875.306640625 c 0,16,17
 309.220703125 875.306640625 309.220703125 875.306640625 298.583007812 876.719726562 c 128,-1,18
 287.9453125 878.131835938 287.9453125 878.131835938 277.80078125 880.952148438 c 128,-1,19
 267.65625 883.772460938 267.65625 883.772460938 258.069335938 887.966796875 c 128,-1,20
 248.481445312 892.162109375 248.481445312 892.162109375 239.46484375 897.7578125 c 128,-1,21
 230.44921875 903.353515625 230.44921875 903.353515625 222.126953125 910.286132812 c 0,22,23
 206.693359375 923.143554688 206.693359375 923.143554688 195.208007812 938.387695312 c 128,-1,24
 183.72265625 953.631835938 183.72265625 953.631835938 176.513671875 970.998046875 c 0,25,26
 165.091796875 998.512695312 165.091796875 998.512695312 165.091796875 1030.49316406 c 0,0,1
165.091796875 160.493164062 m 0,27,28
 165.091796875 224.65234375 165.091796875 224.65234375 210.60546875 270.165039062 c 128,-1,29
 256.119140625 315.6796875 256.119140625 315.6796875 320.278320312 315.6796875 c 128,-1,30
 384.438476562 315.6796875 384.438476562 315.6796875 429.952148438 270.165039062 c 128,-1,31
 475.463867188 224.65234375 475.463867188 224.65234375 475.463867188 160.493164062 c 128,-1,32
 475.463867188 96.333984375 475.463867188 96.333984375 429.952148438 50.8212890625 c 128,-1,33
 384.438476562 5.306640625 384.438476562 5.306640625 320.278320312 5.306640625 c 0,34,35
 301.837890625 5.306640625 301.837890625 5.306640625 284.638671875 9.2197265625 c 128,-1,36
 267.439453125 13.1328125 267.439453125 13.1328125 251.71484375 20.9345703125 c 128,-1,37
 235.990234375 28.736328125 235.990234375 28.736328125 222.126953125 40.2861328125 c 0,38,39
 206.693359375 53.1435546875 206.693359375 53.1435546875 195.208007812 68.3876953125 c 128,-1,40
 183.72265625 83.6318359375 183.72265625 83.6318359375 176.513671875 100.998046875 c 0,41,42
 165.091796875 128.512695312 165.091796875 128.512695312 165.091796875 160.493164062 c 0,27,28
EndSplineSet
EndChar

StartChar: afii57388
Encoding: 1548 1548 5
GlifName: afii57388
Width: 739
VWidth: 2792
GlyphClass: 2
Flags: W
LayerCount: 2
Fore
SplineSet
215.892578125 313.9453125 m 0,0,1
 266.893554688 566.372070312 266.893554688 566.372070312 470.081054688 720.37890625 c 2,2,-1
 481.044921875 728.689453125 l 1,3,-1
 492.725585938 721.422851562 l 1,4,-1
 540.959960938 691.418945312 l 1,5,-1
 563.559570312 677.361328125 l 1,6,-1
 543.76953125 659.565429688 l 2,7,8
 399.161132812 529.52734375 399.161132812 529.52734375 377.8203125 329.026367188 c 1,9,10
 504.287109375 325.057617188 504.287109375 325.057617188 540.494140625 253.907226562 c 0,11,12
 562.11328125 210.474609375 562.11328125 210.474609375 561.083007812 167.609375 c 0,13,14
 560.510742188 129.45703125 560.510742188 129.45703125 549.276367188 99.7138671875 c 128,-1,15
 538.041992188 69.970703125 538.041992188 69.970703125 517.079101562 49.904296875 c 128,-1,16
 496.116210938 29.837890625 496.116210938 29.837890625 465.546875 19.3857421875 c 128,-1,17
 434.9765625 8.9326171875 434.9765625 8.9326171875 396.047851562 8.9072265625 c 0,18,19
 365.9609375 8.78125 365.9609375 8.78125 340.470703125 13.802734375 c 0,20,21
 251.349609375 31.3603515625 251.349609375 31.3603515625 220.854492188 108.931640625 c 128,-1,22
 190.359375 186.501953125 190.359375 186.501953125 215.892578125 313.9453125 c 0,0,1
EndSplineSet
EndChar

StartChar: uni0615
Encoding: 1557 1557 6
GlifName: uni0615
Width: -29
VWidth: 2714
GlyphClass: 4
Flags: W
AnchorPoint: "Anchor-10" 658.199 1624.46 mark 0
AnchorPoint: "Anchor-9" 658.199 1624.46 mark 0
AnchorPoint: "Anchor-1" 672.366 2447.86 basemark 0
AnchorPoint: "Anchor-1" 658.199 1624.46 mark 0
LayerCount: 2
Fore
SplineSet
912.769755624 1920.01350395 m 0,0,1
 912.769755624 1994.96856117 912.769755624 1994.96856117 836.782727051 1994.96856117 c 4,2,3
 730.412315598 1994.96856117 730.412315598 1994.96856117 541.2421875 1790.00390625 c 1,4,-1
 677.703125 1790.00390625 l 2,5,6
 781.798204784 1790.00390625 781.798204784 1790.00390625 845.899102392 1824.50195312 c 0,7,8
 912.769755624 1860.49063684 912.769755624 1860.49063684 912.769755624 1920.01350395 c 0,0,1
991.1328125 1928.79980469 m 0,9,10
 991.00004589 1714.07421875 991.00004589 1714.07421875 668.384765625 1714.07421875 c 2,11,-1
 354.936523438 1714.07421875 l 1,12,-1
 354.936523438 1790.00390625 l 1,13,-1
 462.987304688 1790.00390625 l 1,14,-1
 462.987304688 2322.15039062 l 1,15,-1
 540.234375 2321.18359375 l 1,16,-1
 539.275390625 1893.90234375 l 1,17,18
 703.078829305 2080.07964876 703.078829305 2080.07964876 840.555998274 2080.07964876 c 4,19,20
 990.947121021 2080.07964876 990.947121021 2080.07964876 991.1328125 1928.79980469 c 0,9,10
EndSplineSet
EndChar

StartChar: uni061B
Encoding: 1563 1563 7
GlifName: uni061B_
Width: 739
VWidth: 2792
GlyphClass: 2
Flags: W
LayerCount: 2
Fore
SplineSet
242.091796875 160.493164062 m 0,0,1
 242.091796875 224.65234375 242.091796875 224.65234375 287.60546875 270.165039062 c 128,-1,2
 333.119140625 315.6796875 333.119140625 315.6796875 397.278320312 315.6796875 c 128,-1,3
 461.438476562 315.6796875 461.438476562 315.6796875 506.952148438 270.165039062 c 128,-1,4
 552.463867188 224.65234375 552.463867188 224.65234375 552.463867188 160.493164062 c 128,-1,5
 552.463867188 96.333984375 552.463867188 96.333984375 506.952148438 50.8212890625 c 128,-1,6
 461.438476562 5.306640625 461.438476562 5.306640625 397.278320312 5.306640625 c 0,7,8
 341.115234375 5.306640625 341.115234375 5.306640625 299.126953125 40.2861328125 c 0,9,10
 267.924804688 66.2802734375 267.924804688 66.2802734375 253.513671875 100.998046875 c 0,11,12
 242.091796875 128.512695312 242.091796875 128.512695312 242.091796875 160.493164062 c 0,0,1
215.892578125 753.9453125 m 0,13,14
 266.893554688 1006.37207031 266.893554688 1006.37207031 470.081054688 1160.37890625 c 2,15,-1
 481.044921875 1168.68945312 l 1,16,-1
 492.725585938 1161.42285156 l 1,17,-1
 540.959960938 1131.41894531 l 1,18,-1
 563.559570312 1117.36132812 l 1,19,-1
 543.76953125 1099.56542969 l 2,20,21
 399.161132812 969.52734375 399.161132812 969.52734375 377.8203125 769.026367188 c 1,22,23
 504.287109375 765.057617188 504.287109375 765.057617188 540.494140625 693.907226562 c 0,24,25
 562.11328125 650.474609375 562.11328125 650.474609375 561.083007812 607.609375 c 0,26,27
 559.93359375 531.041015625 559.93359375 531.041015625 517.122070312 489.999023438 c 128,-1,28
 474.309570312 448.958007812 474.309570312 448.958007812 396.047851562 448.907226562 c 0,29,30
 365.9609375 448.78125 365.9609375 448.78125 340.470703125 453.802734375 c 0,31,32
 280.759765625 465.56640625 280.759765625 465.56640625 246.90234375 505.291015625 c 128,-1,33
 213.044921875 545.015625 213.044921875 545.015625 206.454101562 607.55859375 c 128,-1,34
 199.86328125 670.1015625 199.86328125 670.1015625 215.892578125 753.9453125 c 0,13,14
EndSplineSet
EndChar

StartChar: uni061F
Encoding: 1567 1567 8
GlifName: uni061F_
Width: 964
VWidth: 2784
GlyphClass: 2
Flags: W
LayerCount: 2
Fore
SplineSet
388.091796875 160.493164062 m 0,0,1
 388.091796875 224.65234375 388.091796875 224.65234375 433.60546875 270.165039062 c 128,-1,2
 479.119140625 315.6796875 479.119140625 315.6796875 543.278320312 315.6796875 c 0,3,4
 559.087890625 315.6796875 559.087890625 315.6796875 574.020507812 312.774414062 c 128,-1,5
 588.953125 309.869140625 588.953125 309.869140625 602.729492188 304.150390625 c 128,-1,6
 616.505859375 298.430664062 616.505859375 298.430664062 629.125 289.901367188 c 128,-1,7
 641.744140625 281.373046875 641.744140625 281.373046875 652.952148438 270.165039062 c 0,8,9
 675.404296875 247.712890625 675.404296875 247.712890625 686.93359375 219.936523438 c 128,-1,10
 698.463867188 192.161132812 698.463867188 192.161132812 698.463867188 160.493164062 c 0,11,12
 698.463867188 96.333984375 698.463867188 96.333984375 652.952148438 50.8212890625 c 128,-1,13
 607.438476562 5.306640625 607.438476562 5.306640625 543.278320312 5.306640625 c 0,14,15
 487.115234375 5.306640625 487.115234375 5.306640625 445.126953125 40.2861328125 c 0,16,17
 413.924804688 66.2802734375 413.924804688 66.2802734375 399.513671875 100.998046875 c 0,18,19
 388.091796875 128.512695312 388.091796875 128.512695312 388.091796875 160.493164062 c 0,0,1
422.349609375 473.977539062 m 2,20,21
 422.349609375 601.709232726 422.349609375 601.709232726 225.275390625 765.614257812 c 0,22,23
 82 885 82 885 85.0048828125 1045.4296875 c 0,24,25
 88 1183 88 1183 167.025390625 1272.2578125 c 0,26,27
 294 1415 294 1415 499.015625 1414.51660156 c 0,28,29
 690 1414 690 1414 787.9765625 1309.96679688 c 128,-1,30
 886 1206 886 1206 886 1006 c 2,31,-1
 886 996.25 l 1,32,-1
 886 976.25 l 1,33,-1
 866 976.25 l 1,34,-1
 705.799804688 976.248046875 l 1,35,-1
 685.799804688 976.248046875 l 1,36,-1
 685.799804688 996.248046875 l 1,37,-1
 685.799804688 1004.88574219 l 2,38,39
 686 1096 686 1096 642.859375 1138.38183594 c 0,40,41
 600 1181 600 1181 507.583007812 1180.89453125 c 0,42,43
 399 1181 399 1181 349.748046875 1121.18652344 c 0,44,45
 342 1112 342 1112 336.795898438 1102.39160156 c 0,46,47
 331 1092 331 1092 327.408203125 1080.9609375 c 128,-1,48
 324 1070 324 1070 321.598632812 1056.48730469 c 0,49,50
 320 1043 320 1043 319.510742188 1028.87402344 c 0,51,52
 319 957 319 957 428.57421875 854.688476562 c 0,53,54
 664.98046875 637.885755377 664.98046875 637.885755377 664.98046875 477 c 6,55,-1
 664.98046875 446.333007812 l 1,56,-1
 644.98046875 446.333007812 l 1,57,-1
 442.349609375 446.330078125 l 1,58,-1
 422.349609375 446.330078125 l 1,59,-1
 422.349609375 473.977539062 l 2,20,21
EndSplineSet
EndChar

StartChar: uni0621
Encoding: 1569 1569 9
GlifName: uni0621
Width: 868
VWidth: 2972
GlyphClass: 2
Flags: W
AnchorPoint: "Anchor-7" 474.326 -18.6465 basechar 0
AnchorPoint: "Anchor-10" 440.848 1162.06 basechar 0
LayerCount: 2
Fore
SplineSet
97.76953125 31.8525390625 m 1,0,-1
 97.76953125 209.793945312 l 1,1,-1
 97.76953125 220.655273438 l 1,2,-1
 106.879882812 226.569335938 l 2,3,4
 194.381835938 283.372070312 194.381835938 283.372070312 268.788085938 312.458984375 c 1,5,6
 118.01171875 408.100585938 118.01171875 408.100585938 118.256835938 560.693359375 c 0,7,8
 119.041015625 703.477539062 119.041015625 703.477539062 194.90625 791.490234375 c 0,9,10
 302.865234375 915.994140625 302.865234375 915.994140625 475.288085938 916.10546875 c 0,11,12
 651.333984375 915.995117188 651.333984375 915.995117188 746.83984375 819.754882812 c 2,13,-1
 756.181640625 810.340820312 l 1,14,-1
 751.145507812 798.072265625 l 1,15,-1
 694.569335938 660.25390625 l 1,16,-1
 684.927734375 636.766601562 l 1,17,-1
 664.3515625 651.639648438 l 2,18,19
 590.549804688 704.984375 590.549804688 704.984375 487.14453125 704.736328125 c 0,20,21
 446.943359375 704.396484375 446.943359375 704.396484375 416.348632812 693.380859375 c 128,-1,22
 385.75390625 682.366210938 385.75390625 682.366210938 363.623046875 660.9375 c 0,23,24
 323.967773438 622.500976562 323.967773438 622.500976562 323.731445312 560.557617188 c 0,25,26
 323.836914062 524.868164062 323.836914062 524.868164062 361.9375 486.927734375 c 128,-1,27
 400.038085938 448.98828125 400.038085938 448.98828125 478.684570312 412.3515625 c 1,28,-1
 724.794921875 467.955078125 l 1,29,-1
 745.559570312 472.646484375 l 1,30,-1
 748.947265625 451.629882812 l 1,31,-1
 776.745117188 279.182617188 l 1,32,-1
 780.0625 258.604492188 l 1,33,-1
 759.364257812 256.140625 l 2,34,35
 511.251953125 226.603515625 511.251953125 226.603515625 127.448242188 14.3505859375 c 2,36,-1
 97.76953125 -2.0625 l 1,37,-1
 97.76953125 31.8525390625 l 1,0,-1
EndSplineSet
EndChar

StartChar: uni0627
Encoding: 1575 1575 15
GlifName: uni0627
Width: 477
VWidth: 2972
GlyphClass: 2
Flags: W
AnchorPoint: "Anchor-10" 229.871 1535.46 basechar 0
AnchorPoint: "Anchor-7" 233.587 -216.365 basechar 0
LayerCount: 2
Fore
SplineSet
150.890625 1390.15039062 m 1,0,-1
 324.205078125 1390.15039062 l 1,1,-1
 344.205078125 1390.15039062 l 5,2,-1
 344.205078125 1370.15039062 l 5,3,-1
 344.205078125 20.751953125 l 1,4,-1
 344.205078125 0.751953125 l 1,5,-1
 324.205078125 0.751953125 l 1,6,-1
 150.890625 0.751953125 l 1,7,-1
 130.890625 0.751953125 l 1,8,-1
 130.890625 20.751953125 l 1,9,-1
 130.890625 1370.15039062 l 1,10,-1
 130.890625 1390.15039062 l 1,11,-1
 150.890625 1390.15039062 l 1,0,-1
EndSplineSet
Substitution2: "'fina' Terminal Forms in Arabic lookup 9 subtable" uniFE8E
EndChar

StartChar: uni062D
Encoding: 1581 1581 21
GlifName: uni062D_
Width: 1386
VWidth: 2972
GlyphClass: 2
Flags: W
AnchorPoint: "Anchor-7" 580.833 -790.619 basechar 0
AnchorPoint: "Anchor-10" 649.478 1282.07 basechar 0
LayerCount: 2
Fore
SplineSet
104.987304688 -124.852539062 m 0,0,1
 104.987304688 163.37890625 104.987304688 163.37890625 276.095703125 351.393554688 c 128,-1,2
 447.203125 539.408203125 447.203125 539.408203125 784.044921875 624.821289062 c 1,3,4
 772.123046875 629.545898438 772.123046875 629.545898438 758.640625 634.90234375 c 128,-1,5
 745.158203125 640.259765625 745.158203125 640.259765625 729.424804688 646.5234375 c 0,6,7
 538.145507812 723.983398438 538.145507812 723.983398438 469.56640625 723.6875 c 0,8,9
 434.750976562 723.784179688 434.750976562 723.784179688 404.62109375 714.477539062 c 128,-1,10
 374.491210938 705.171875 374.491210938 705.171875 348.290039062 686.110351562 c 128,-1,11
 322.087890625 667.048828125 322.087890625 667.048828125 299.436523438 637.872070312 c 2,12,-1
 271.408203125 601.76953125 l 1,13,-1
 261.396484375 588.873046875 l 1,14,-1
 246.756835938 596.100585938 l 1,15,-1
 92.896484375 672.060546875 l 1,16,-1
 73.3515625 681.709960938 l 1,17,-1
 84.642578125 700.353515625 l 1,18,-1
 101.336914062 727.923828125 l 2,19,20
 166.436523438 835.477539062 166.436523438 835.477539062 259.547851562 890.440429688 c 128,-1,21
 352.66015625 945.40234375 352.66015625 945.40234375 471.036132812 945.840820312 c 0,22,23
 515.952148438 945.897460938 515.952148438 945.897460938 565.646484375 936.01953125 c 128,-1,24
 615.341796875 926.141601562 615.341796875 926.141601562 669.334960938 906.75 c 128,-1,25
 723.328125 887.358398438 723.328125 887.358398438 783.751953125 858.008789062 c 0,26,27
 1092.015625 707.803710938 1092.015625 707.803710938 1258.76269531 700.672851562 c 2,28,-1
 1279.39160156 699.791015625 l 1,29,-1
 1277.85253906 679.200195312 l 1,30,-1
 1264.86328125 505.438476562 l 1,31,-1
 1263.56347656 488.049804688 l 1,32,-1
 1246.15917969 486.967773438 l 2,33,34
 1221.21289062 485.41796875 1221.21289062 485.41796875 1197.44628906 483.55078125 c 128,-1,35
 1173.68066406 481.682617188 1173.68066406 481.682617188 1151.1875 479.505859375 c 128,-1,36
 1128.69433594 477.329101562 1128.69433594 477.329101562 1107.40234375 474.840820312 c 128,-1,37
 1086.11132812 472.3515625 1086.11132812 472.3515625 1066.09375 469.559570312 c 128,-1,38
 1046.07617188 466.767578125 1046.07617188 466.767578125 1027.28320312 463.66796875 c 128,-1,39
 1008.49023438 460.569335938 1008.49023438 460.569335938 990.97265625 457.172851562 c 128,-1,40
 973.455078125 453.775390625 973.455078125 453.775390625 957.182617188 450.077148438 c 0,41,42
 315.008789062 301.110351562 315.008789062 301.110351562 315.249023438 -109.31640625 c 0,43,44
 315.130859375 -283.9609375 315.130859375 -283.9609375 440.446289062 -370.92578125 c 128,-1,45
 565.760742188 -457.889648438 565.760742188 -457.889648438 826.403320312 -457.783203125 c 0,46,47
 1038.4765625 -457.995117188 1038.4765625 -457.995117188 1234.68847656 -364.23828125 c 2,48,-1
 1257.71191406 -353.237304688 l 1,49,-1
 1262.89453125 -378.221679688 l 1,50,-1
 1298.95410156 -552.047851562 l 1,51,-1
 1302.1171875 -567.29296875 l 1,52,-1
 1288.11328125 -574.098632812 l 2,53,54
 1084.61132812 -672.99609375 1084.61132812 -672.99609375 811.515625 -673.249023438 c 0,55,56
 613.002929688 -673.122070312 613.002929688 -673.122070312 469.709960938 -626.625 c 128,-1,57
 326.416015625 -580.127929688 326.416015625 -580.127929688 239.325195312 -485.895507812 c 0,58,59
 172.270507812 -413.483398438 172.270507812 -413.483398438 138.62890625 -322.885742188 c 128,-1,60
 104.987304688 -232.288085938 104.987304688 -232.288085938 104.987304688 -124.852539062 c 0,0,1
EndSplineSet
Substitution2: "'fina' Terminal Forms in Arabic lookup 9 subtable" uniFEA2
Substitution2: "'medi' Medial Forms in Arabic lookup 11 subtable" uniFEA4
Substitution2: "'init' Initial Forms in Arabic lookup 13 subtable" uniFEA3
EndChar

StartChar: uni062F
Encoding: 1583 1583 23
GlifName: uni062F_
Width: 974
VWidth: 2972
GlyphClass: 2
Flags: W
AnchorPoint: "Anchor-10" 376.137 1231.03 basechar 0
AnchorPoint: "Anchor-7" 437.24 -219.316 basechar 0
LayerCount: 2
Fore
SplineSet
105.0546875 250.7890625 m 2,0,1
 229.046875 225.001953125 229.046875 225.001953125 321.668945312 225.107421875 c 0,2,3
 671.995117188 225.005859375 671.995117188 225.005859375 671.954101562 386.385742188 c 0,4,5
 671.967773438 442.915039062 671.967773438 442.915039062 628.736328125 509.329101562 c 128,-1,6
 585.50390625 575.744140625 585.50390625 575.744140625 494.157226562 654.49609375 c 128,-1,7
 402.811523438 733.249023438 402.811523438 733.249023438 266.352539062 819.0703125 c 2,8,-1
 249.056640625 829.947265625 l 1,9,-1
 260.30078125 847.006835938 l 1,10,-1
 360.553710938 999.106445312 l 1,11,-1
 371.077148438 1015.07128906 l 1,12,-1
 387.498046875 1005.27636719 l 2,13,14
 891.982421875 704.369140625 891.982421875 704.369140625 892.479492188 388.899414062 c 0,15,16
 892.310546875 260.125976562 892.310546875 260.125976562 828.03515625 173.736328125 c 128,-1,17
 763.760742188 87.34765625 763.760742188 87.34765625 640.141601562 44.9287109375 c 128,-1,18
 516.522460938 2.509765625 516.522460938 2.509765625 334.8515625 2.259765625 c 0,19,20
 205.818359375 1.9951171875 205.818359375 1.9951171875 96.630859375 26.337890625 c 2,21,-1
 80.982421875 29.826171875 l 1,22,-1
 80.982421875 45.8583984375 l 1,23,-1
 80.982421875 231.208007812 l 1,24,-1
 80.982421875 255.794921875 l 1,25,-1
 105.0546875 250.7890625 l 2,0,1
EndSplineSet
Substitution2: "'fina' Terminal Forms in Arabic lookup 9 subtable" uniFEAA
EndChar

StartChar: uni0631
Encoding: 1585 1585 25
GlifName: uni0631
Width: 775
VWidth: 2164
GlyphClass: 2
Flags: W
AnchorPoint: "Anchor-10" 467.256 946.2 basechar 0
AnchorPoint: "Anchor-7" 322.969 -647.998 basechar 0
LayerCount: 2
Fore
SplineSet
619.637695312 559.182617188 m 2,0,1
 661.734375 456.7734375 661.734375 456.7734375 682.958007812 361.256835938 c 128,-1,2
 704.182617188 265.741210938 704.182617188 265.741210938 704.375 177.015625 c 0,3,4
 704.696289062 -102.73828125 704.696289062 -102.73828125 540.396484375 -274.6875 c 128,-1,5
 376.09765625 -446.63671875 376.09765625 -446.63671875 52.7080078125 -507.653320312 c 2,6,-1
 36.439453125 -510.72265625 l 1,7,-1
 30.3857421875 -495.314453125 l 1,8,-1
 -31.7451171875 -337.193359375 l 1,9,-1
 -40.5986328125 -314.662109375 l 1,10,-1
 -16.802734375 -310.21875 l 2,11,12
 155.018554688 -278.131835938 155.018554688 -278.131835938 268.21484375 -213.647460938 c 128,-1,13
 381.411132812 -149.163085938 381.411132812 -149.163085938 436.970703125 -53.1005859375 c 128,-1,14
 492.53125 42.9619140625 492.53125 42.9619140625 493.250976562 172.353515625 c 0,15,16
 493.977539062 303.940429688 493.977539062 303.940429688 416.622070312 484.109375 c 2,17,-1
 408.233398438 503.6484375 l 1,18,-1
 428.249023438 510.826171875 l 1,19,-1
 594.388671875 570.405273438 l 1,20,-1
 612.374023438 576.854492188 l 1,21,-1
 619.637695312 559.182617188 l 2,0,1
EndSplineSet
PairPos2: "'kern' Horizontal Kerning lookup 15-5" uni06C0 dx=-178 dy=0 dh=-178 dv=0 dx=0 dy=0 dh=0 dv=0
PairPos2: "'kern' Horizontal Kerning lookup 15-2" uniFBFE dx=60 dy=0 dh=60 dv=0 dx=0 dy=0 dh=0 dv=0
PairPos2: "'kern' Horizontal Kerning lookup 15-1" uniFEE7 dx=-178 dy=0 dh=-178 dv=0 dx=0 dy=0 dh=0 dv=0
PairPos2: "'kern' Horizontal Kerning lookup 15-2" uniFB90 dx=-226 dy=0 dh=-226 dv=0 dx=0 dy=0 dh=0 dv=0
PairPos2: "'kern' Horizontal Kerning lookup 15-2" uniFB8E dx=-226 dy=0 dh=-226 dv=0 dx=0 dy=0 dh=0 dv=0
PairPos2: "'kern' Horizontal Kerning lookup 15-2" uni06A9 dx=-226 dy=0 dh=-226 dv=0 dx=0 dy=0 dh=0 dv=0
PairPos2: "'kern' Horizontal Kerning lookup 15-2" uni064A dx=-60 dy=0 dh=-60 dv=0 dx=0 dy=0 dh=0 dv=0
PairPos2: "'kern' Horizontal Kerning lookup 15-2" afii57414 dx=-60 dy=0 dh=-60 dv=0 dx=0 dy=0 dh=0 dv=0
PairPos2: "'kern' Horizontal Kerning lookup 15-2" uni0649 dx=-60 dy=0 dh=-60 dv=0 dx=0 dy=0 dh=0 dv=0
PairPos2: "'kern' Horizontal Kerning lookup 15-2" uniFEEB dx=-178 dy=0 dh=-178 dv=0 dx=0 dy=0 dh=0 dv=0
PairPos2: "'kern' Horizontal Kerning lookup 15-2" uni0647 dx=-178 dy=0 dh=-178 dv=0 dx=0 dy=0 dh=0 dv=0
PairPos2: "'kern' Horizontal Kerning lookup 15-2" uni0646 dx=-60 dy=0 dh=-60 dv=0 dx=0 dy=0 dh=0 dv=0
PairPos2: "'kern' Horizontal Kerning lookup 15-2" uniFEE3 dx=-178 dy=0 dh=-178 dv=0 dx=0 dy=0 dh=0 dv=0
PairPos2: "'kern' Horizontal Kerning lookup 15-2" uni0645 dx=-178 dy=0 dh=-178 dv=0 dx=0 dy=0 dh=0 dv=0
PairPos2: "'kern' Horizontal Kerning lookup 15-2" uniFEFB dx=-143 dy=0 dh=-143 dv=0 dx=0 dy=0 dh=0 dv=0
PairPos2: "'kern' Horizontal Kerning lookup 15-2" uniFEDF dx=-143 dy=0 dh=-143 dv=0 dx=0 dy=0 dh=0 dv=0
PairPos2: "'kern' Horizontal Kerning lookup 15-2" uni0644 dx=-60 dy=0 dh=-60 dv=0 dx=0 dy=0 dh=0 dv=0
PairPos2: "'kern' Horizontal Kerning lookup 15-2" uniFEDB dx=-226 dy=0 dh=-226 dv=0 dx=0 dy=0 dh=0 dv=0
PairPos2: "'kern' Horizontal Kerning lookup 15-2" uni0643 dx=-143 dy=0 dh=-143 dv=0 dx=0 dy=0 dh=0 dv=0
PairPos2: "'kern' Horizontal Kerning lookup 15-2" uniFED7 dx=-178 dy=0 dh=-178 dv=0 dx=0 dy=0 dh=0 dv=0
PairPos2: "'kern' Horizontal Kerning lookup 15-2" uni0642 dx=-60 dy=0 dh=-60 dv=0 dx=0 dy=0 dh=0 dv=0
PairPos2: "'kern' Horizontal Kerning lookup 15-2" uniFED3 dx=-178 dy=0 dh=-178 dv=0 dx=0 dy=0 dh=0 dv=0
PairPos2: "'kern' Horizontal Kerning lookup 15-2" uni0641 dx=-178 dy=0 dh=-178 dv=0 dx=0 dy=0 dh=0 dv=0
PairPos2: "'kern' Horizontal Kerning lookup 15-2" uniFECF dx=-178 dy=0 dh=-178 dv=0 dx=0 dy=0 dh=0 dv=0
PairPos2: "'kern' Horizontal Kerning lookup 15-2" uniFECB dx=-178 dy=0 dh=-178 dv=0 dx=0 dy=0 dh=0 dv=0
PairPos2: "'kern' Horizontal Kerning lookup 15-2" uniFEC7 dx=-178 dy=0 dh=-178 dv=0 dx=0 dy=0 dh=0 dv=0
PairPos2: "'kern' Horizontal Kerning lookup 15-2" uni0638 dx=-178 dy=0 dh=-178 dv=0 dx=0 dy=0 dh=0 dv=0
PairPos2: "'kern' Horizontal Kerning lookup 15-2" uniFEC3 dx=-178 dy=0 dh=-178 dv=0 dx=0 dy=0 dh=0 dv=0
PairPos2: "'kern' Horizontal Kerning lookup 15-2" uni0637 dx=-178 dy=0 dh=-178 dv=0 dx=0 dy=0 dh=0 dv=0
PairPos2: "'kern' Horizontal Kerning lookup 15-2" uniFEBF dx=-178 dy=0 dh=-178 dv=0 dx=0 dy=0 dh=0 dv=0
PairPos2: "'kern' Horizontal Kerning lookup 15-2" uni0636 dx=-178 dy=0 dh=-178 dv=0 dx=0 dy=0 dh=0 dv=0
PairPos2: "'kern' Horizontal Kerning lookup 15-2" uniFEBB dx=-178 dy=0 dh=-178 dv=0 dx=0 dy=0 dh=0 dv=0
PairPos2: "'kern' Horizontal Kerning lookup 15-2" uni0635 dx=-178 dy=0 dh=-178 dv=0 dx=0 dy=0 dh=0 dv=0
PairPos2: "'kern' Horizontal Kerning lookup 15-2" uniFEB7 dx=-178 dy=0 dh=-178 dv=0 dx=0 dy=0 dh=0 dv=0
PairPos2: "'kern' Horizontal Kerning lookup 15-2" uni0634 dx=-178 dy=0 dh=-178 dv=0 dx=0 dy=0 dh=0 dv=0
PairPos2: "'kern' Horizontal Kerning lookup 15-2" uniFEB3 dx=-178 dy=0 dh=-178 dv=0 dx=0 dy=0 dh=0 dv=0
PairPos2: "'kern' Horizontal Kerning lookup 15-2" uni0633 dx=-178 dy=0 dh=-178 dv=0 dx=0 dy=0 dh=0 dv=0
PairPos2: "'kern' Horizontal Kerning lookup 15-2" uni0630 dx=-178 dy=0 dh=-178 dv=0 dx=0 dy=0 dh=0 dv=0
PairPos2: "'kern' Horizontal Kerning lookup 15-2" uni062F dx=-178 dy=0 dh=-178 dv=0 dx=0 dy=0 dh=0 dv=0
PairPos2: "'kern' Horizontal Kerning lookup 15-2" uniFEA7 dx=-178 dy=0 dh=-178 dv=0 dx=0 dy=0 dh=0 dv=0
PairPos2: "'kern' Horizontal Kerning lookup 15-2" uniFEA3 dx=-178 dy=0 dh=-178 dv=0 dx=0 dy=0 dh=0 dv=0
PairPos2: "'kern' Horizontal Kerning lookup 15-2" uniFE9F dx=-178 dy=0 dh=-178 dv=0 dx=0 dy=0 dh=0 dv=0
PairPos2: "'kern' Horizontal Kerning lookup 15-2" uniFE9B dx=-178 dy=0 dh=-178 dv=0 dx=0 dy=0 dh=0 dv=0
PairPos2: "'kern' Horizontal Kerning lookup 15-2" uni062B dx=-178 dy=0 dh=-178 dv=0 dx=0 dy=0 dh=0 dv=0
PairPos2: "'kern' Horizontal Kerning lookup 15-2" uniFE97 dx=-178 dy=0 dh=-178 dv=0 dx=0 dy=0 dh=0 dv=0
PairPos2: "'kern' Horizontal Kerning lookup 15-2" uni062A dx=-178 dy=0 dh=-178 dv=0 dx=0 dy=0 dh=0 dv=0
PairPos2: "'kern' Horizontal Kerning lookup 15-2" uni0629 dx=-178 dy=0 dh=-178 dv=0 dx=0 dy=0 dh=0 dv=0
PairPos2: "'kern' Horizontal Kerning lookup 15-2" uni0628 dx=-178 dy=0 dh=-178 dv=0 dx=0 dy=0 dh=0 dv=0
PairPos2: "'kern' Horizontal Kerning lookup 15-2" uni0627 dx=-143 dy=0 dh=-143 dv=0 dx=0 dy=0 dh=0 dv=0
PairPos2: "'kern' Horizontal Kerning lookup 15-2" uni0623 dx=-143 dy=0 dh=-143 dv=0 dx=0 dy=0 dh=0 dv=0
PairPos2: "'kern' Horizontal Kerning lookup 15-2" uni0622 dx=-143 dy=0 dh=-143 dv=0 dx=0 dy=0 dh=0 dv=0
PairPos2: "'kern' Horizontal Kerning lookup 15-2" uni0621 dx=-178 dy=0 dh=-178 dv=0 dx=0 dy=0 dh=0 dv=0
PairPos2: "'kern' Horizontal Kerning lookup 15-2" uniFB94 dx=-226 dy=0 dh=-226 dv=0 dx=0 dy=0 dh=0 dv=0
PairPos2: "'kern' Horizontal Kerning lookup 15-2" uniFB92 dx=-226 dy=0 dh=-226 dv=0 dx=0 dy=0 dh=0 dv=0
PairPos2: "'kern' Horizontal Kerning lookup 15-2" uni06AF dx=-226 dy=0 dh=-226 dv=0 dx=0 dy=0 dh=0 dv=0
PairPos2: "'kern' Horizontal Kerning lookup 15-2" afii57506 dx=-178 dy=0 dh=-178 dv=0 dx=0 dy=0 dh=0 dv=0
PairPos2: "'kern' Horizontal Kerning lookup 15-2" afii57440 dx=-178 dy=0 dh=-178 dv=0 dx=0 dy=0 dh=0 dv=0
PairPos2: "'kern' Horizontal Kerning lookup 15-2" uniFE8B dx=-178 dy=0 dh=-178 dv=0 dx=0 dy=0 dh=0 dv=0
Substitution2: "'fina' Terminal Forms in Arabic lookup 9 subtable" uniFEAE
EndChar

StartChar: uni0633
Encoding: 1587 1587 27
GlifName: uni0633
Width: 2470
VWidth: 2972
GlyphClass: 2
Flags: W
AnchorPoint: "Anchor-10" 1808.53 1157.1 basechar 0
AnchorPoint: "Anchor-7" 723.902 -692.086 basechar 0
LayerCount: 2
Fore
SplineSet
1368.95507812 38.810546875 m 1,0,1
 1362.37988281 -101.26953125 1362.37988281 -101.26953125 1311.84472656 -205.751953125 c 0,2,3
 1157.453125 -520.0078125 1157.453125 -520.0078125 727.338867188 -519.724609375 c 0,4,5
 407.588867188 -519.865234375 407.588867188 -519.865234375 244.477539062 -368.444335938 c 128,-1,6
 81.3662109375 -217.022460938 81.3662109375 -217.022460938 81.7529296875 81.0673828125 c 0,7,8
 82.0048828125 293.983398438 82.0048828125 293.983398438 174.545898438 517.767578125 c 2,9,-1
 182.180664062 536.228515625 l 1,10,-1
 200.649414062 528.616210938 l 1,11,-1
 359.169921875 463.278320312 l 1,12,-1
 377.272460938 455.81640625 l 1,13,-1
 370.197265625 437.560546875 l 2,14,15
 298.005859375 251.275390625 298.005859375 251.275390625 298.268554688 82.869140625 c 0,16,17
 298.139648438 -112.223632812 298.139648438 -112.223632812 405.3359375 -207.6640625 c 128,-1,18
 512.532226562 -303.104492188 512.532226562 -303.104492188 734.391601562 -303.203125 c 0,19,20
 949.639648438 -303.104492188 949.639648438 -303.104492188 1054.72070312 -198.263671875 c 128,-1,21
 1159.80175781 -93.4228515625 1159.80175781 -93.4228515625 1160.5546875 121.982421875 c 0,22,23
 1160.98925781 301.408203125 1160.98925781 301.408203125 1072.46875 483.004882812 c 2,24,-1
 1062.61035156 503.228515625 l 1,25,-1
 1083.84960938 510.649414062 l 1,26,-1
 1256.49121094 570.966796875 l 1,27,-1
 1275.8125 577.716796875 l 1,28,-1
 1282.11621094 558.245117188 l 1,29,-1
 1342.03515625 373.135742188 l 2,30,31
 1358.23828125 322.659179688 1358.23828125 322.659179688 1385.58496094 289.900390625 c 128,-1,32
 1412.93261719 257.140625 1412.93261719 257.140625 1452.33984375 241.067382812 c 128,-1,33
 1491.74707031 224.994140625 1491.74707031 224.994140625 1544.5 224.9921875 c 0,34,35
 1626.47949219 224.99609375 1626.47949219 224.99609375 1664.55175781 264.331054688 c 128,-1,36
 1702.625 303.665039062 1702.625 303.665039062 1702.30175781 388.594726562 c 0,37,38
 1702.00292969 445.33984375 1702.00292969 445.33984375 1699.2578125 488.399414062 c 2,39,-1
 1693.85742188 573.115234375 l 1,40,-1
 1692.65136719 592.041015625 l 1,41,-1
 1711.48632812 594.250976562 l 1,42,-1
 1876.21191406 613.583984375 l 1,43,-1
 1897.04003906 616.029296875 l 1,44,-1
 1898.49511719 595.107421875 l 1,45,-1
 1914.56835938 363.91015625 l 2,46,47
 1919.34375 292.389648438 1919.34375 292.389648438 1951.55566406 259.83203125 c 128,-1,48
 1983.76855469 227.275390625 1983.76855469 227.275390625 2047.9296875 227.5 c 0,49,50
 2109.5390625 227.71484375 2109.5390625 227.71484375 2140.11914062 273.15234375 c 128,-1,51
 2170.69824219 318.58984375 2170.69824219 318.58984375 2170.42285156 419.235351562 c 0,52,53
 2170.01171875 519.153320312 2170.01171875 519.153320312 2127.19140625 668.721679688 c 2,54,-1
 2121.58984375 688.287109375 l 1,55,-1
 2141.25 693.546875 l 1,56,-1
 2312.20117188 739.287109375 l 1,57,-1
 2330.67480469 744.23046875 l 1,58,-1
 2336.43945312 725.99609375 l 2,59,60
 2361.68359375 646.154296875 2361.68359375 646.154296875 2374.20410156 569.719726562 c 128,-1,61
 2386.72460938 493.28515625 2386.72460938 493.28515625 2386.43652344 420.360351562 c 0,62,63
 2386.21191406 303.276367188 2386.21191406 303.276367188 2354.27832031 215.805664062 c 128,-1,64
 2322.34570312 128.333984375 2322.34570312 128.333984375 2257.91503906 72.080078125 c 0,65,66
 2175.73242188 1.3564453125 2175.73242188 1.3564453125 2055.15234375 0.912109375 c 0,67,68
 1878.15332031 0.99609375 1878.15332031 0.99609375 1807.38476562 123.45703125 c 1,69,70
 1755.828125 61.9716796875 1755.828125 61.9716796875 1689.36132812 30.96484375 c 128,-1,71
 1622.89453125 -0.0419921875 1622.89453125 -0.0419921875 1542.79394531 -0.0810546875 c 0,72,73
 1490.55371094 -0.046875 1490.55371094 -0.046875 1447.00292969 9.640625 c 128,-1,74
 1403.45117188 19.328125 1403.45117188 19.328125 1368.95507812 38.810546875 c 1,0,1
EndSplineSet
Substitution2: "'fina' Terminal Forms in Arabic lookup 9 subtable" uniFEB2
Substitution2: "'medi' Medial Forms in Arabic lookup 11 subtable" uniFEB4
Substitution2: "'init' Initial Forms in Arabic lookup 13 subtable" uniFEB3
EndChar

StartChar: uni0635
Encoding: 1589 1589 29
GlifName: uni0635
Width: 2587
VWidth: 2972
GlyphClass: 2
Flags: W
AnchorPoint: "Anchor-7" 723.902 -692.086 basechar 0
AnchorPoint: "Anchor-10" 2056.53 1256.1 basechar 0
LayerCount: 2
Fore
SplineSet
1342.02832031 373.159179688 m 2,0,1
 1350.4765625 347.059570312 1350.4765625 347.059570312 1359.92480469 326.087890625 c 128,-1,2
 1369.37304688 305.116210938 1369.37304688 305.116210938 1378.66210938 291.12890625 c 128,-1,3
 1387.95117188 277.141601562 1387.95117188 277.141601562 1396.796875 268.44921875 c 128,-1,4
 1405.64355469 259.756835938 1405.64355469 259.756835938 1414.11914062 256.056640625 c 1,5,6
 1756.45410156 832.012695312 1756.45410156 832.012695312 2109.39160156 831.42578125 c 0,7,8
 2262.26367188 830.978515625 2262.26367188 830.978515625 2366.78027344 743.922851562 c 0,9,10
 2505.02148438 629.383789062 2505.02148438 629.383789062 2504.59667969 443.716796875 c 0,11,12
 2503.75683594 220.87890625 2503.75683594 220.87890625 2315.69433594 110.439453125 c 128,-1,13
 2127.63085938 0 2127.63085938 0 1763.15136719 0 c 2,14,-1
 1712.34082031 0 l 2,15,16
 1487.33789062 0 1487.33789062 0 1369.25195312 45.7353515625 c 1,17,18
 1363.57910156 -98.7900390625 1363.57910156 -98.7900390625 1311.84472656 -205.751953125 c 0,19,20
 1157.453125 -520.0078125 1157.453125 -520.0078125 727.338867188 -519.724609375 c 0,21,22
 407.588867188 -519.865234375 407.588867188 -519.865234375 244.477539062 -368.444335938 c 128,-1,23
 81.3662109375 -217.022460938 81.3662109375 -217.022460938 81.7529296875 81.0673828125 c 0,24,25
 82.0048828125 293.983398438 82.0048828125 293.983398438 174.545898438 517.767578125 c 2,26,-1
 182.180664062 536.228515625 l 1,27,-1
 200.649414062 528.616210938 l 1,28,-1
 359.169921875 463.278320312 l 1,29,-1
 377.272460938 455.81640625 l 1,30,-1
 370.197265625 437.560546875 l 2,31,32
 298.005859375 251.275390625 298.005859375 251.275390625 298.268554688 82.869140625 c 0,33,34
 298.139648438 -112.223632812 298.139648438 -112.223632812 405.3359375 -207.6640625 c 128,-1,35
 512.532226562 -303.104492188 512.532226562 -303.104492188 734.391601562 -303.203125 c 0,36,37
 949.639648438 -303.104492188 949.639648438 -303.104492188 1054.72070312 -198.263671875 c 128,-1,38
 1159.80175781 -93.4228515625 1159.80175781 -93.4228515625 1160.5546875 121.982421875 c 0,39,40
 1160.98925781 301.408203125 1160.98925781 301.408203125 1072.46875 483.004882812 c 2,41,-1
 1062.61035156 503.228515625 l 1,42,-1
 1083.84960938 510.649414062 l 1,43,-1
 1256.49121094 570.966796875 l 1,44,-1
 1275.8125 577.716796875 l 1,45,-1
 1282.11621094 558.245117188 l 1,46,-1
 1342.02832031 373.159179688 l 2,0,1
1758.73925781 224.534179688 m 2,47,48
 2282.05761719 224.982421875 2282.05761719 224.982421875 2282.66113281 435.440429688 c 0,49,50
 2282.96484375 526.533203125 2282.96484375 526.533203125 2213.64355469 574.424804688 c 0,51,52
 2192.1640625 589.2421875 2192.1640625 589.2421875 2166.91601562 596.776367188 c 128,-1,53
 2141.66699219 604.311523438 2141.66699219 604.311523438 2111.96679688 604.57421875 c 0,54,55
 1903.36621094 605.87890625 1903.36621094 605.87890625 1651.50683594 224.447265625 c 1,56,-1
 1758.73925781 224.534179688 l 2,47,48
EndSplineSet
Substitution2: "'fina' Terminal Forms in Arabic lookup 9 subtable" uniFEBA
Substitution2: "'medi' Medial Forms in Arabic lookup 11 subtable" uniFEBC
Substitution2: "'init' Initial Forms in Arabic lookup 13 subtable" uniFEBB
EndChar

StartChar: uni0637
Encoding: 1591 1591 31
GlifName: uni0637
Width: 1480
VWidth: 2972
GlyphClass: 2
Flags: W
AnchorPoint: "Anchor-10" 471.36 1498.58 basechar 0
AnchorPoint: "Anchor-7" 641.602 -216.453 basechar 0
LayerCount: 2
Fore
SplineSet
1399.67382812 443.709960938 m 0,0,1
 1398 221 1398 221 1210.22851562 110.426757812 c 0,2,3
 1022 0 1022 0 658.228515625 0 c 2,4,-1
 101.302734375 0 l 1,5,-1
 81.302734375 0 l 1,6,-1
 81.302734375 20 l 1,7,-1
 81.302734375 204.221679688 l 1,8,-1
 81.302734375 224.208007812 l 1,9,-1
 101.2890625 224.221679688 l 1,10,-1
 312.515625 224.370117188 l 1,11,-1
 375.6328125 324.471679688 l 1,12,-1
 375.6328125 1380.87402344 l 5,13,-1
 395.6328125 1380.87402344 l 5,14,-1
 568.946289062 1380.87402344 l 5,15,-1
 588.946289062 1380.87402344 l 5,16,-1
 588.946289062 618.8671875 l 1,17,18
 782 836 782 836 1004.76953125 831.422851562 c 0,19,20
 1082 830 1082 830 1146.55078125 808.286132812 c 0,21,22
 1211 786 1211 786 1261.87988281 743.904296875 c 0,23,24
 1401 628 1401 628 1399.67382812 443.709960938 c 0,0,1
1007.08886719 604.573242188 m 0,25,26
 795.551757812 604.963867188 795.551757812 604.963867188 546.415039062 224.534179688 c 1,27,-1
 653.815429688 224.534179688 l 2,28,29
 1176.15039062 224.983398438 1176.15039062 224.983398438 1177.73828125 435.475585938 c 0,30,31
 1177.97265625 526.533203125 1177.97265625 526.533203125 1108.71679688 574.426757812 c 0,32,33
 1065.69921875 604.0546875 1065.69921875 604.0546875 1007.08886719 604.573242188 c 0,25,26
EndSplineSet
Substitution2: "'fina' Terminal Forms in Arabic lookup 9 subtable" uniFEC2
Substitution2: "'medi' Medial Forms in Arabic lookup 11 subtable" uniFEC4
Substitution2: "'init' Initial Forms in Arabic lookup 13 subtable" uniFEC3
EndChar

StartChar: uni0639
Encoding: 1593 1593 33
GlifName: uni0639
Width: 1346
VWidth: 2972
GlyphClass: 2
Flags: W
AnchorPoint: "Anchor-7" 580.833 -790.619 basechar 0
AnchorPoint: "Anchor-10" 723.478 1386.07 basechar 0
LayerCount: 2
Fore
SplineSet
643.482421875 504.947265625 m 1,0,1
 816.834960938 534.012695312 816.834960938 534.012695312 941.107421875 534.546875 c 0,2,3
 1036.09179688 535.005859375 1036.09179688 535.005859375 1126.01367188 524.719726562 c 2,4,-1
 1146.14550781 522.416992188 l 1,5,-1
 1143.58007812 502.318359375 l 1,6,-1
 1121.22753906 327.158203125 l 1,7,-1
 1118.91113281 309.002929688 l 1,8,-1
 1100.62304688 309.704101562 l 2,9,10
 1072.15917969 310.794921875 1072.15917969 310.794921875 1049.4921875 311.439453125 c 128,-1,11
 1026.82421875 312.083007812 1026.82421875 312.083007812 1011.04882812 312.258789062 c 128,-1,12
 995.272460938 312.43359375 995.272460938 312.43359375 985.594726562 312.180664062 c 0,13,14
 635.22265625 302.2265625 635.22265625 302.2265625 465.173828125 192.701171875 c 128,-1,15
 295.125976562 83.17578125 295.125976562 83.17578125 295.240234375 -124.868164062 c 0,16,17
 295.165039062 -235.776367188 295.165039062 -235.776367188 348.426757812 -309.271484375 c 128,-1,18
 401.688476562 -382.766601562 401.688476562 -382.766601562 513.0859375 -420.47265625 c 128,-1,19
 624.482421875 -458.178710938 624.482421875 -458.178710938 795.296875 -458.266601562 c 0,20,21
 896.879882812 -458.135742188 896.879882812 -458.135742188 996.670898438 -434.778320312 c 128,-1,22
 1096.46191406 -411.420898438 1096.46191406 -411.420898438 1194.72460938 -364.705078125 c 2,23,-1
 1217.72167969 -353.771484375 l 1,24,-1
 1222.89453125 -378.705078125 l 1,25,-1
 1258.95410156 -552.53125 l 1,26,-1
 1262.10351562 -567.712890625 l 1,27,-1
 1248.18652344 -574.545898438 l 2,28,29
 1045.63574219 -674.004882812 1045.63574219 -674.004882812 783.049804688 -673.733398438 c 0,30,31
 398.358398438 -674.005859375 398.358398438 -674.005859375 219.544921875 -483.823242188 c 0,32,33
 85 -345.482421875 85 -345.482421875 84.9755859375 -132.310546875 c 0,34,35
 85 259.260742188 85 259.260742188 430.791015625 425.5 c 1,36,37
 394.6640625 470.877929688 394.6640625 470.877929688 370.497070312 518.090820312 c 128,-1,38
 346.330078125 565.303710938 346.330078125 565.303710938 334.112304688 614.63671875 c 128,-1,39
 321.89453125 663.969726562 321.89453125 663.969726562 321.84375 715.083007812 c 0,40,41
 321.884765625 733.334960938 321.884765625 733.334960938 323.719726562 751.586914062 c 128,-1,42
 325.553710938 769.837890625 325.553710938 769.837890625 329.177734375 788.076171875 c 128,-1,43
 332.801757812 806.313476562 332.801757812 806.313476562 338.1953125 824.537109375 c 128,-1,44
 343.588867188 842.76171875 343.588867188 842.76171875 350.765625 861.0390625 c 0,45,46
 364.850585938 896.107421875 364.850585938 896.107421875 385.963867188 928.4609375 c 128,-1,47
 407.077148438 960.814453125 407.077148438 960.814453125 435.16015625 990.501953125 c 0,48,49
 542.380859375 1104 542.380859375 1104 734 1104 c 0,50,51
 893.190429688 1104 893.190429688 1104 1076.95996094 978.18359375 c 2,52,-1
 1090.77539062 968.724609375 l 1,53,-1
 1083.89355469 953.459960938 l 1,54,-1
 1016.54492188 804.086914062 l 1,55,-1
 1007.34375 783.680664062 l 1,56,-1
 988.098632812 795.112304688 l 2,57,58
 915.436523438 838.2734375 915.436523438 838.2734375 854.161132812 859.583984375 c 128,-1,59
 792.884765625 880.89453125 792.884765625 880.89453125 743.947265625 880.802734375 c 0,60,61
 626.3046875 880.982421875 626.3046875 880.982421875 572.971679688 792.219726562 c 0,62,63
 546.022460938 748.380859375 546.022460938 748.380859375 546.20703125 702.16015625 c 0,64,65
 546.021484375 661.618164062 546.021484375 661.618164062 567.469726562 618.110351562 c 0,66,67
 577.278320312 598.348632812 577.278320312 598.348632812 596.474609375 569.721679688 c 128,-1,68
 615.670898438 541.094726562 615.670898438 541.094726562 643.482421875 504.947265625 c 1,0,1
EndSplineSet
Substitution2: "'fina' Terminal Forms in Arabic lookup 9 subtable" uniFECA
Substitution2: "'medi' Medial Forms in Arabic lookup 11 subtable" uniFECC
Substitution2: "'init' Initial Forms in Arabic lookup 13 subtable" uniFECB
EndChar

StartChar: afii57440
Encoding: 1600 1600 35
GlifName: afii57440
Width: 286
VWidth: 2972
GlyphClass: 2
Flags: W
AnchorPoint: "Anchor-10" 143.774 1396.11 basechar 0
AnchorPoint: "Anchor-7" 147.7 -214.739 basechar 0
LayerCount: 2
Fore
SplineSet
-20.9384765625 0 m 5,0,1
 -20.9384765625 223.999023438 l 5,2,-1
 306.643554688 223.999023438 l 1,3,-1
 306.69140625 0 l 1,4,-1
 -20.9384765625 0 l 5,0,1
EndSplineSet
EndChar

StartChar: uni0643
Encoding: 1603 1603 38
GlifName: uni0643
Width: 1891
VWidth: 2972
GlyphClass: 2
Flags: W
AnchorPoint: "Anchor-7" 740.268 -216.468 basechar 0
AnchorPoint: "Anchor-10" 948.11 1432.05 basechar 0
LayerCount: 2
Fore
SplineSet
841.866210938 224.13671875 m 0,0,1
 1077 224 1077 224 1232.24804688 256.043945312 c 0,2,3
 1387 288 1387 288 1459.66210938 346.954101562 c 0,4,5
 1531.82910156 405.822250438 1531.82910156 405.822250438 1531.82910156 491.963867188 c 2,6,-1
 1531.82910156 1390.56640625 l 5,7,-1
 1551.82910156 1390.56640625 l 5,8,-1
 1729.70996094 1390.56640625 l 5,9,-1
 1749.70996094 1390.56640625 l 5,10,-1
 1749.70996094 494.338867188 l 2,11,12
 1750 0 1750 0 862.133789062 0 c 2,13,-1
 860.911132812 0 l 2,14,15
 476 0 476 0 277.879882812 126.299804688 c 0,16,17
 80 253 80 253 80.16015625 505.848632812 c 0,18,19
 79.9996761253 645.281397732 79.9996761253 645.281397732 136.416015625 770.975585938 c 2,20,-1
 144.5078125 789.00390625 l 1,21,-1
 338.241210938 714.834960938 l 1,22,-1
 330.9921875 696.787109375 l 2,23,24
 299 617 299 617 299.424804688 534.6171875 c 0,25,26
 300 380 300 380 433.07421875 302.176757812 c 0,27,28
 566 224 566 224 841.866210938 224.13671875 c 0,0,1
688.282226562 701.901367188 m 2,29,30
 781.170898438 691.98828125 781.170898438 691.98828125 848.673828125 691.266601562 c 0,31,32
 951.088867188 691.009765625 951.088867188 691.009765625 1000.90136719 711.40234375 c 0,33,34
 1042.21289062 728.465820312 1042.21289062 728.465820312 1042.74804688 761.861328125 c 0,35,36
 1042.8515625 779.568359375 1042.8515625 779.568359375 1037.18066406 792.35546875 c 128,-1,37
 1031.50976562 805.142578125 1031.50976562 805.142578125 1019.26953125 815.299804688 c 0,38,39
 993.326171875 838.01171875 993.326171875 838.01171875 938.215820312 845.658203125 c 0,40,41
 825.467773438 862.799804688 825.467773438 862.799804688 767.135742188 921.916015625 c 128,-1,42
 708.803710938 981.032226562 708.803710938 981.032226562 710.935546875 1078.95507812 c 0,43,44
 716.451171875 1303.61425781 716.451171875 1303.61425781 1122.140625 1333.49902344 c 2,45,-1
 1143.61035156 1335.08007812 l 1,46,-1
 1143.61035156 1313.55273438 l 1,47,-1
 1143.61035156 1184.98925781 l 1,48,-1
 1143.61035156 1166.75195312 l 1,49,-1
 1125.45019531 1165.07421875 l 2,50,51
 1000.86230469 1153.56152344 1000.86230469 1153.56152344 942.4765625 1127.72949219 c 128,-1,52
 884.090820312 1101.89746094 884.090820312 1101.89746094 884.139648438 1070.44238281 c 0,53,54
 884.032226562 1013.16894531 884.032226562 1013.16894531 1005.96191406 994.5234375 c 0,55,56
 1108.42285156 978.732421875 1108.42285156 978.732421875 1162.06542969 920.586914062 c 128,-1,57
 1215.70703125 862.440429688 1215.70703125 862.440429688 1215.36425781 766.06640625 c 0,58,59
 1215.16601562 700.15234375 1215.16601562 700.15234375 1182.24511719 648.711914062 c 128,-1,60
 1149.32421875 597.272460938 1149.32421875 597.272460938 1085.99707031 562.692382812 c 0,61,62
 1006.10546875 518.997070312 1006.10546875 518.997070312 866.004882812 519.088867188 c 0,63,64
 838.748046875 519.05859375 838.748046875 519.05859375 809.294921875 520.78125 c 128,-1,65
 779.841796875 522.502929688 779.841796875 522.502929688 748.338867188 525.956054688 c 128,-1,66
 716.836914062 529.409179688 716.836914062 529.409179688 683.118164062 534.598632812 c 2,67,-1
 666.16015625 537.208984375 l 1,68,-1
 666.16015625 554.366210938 l 1,69,-1
 666.16015625 682.014648438 l 1,70,-1
 666.16015625 704.262695312 l 1,71,-1
 688.282226562 701.901367188 l 2,29,30
EndSplineSet
Substitution2: "'fina' Terminal Forms in Arabic lookup 9 subtable" uniFEDA
Substitution2: "'medi' Medial Forms in Arabic lookup 11 subtable" uniFEDC
Substitution2: "'init' Initial Forms in Arabic lookup 13 subtable" uniFEDB
EndChar

StartChar: uni0644
Encoding: 1604 1604 39
GlifName: uni0644
Width: 1391
VWidth: 2972
GlyphClass: 2
Flags: W
AnchorPoint: "Anchor-7" 675.902 -712.086 basechar 0
AnchorPoint: "Anchor-10" 603.908 1174.66 basechar 0
LayerCount: 2
Fore
SplineSet
1042.60449219 89.8427734375 m 2,0,-1
 1045.96679688 1390.99316406 l 5,1,-1
 1065.91699219 1390.99316406 l 5,2,-1
 1237.88574219 1390.99316406 l 5,3,-1
 1257.89648438 1390.99316406 l 5,4,-1
 1257.18554688 129.315429688 l 2,5,6
 1257 -192 1257 -192 1112.10253906 -355.747070312 c 0,7,8
 967 -520 967 -520 681.438476562 -519.734375 c 0,9,10
 385 -520 385 -520 233.616210938 -373.380859375 c 0,11,12
 82 -227 82 -227 82.740234375 60.7568359375 c 0,13,14
 82.9999160066 266.933312722 82.9999160066 266.933312722 167.821289062 474.052734375 c 2,15,-1
 175.41796875 492.602539062 l 1,16,-1
 193.950195312 484.963867188 l 1,17,-1
 352.474609375 419.624023438 l 1,18,-1
 370.662109375 412.126953125 l 1,19,-1
 363.467773438 393.818359375 l 2,20,21
 298 227 298 227 298.24609375 58.1943359375 c 0,22,23
 298 -125 298 -125 392.360351562 -214.045898438 c 0,24,25
 487 -303 487 -303 681.7734375 -303.2265625 c 0,26,27
 864 -303 864 -303 953.293945312 -206.575195312 c 0,28,29
 1042 -110 1042 -110 1042.60449219 89.8427734375 c 2,0,-1
EndSplineSet
Substitution2: "'fina' Terminal Forms in Arabic lookup 9 subtable" uniFEDE
Substitution2: "'medi' Medial Forms in Arabic lookup 11 subtable" uniFEE0
Substitution2: "'init' Initial Forms in Arabic lookup 13 subtable" uniFEDF
EndChar

StartChar: uni0645
Encoding: 1605 1605 40
GlifName: uni0645
Width: 1242
VWidth: 2622
GlyphClass: 2
Flags: W
AnchorPoint: "Anchor-7" 724.983 -316.909 basechar 0
AnchorPoint: "Anchor-10" 769.239 1104.48 basechar 0
LayerCount: 2
Fore
SplineSet
852.916992188 199 m 0,0,1
 905.4453125 199.434570312 905.4453125 199.434570312 929.546875 227 c 128,-1,2
 953.649414062 254.565429688 953.649414062 254.565429688 953.357421875 316.588867188 c 0,3,4
 953.024414062 368.15625 953.024414062 368.15625 932.9140625 419.442382812 c 0,5,6
 928.53515625 430.231445312 928.53515625 430.231445312 923.478515625 439.729492188 c 128,-1,7
 918.421875 449.228515625 918.421875 449.228515625 912.62890625 457.540039062 c 128,-1,8
 906.834960938 465.852539062 906.834960938 465.852539062 900.296875 472.921875 c 128,-1,9
 893.7578125 479.990234375 893.7578125 479.990234375 886.44921875 485.895507812 c 128,-1,10
 879.139648438 491.799804688 879.139648438 491.799804688 871.014648438 496.509765625 c 128,-1,11
 862.889648438 501.219726562 862.889648438 501.219726562 853.959960938 504.788085938 c 128,-1,12
 845.03125 508.356445312 845.03125 508.356445312 835.215820312 510.778320312 c 128,-1,13
 825.400390625 513.19921875 825.400390625 513.19921875 814.74609375 514.501953125 c 128,-1,14
 804.092773438 515.805664062 804.092773438 515.805664062 792.485351562 516.0078125 c 0,15,16
 762.451171875 516.4296875 762.451171875 516.4296875 735.419921875 505.370117188 c 128,-1,17
 708.388671875 494.310546875 708.388671875 494.310546875 683.704101562 471.1796875 c 128,-1,18
 659.020507812 448.048828125 659.020507812 448.048828125 637.049804688 411.541015625 c 128,-1,19
 615.080078125 375.033203125 615.080078125 375.033203125 596.234375 325.513671875 c 1,20,21
 763.109375 199 763.109375 199 852.916992188 199 c 0,0,1
429.564453125 137.748046875 m 0,22,23
 399.629882812 137.407226562 399.629882812 137.407226562 375.670898438 112.526367188 c 128,-1,24
 351.711914062 87.6455078125 351.711914062 87.6455078125 333.599609375 36.8828125 c 128,-1,25
 315.486328125 -13.8798828125 315.486328125 -13.8798828125 305.6484375 -97.5615234375 c 128,-1,26
 295.810546875 -181.243164062 295.810546875 -181.243164062 295.748046875 -292.993164062 c 0,27,28
 295.999023438 -490.145507812 295.999023438 -490.145507812 309.743164062 -653.1328125 c 2,29,-1
 311.571289062 -674.813476562 l 1,30,-1
 289.813476562 -674.813476562 l 1,31,-1
 110.231445312 -674.813476562 l 1,32,-1
 91.4755859375 -674.813476562 l 1,33,-1
 90.2724609375 -656.095703125 l 2,34,35
 79 -480.643554688 79 -480.643554688 78.9765625 -320.999023438 c 0,36,37
 79 27.7763671875 79 27.7763671875 160.169921875 188.059570312 c 0,38,39
 239.557617188 343.783203125 239.557617188 343.783203125 379.272460938 370.538085938 c 1,40,41
 531.060546875 743.9453125 531.060546875 743.9453125 789.821289062 745.381835938 c 0,42,43
 961.430664062 746.036132812 961.430664062 746.036132812 1063.46191406 621.686523438 c 0,44,45
 1163.98242188 499.17578125 1163.98242188 499.17578125 1164.39257812 329.012695312 c 0,46,47
 1164.18847656 255.22265625 1164.18847656 255.22265625 1146.03417969 193.318359375 c 128,-1,48
 1127.87988281 131.415039062 1127.87988281 131.415039062 1091.60351562 82.1904296875 c 0,49,50
 1053.37109375 29.55859375 1053.37109375 29.55859375 993.10546875 3.2470703125 c 128,-1,51
 932.840820312 -23.064453125 932.840820312 -23.064453125 852.99609375 -23.13671875 c 0,52,53
 743.62109375 -22.9931640625 743.62109375 -22.9931640625 597.600585938 61.4501953125 c 0,54,55
 588.028320312 67.326171875 588.028320312 67.326171875 578.265625 73.0966796875 c 128,-1,56
 568.502929688 78.8681640625 568.502929688 78.8681640625 558.521484375 84.55078125 c 128,-1,57
 548.541015625 90.2333984375 548.541015625 90.2333984375 538.291992188 95.85546875 c 128,-1,58
 528.04296875 101.477539062 528.04296875 101.477539062 517.537109375 107.03515625 c 128,-1,59
 507.032226562 112.592773438 507.032226562 112.592773438 496.181640625 118.133789062 c 0,60,61
 476.059570312 128.155273438 476.059570312 128.155273438 459.161132812 133.002929688 c 128,-1,62
 442.26171875 137.849609375 442.26171875 137.849609375 429.564453125 137.748046875 c 0,22,23
EndSplineSet
Substitution2: "'init' Initial Forms in Arabic lookup 13 subtable" uniFEE3
Substitution2: "'medi' Medial Forms in Arabic lookup 11 subtable" uniFEE4
Substitution2: "'fina' Terminal Forms in Arabic lookup 9 subtable" uniFEE2
EndChar

StartChar: uni0647
Encoding: 1607 1607 42
GlifName: uni0647
Width: 942
VWidth: 2972
GlyphClass: 2
Flags: W
AnchorPoint: "Anchor-10" 424.775 1231.01 basechar 0
AnchorPoint: "Anchor-7" 450.63 -220.576 basechar 0
LayerCount: 2
Fore
SplineSet
462.4765625 637.9765625 m 1,0,1
 427.625 606.634765625 427.625 606.634765625 399.786132812 576.685546875 c 128,-1,2
 371.946289062 546.735351562 371.946289062 546.735351562 351.8046875 519.223632812 c 128,-1,3
 331.6640625 491.7109375 331.6640625 491.7109375 318.252929688 465.772460938 c 128,-1,4
 304.841796875 439.833007812 304.841796875 439.833007812 298.373046875 416.299804688 c 128,-1,5
 291.904296875 392.766601562 291.904296875 392.766601562 291.884765625 370.987304688 c 0,6,7
 291.936523438 295.940429688 291.936523438 295.940429688 335.745117188 259.967773438 c 128,-1,8
 379.5546875 223.99609375 379.5546875 223.99609375 475.344726562 223.9921875 c 0,9,10
 572.327148438 223.99609375 572.327148438 223.99609375 616.51171875 260.241210938 c 128,-1,11
 660.696289062 296.486328125 660.696289062 296.486328125 660.423828125 372.075195312 c 0,12,13
 660.379882812 384.234375 660.379882812 384.234375 657.358398438 397.560546875 c 128,-1,14
 654.3359375 410.88671875 654.3359375 410.88671875 648.336914062 425.424804688 c 128,-1,15
 642.336914062 439.962890625 642.336914062 439.962890625 633.163085938 455.66796875 c 128,-1,16
 623.98828125 471.374023438 623.98828125 471.374023438 611.846679688 488.073242188 c 128,-1,17
 599.704101562 504.7734375 599.704101562 504.7734375 584.177734375 522.654296875 c 128,-1,18
 568.650390625 540.534179688 568.650390625 540.534179688 550.165039062 559.19140625 c 128,-1,19
 531.6796875 577.848632812 531.6796875 577.848632812 509.599609375 597.700195312 c 128,-1,20
 487.51953125 617.551757812 487.51953125 617.551757812 462.4765625 637.9765625 c 1,0,1
395.482421875 983.55859375 m 2,21,22
 871.0078125 635.133789062 871.0078125 635.133789062 870.791992188 366.379882812 c 0,23,24
 871.012695312 165.896484375 871.012695312 165.896484375 696.852539062 57.53515625 c 0,25,26
 668.47265625 39.8115234375 668.47265625 39.8115234375 634.196289062 28.0068359375 c 128,-1,27
 599.920898438 16.203125 599.920898438 16.203125 560.59765625 10.337890625 c 128,-1,28
 521.2734375 4.47265625 521.2734375 4.47265625 476.127929688 4.1943359375 c 0,29,30
 350.291015625 3.9921875 350.291015625 3.9921875 260.5078125 48.91015625 c 0,31,32
 80.978515625 138.6484375 80.978515625 138.6484375 81.3681640625 365.788085938 c 0,33,34
 80.998046875 574.041015625 80.998046875 574.041015625 299.583984375 793.672851562 c 1,35,-1
 270.795898438 818.978515625 l 1,36,-1
 256.923828125 831.171875 l 1,37,-1
 267.9765625 845.96875 l 1,38,-1
 367.638671875 979.39453125 l 1,39,-1
 379.498046875 995.271484375 l 1,40,-1
 395.482421875 983.55859375 l 2,21,22
EndSplineSet
Substitution2: "'fina' Terminal Forms in Arabic lookup 9 subtable" uniFEEA
Substitution2: "'medi' Medial Forms in Arabic lookup 11 subtable" uniFEEC
Substitution2: "'init' Initial Forms in Arabic lookup 13 subtable" uniFEEB
EndChar

StartChar: uni0648
Encoding: 1608 1608 43
GlifName: uni0648
Width: 860
VWidth: 2164
GlyphClass: 2
Flags: W
AnchorPoint: "Anchor-7" 412.969 -647.998 basechar 0
AnchorPoint: "Anchor-10" 473.256 1132.2 basechar 0
LayerCount: 2
Fore
SplineSet
98.2421875 -310.2109375 m 2,0,1
 299.178710938 -273.153320312 299.178710938 -273.153320312 419.426757812 -192.799804688 c 128,-1,2
 539.674804688 -112.446289062 539.674804688 -112.446289062 582.150390625 9.453125 c 1,3,4
 549.770507812 5.517578125 549.770507812 5.517578125 526.403320312 3.0126953125 c 128,-1,5
 503.036132812 0.5087890625 503.036132812 0.5087890625 485.96484375 -0.8095703125 c 128,-1,6
 468.893554688 -2.126953125 468.893554688 -2.126953125 458.280273438 -2.1884765625 c 0,7,8
 269.758789062 -3.123046875 269.758789062 -3.123046875 171.380859375 77.8271484375 c 128,-1,9
 73.001953125 158.776367188 73.001953125 158.776367188 73.0048828125 318.352539062 c 0,10,11
 73 443.51953125 73 443.51953125 126.618164062 556.088867188 c 0,12,13
 175.852539062 658.66015625 175.852539062 658.66015625 252.073242188 711.348632812 c 128,-1,14
 328.293945312 764.036132812 328.293945312 764.036132812 429.11328125 764.077148438 c 0,15,16
 465.6171875 764.063476562 465.6171875 764.063476562 498.8828125 757.10546875 c 128,-1,17
 532.147460938 750.147460938 532.147460938 750.147460938 561.75 736.418945312 c 128,-1,18
 591.3515625 722.690429688 591.3515625 722.690429688 617.530273438 702.311523438 c 128,-1,19
 643.708984375 681.93359375 643.708984375 681.93359375 666.20703125 655.043945312 c 128,-1,20
 688.705078125 628.154296875 688.705078125 628.154296875 707.584960938 594.911132812 c 128,-1,21
 726.463867188 561.668945312 726.463867188 561.668945312 741.634765625 522.17578125 c 0,22,23
 801.002929688 369.75 801.002929688 369.75 800.854492188 188.004882812 c 0,24,25
 800.928710938 -98.919921875 800.928710938 -98.919921875 641.3828125 -273.756835938 c 128,-1,26
 481.837890625 -448.594726562 481.837890625 -448.594726562 167.6953125 -507.655273438 c 2,27,-1
 151.435546875 -510.712890625 l 1,28,-1
 145.385742188 -495.314453125 l 1,29,-1
 83.2548828125 -337.193359375 l 1,30,-1
 74.380859375 -314.611328125 l 1,31,-1
 98.2421875 -310.2109375 l 2,0,1
589.541015625 236.173828125 m 1,32,33
 566.250976562 535.016601562 566.250976562 535.016601562 417.411132812 535.124023438 c 0,34,35
 335.359375 535.018554688 335.359375 535.018554688 299.36328125 428.494140625 c 0,36,37
 290.619140625 402.90234375 290.619140625 402.90234375 286.352539062 378.9921875 c 128,-1,38
 282.084960938 355.08203125 282.084960938 355.08203125 282.159179688 332.583984375 c 0,39,40
 282.090820312 273.453125 282.090820312 273.453125 323.766601562 244.584960938 c 128,-1,41
 365.44140625 215.716796875 365.44140625 215.716796875 458.797851562 216.362304688 c 0,42,43
 521.59375 216.91015625 521.59375 216.91015625 589.541015625 236.173828125 c 1,32,33
EndSplineSet
Substitution2: "'fina' Terminal Forms in Arabic lookup 9 subtable" uniFEEE
EndChar

StartChar: uni0649
Encoding: 1609 1609 44
GlifName: uni0649
Width: 1484
VWidth: 2972
GlyphClass: 2
Flags: MW
AnchorPoint: "Anchor-7" 733.902 -654.086 basechar 0
AnchorPoint: "Anchor-10" 727.6 976.22 basechar 0
LayerCount: 2
Fore
SplineSet
298.268554688 104.241210938 m 0,0,1
 298 -91 298 -91 404.516601562 -186.96875 c 128,-1,2
 511 -283 511 -283 730.95703125 -283.607421875 c 0,3,4
 776 -284 776 -284 817.204101562 -280.270507812 c 0,5,6
 858 -277 858 -277 895.07421875 -269.93359375 c 128,-1,7
 932 -263 932 -263 964.362304688 -252.76171875 c 0,8,9
 997 -242 997 -242 1025.3203125 -228.844726562 c 0,10,11
 1202 -143 1202 -143 1201.80761719 -20.3466796875 c 0,12,13
 1202 9 1202 9 1170.16113281 14.9072265625 c 0,14,15
 1158.43731857 16.9247431382 1158.43731857 16.9247431382 1143.44628906 17.0146484375 c 2,16,-1
 1030.27636719 17.693359375 l 2,17,18
 767 19 767 19 766.791992188 268.798828125 c 0,19,20
 767 454 767 454 908.567382812 601.844726562 c 0,21,22
 985 681 985 681 1099.66210938 724.431640625 c 0,23,24
 1206.33203815 764.747543798 1206.33203815 764.747543798 1366.06542969 774.528320312 c 2,25,-1
 1398.40917969 776.508789062 l 5,26,-1
 1398.37597656 755.518554688 l 5,27,-1
 1398.0703125 562.708984375 l 5,28,-1
 1398.04003906 543.625 l 5,29,-1
 1366.89550781 541.760742188 l 2,30,31
 1266 536 1266 536 1200.34082031 516.177734375 c 0,32,33
 1129 495 1129 495 1080.22363281 457.169921875 c 0,34,35
 1034 421 1034 421 1010.8984375 380.916992188 c 0,36,37
 988 340 988 340 987.430664062 293.657226562 c 0,38,39
 987 262 987 262 996.912109375 250.834960938 c 0,40,41
 1006.85151342 239.174202218 1006.85151342 239.174202218 1031.96679688 239.215820312 c 2,42,-1
 1151.01074219 239.413085938 l 2,43,44
 1276 240 1276 240 1341.8359375 184.03515625 c 0,45,46
 1408 128 1408 128 1408.3515625 20.142578125 c 0,47,48
 1408 -288 1408 -288 1103.34082031 -427.887695312 c 0,49,50
 948 -499 948 -499 725.979492188 -499.208984375 c 0,51,52
 214.51539393 -498.999391624 214.51539393 -498.999391624 109.606445312 -115.9375 c 0,53,54
 83 -19 83 -19 82.76171875 101.032226562 c 0,55,56
 83.0000986522 319.090242132 83.0000986522 319.090242132 194.061523438 581.143554688 c 2,57,-1
 201.7890625 599.376953125 l 1,58,-1
 220.09765625 591.831054688 l 1,59,-1
 378.62109375 526.491210938 l 1,60,-1
 397.189453125 518.837890625 l 1,61,-1
 389.458984375 500.301757812 l 2,62,63
 298 281 298 281 298.268554688 104.241210938 c 0,0,1
EndSplineSet
Substitution2: "'fina' Terminal Forms in Arabic lookup 9 subtable" uniFEF0
Substitution2: "'medi' Medial Forms in Arabic lookup 11 subtable" uniFBE9
Substitution2: "'init' Initial Forms in Arabic lookup 13 subtable" uniFBE8
EndChar

StartChar: uni064B
Encoding: 1611 1611 46
GlifName: uni064B_
Width: -26
VWidth: 2316
GlyphClass: 4
Flags: W
AnchorPoint: "Anchor-10" 583.551 1123.65 mark 0
AnchorPoint: "Anchor-9" 583.551 1123.65 mark 0
AnchorPoint: "Anchor-1" 553.285 1596.25 basemark 0
AnchorPoint: "Anchor-1" 583.551 1123.65 mark 0
LayerCount: 2
Fore
SplineSet
316.700195312 1076.40039062 m 1,0,-1
 316.700195312 1179.97753906 l 1,1,-1
 316.700195312 1186.69103815 l 1,2,-1
 322.91384908 1189.23300135 l 1,3,-1
 778.313263143 1375.5337826 l 1,4,-1
 792.099609375 1381.17368242 l 1,5,-1
 792.099609375 1366.27832031 l 1,6,-1
 792.099609375 1262.70019531 l 1,7,-1
 792.099609375 1255.98668289 l 1,8,-1
 785.885938605 1253.44472606 l 1,9,-1
 330.486524542 1067.14492137 l 1,10,-1
 316.700195312 1061.50505807 l 1,11,-1
 316.700195312 1076.40039062 l 1,0,-1
316.700195312 1288.40039062 m 1,12,-1
 316.700195312 1391.97753906 l 1,13,-1
 316.700195312 1398.69103815 l 1,14,-1
 322.91384908 1401.23300135 l 1,15,-1
 778.313263143 1587.5337826 l 1,16,-1
 792.099609375 1593.17368242 l 1,17,-1
 792.099609375 1578.27832031 l 1,18,-1
 792.099609375 1474.70019531 l 1,19,-1
 792.099609375 1467.98668289 l 1,20,-1
 785.885938605 1465.44472606 l 1,21,-1
 330.486524542 1279.14492137 l 1,22,-1
 316.700195312 1273.50505807 l 1,23,-1
 316.700195312 1288.40039062 l 1,12,-1
EndSplineSet
EndChar

StartChar: uni064C
Encoding: 1612 1612 47
GlifName: uni064C_
Width: -26
VWidth: 2316
GlyphClass: 4
Flags: W
AnchorPoint: "Anchor-10" 680.906 1278.67 mark 0
AnchorPoint: "Anchor-9" 680.906 1278.67 mark 0
AnchorPoint: "Anchor-1" 571.739 1885.46 basemark 0
AnchorPoint: "Anchor-1" 680.906 1278.67 mark 0
LayerCount: 2
Fore
SplineSet
629.647101445 1453.05608594 m 2,0,1
 478.994508329 1507.39492549 478.994508329 1507.39492549 479.09571452 1628.59037233 c 0,2,3
 478.994591359 1695.57518006 478.994591359 1695.57518006 517.341965408 1742.23906489 c 0,4,5
 533.638640029 1761.79216536 533.638640029 1761.79216536 554.225028416 1774.89367752 c 128,-1,6
 574.811416802 1787.99518967 574.811416802 1787.99518967 599.226212885 1794.50172921 c 128,-1,7
 623.641008968 1801.00826875 623.641008968 1801.00826875 651.818481204 1801.0126951 c 0,8,9
 683.967306758 1801.00602436 683.967306758 1801.00602436 712.10536154 1791.43766288 c 128,-1,10
 740.243416321 1781.8693014 740.243416321 1781.8693014 763.817948702 1762.84991471 c 0,11,12
 798.395007923 1735.08377222 798.395007923 1735.08377222 813.955914358 1693.74187691 c 0,13,14
 816.735581603 1686.20198063 816.735581603 1686.20198063 818.779017755 1678.30788034 c 128,-1,15
 820.822453907 1670.41378005 820.822453907 1670.41378005 822.119031162 1662.22700914 c 128,-1,16
 823.415608417 1654.04023823 823.415608417 1654.04023823 823.982819376 1645.56919917 c 128,-1,17
 824.550030334 1637.09816012 824.550030334 1637.09816012 824.390994143 1628.32896069 c 0,18,19
 824.022666468 1573.34985521 824.022666468 1573.34985521 802.056824441 1515.85898371 c 1,20,21
 815.487894917 1512.82852968 815.487894917 1512.82852968 830.701507856 1512.5174413 c 2,22,-1
 840.497070312 1512.31714136 l 1,23,-1
 840.497070312 1502.51953125 l 1,24,-1
 840.497070312 1427.00878906 l 1,25,-1
 840.497070312 1416.66710753 l 1,26,-1
 830.1612228 1417.01443033 l 2,27,28
 816.362330281 1417.47812429 816.362330281 1417.47812429 798.560052478 1419.54770943 c 128,-1,29
 780.757774675 1421.61729458 780.757774675 1421.61729458 759.797281812 1425.13505832 c 1,30,31
 662.460065431 1202.01919216 662.460065431 1202.01919216 473.727717078 1200.96398253 c 0,32,33
 403.622690839 1200.62726716 403.622690839 1200.62726716 355.977932904 1233.61908773 c 128,-1,34
 308.333174969 1266.6109083 308.333174969 1266.6109083 284.013309696 1330.84437103 c 128,-1,35
 259.693444422 1395.07783375 259.693444422 1395.07783375 258.001594007 1489.82145704 c 2,36,-1
 257.850150293 1498.30230501 l 1,37,-1
 266.192666605 1499.83532135 l 1,38,-1
 344.988565043 1514.31481353 l 1,39,-1
 356.564407958 1516.44198424 l 1,40,-1
 356.793995693 1504.67455955 l 2,41,42
 360.806364593 1299.02224589 360.806364593 1299.02224589 472.493275895 1299.27531697 c 0,43,44
 506.069896622 1299.49359531 506.069896622 1299.49359531 537.731717678 1315.18575583 c 128,-1,45
 569.393538735 1330.87791635 569.393538735 1330.87791635 599.646669142 1362.8282182 c 128,-1,46
 629.899799549 1394.77852005 629.899799549 1394.77852005 658.036687506 1442.81625449 c 1,47,-1
 629.647101445 1453.05608594 l 2,0,1
703.084381755 1534.83594635 m 1,48,-1
 705.776766281 1541.04494682 l 2,49,50
 725.853598187 1587.15355545 725.853598187 1587.15355545 726.003833587 1626.7693321 c 0,51,52
 725.863847209 1663.29886384 725.863847209 1663.29886384 704.501562424 1680.77572659 c 0,53,54
 682.064020378 1700.11084545 682.064020378 1700.11084545 655.649883732 1700.52533629 c 0,55,56
 615.73638321 1700.99454976 615.73638321 1700.99454976 594.195899765 1672.88674147 c 0,57,58
 586.498348342 1662.7561106 586.498348342 1662.7561106 582.635821444 1650.88818676 c 128,-1,59
 578.773294546 1639.02026292 578.773294546 1639.02026292 578.713926851 1625.07281248 c 0,60,61
 578.769693183 1605.18034222 578.769693183 1605.18034222 593.26500651 1588.17764499 c 128,-1,62
 607.760319837 1571.17494776 607.760319837 1571.17494776 638.775779417 1556.92182455 c 0,63,64
 659.262918682 1547.41878502 659.262918682 1547.41878502 703.084381755 1534.83594635 c 1,48,-1
EndSplineSet
EndChar

StartChar: uni064D
Encoding: 1613 1613 48
GlifName: uni064D_
Width: -26
VWidth: 2316
GlyphClass: 4
Flags: W
AnchorPoint: "Anchor-7" 542.278 32.7109 mark 0
AnchorPoint: "Anchor-6" 542.278 32.7109 mark 0
AnchorPoint: "Anchor-0" 592.022 -407.025 basemark 0
AnchorPoint: "Anchor-0" 542.278 32.7109 mark 0
LayerCount: 2
Fore
SplineSet
322.099609375 -446 m 1,0,-1
 322.099609375 -342.422851562 l 1,1,-1
 322.099609375 -335.709347019 l 1,2,-1
 328.313270098 -333.167386426 l 1,3,-1
 783.713660723 -146.866605176 l 1,4,-1
 797.5 -141.226720295 l 1,5,-1
 797.5 -156.122070312 l 1,6,-1
 797.5 -259.700195312 l 1,7,-1
 797.5 -266.413713179 l 1,8,-1
 791.286322275 -268.955667403 l 1,9,-1
 335.88593165 -455.255472091 l 1,10,-1
 322.099609375 -460.895320453 l 1,11,-1
 322.099609375 -446 l 1,0,-1
322.099609375 -234 m 1,12,-1
 322.099609375 -130.422851562 l 1,13,-1
 322.099609375 -123.709347019 l 1,14,-1
 328.313270098 -121.167386426 l 1,15,-1
 783.713660723 65.1333948234 l 1,16,-1
 797.5 70.7732797042 l 1,17,-1
 797.5 55.8779296875 l 1,18,-1
 797.5 -47.7001953125 l 1,19,-1
 797.5 -54.4137131796 l 1,20,-1
 791.286322275 -56.9556674038 l 1,21,-1
 335.88593165 -243.255472091 l 1,22,-1
 322.099609375 -248.895320453 l 1,23,-1
 322.099609375 -234 l 1,12,-1
EndSplineSet
EndChar

StartChar: uni064E
Encoding: 1614 1614 49
GlifName: uni064E_
Width: -26
VWidth: 2316
GlyphClass: 4
Flags: W
AnchorPoint: "Anchor-10" 545.66 1397.63 mark 0
AnchorPoint: "Anchor-9" 545.66 1397.63 mark 0
AnchorPoint: "Anchor-1" 541.396 1651.77 basemark 0
AnchorPoint: "Anchor-1" 545.66 1397.63 mark 0
LayerCount: 2
Fore
SplineSet
286.099609375 1349.09960938 m 1,0,-1
 286.099609375 1452.67773438 l 1,1,-1
 286.099609375 1459.39123892 l 1,2,-1
 292.313270098 1461.93319952 l 1,3,-1
 747.713660723 1648.23398076 l 1,4,-1
 761.5 1653.87386564 l 1,5,-1
 761.5 1638.97851562 l 1,6,-1
 761.5 1535.40039062 l 1,7,-1
 761.5 1528.68688608 l 1,8,-1
 755.286339277 1526.14492548 l 1,9,-1
 299.885948652 1339.84414424 l 1,10,-1
 286.099609375 1334.20425936 l 1,11,-1
 286.099609375 1349.09960938 l 1,0,-1
EndSplineSet
EndChar

StartChar: uni064F
Encoding: 1615 1615 50
GlifName: uni064F_
Width: -26
VWidth: 2316
GlyphClass: 4
Flags: W
AnchorPoint: "Anchor-10" 591.295 1359.37 mark 0
AnchorPoint: "Anchor-9" 591.295 1359.37 mark 0
AnchorPoint: "Anchor-1" 570.134 1910.4 basemark 0
AnchorPoint: "Anchor-1" 591.295 1359.37 mark 0
LayerCount: 2
Fore
SplineSet
722.652812661 1417.00195314 m 2,0,1
 714.855312823 1417.00195314 714.855312823 1417.00195314 707.090199836 1417.22012545 c 128,-1,2
 699.325086849 1417.43829775 699.325086849 1417.43829775 691.722343973 1417.86647147 c 128,-1,3
 684.119601096 1418.29464518 684.119601096 1418.29464518 676.596985522 1418.93187675 c 128,-1,4
 669.074369948 1419.56910833 669.074369948 1419.56910833 661.736889115 1420.4039766 c 128,-1,5
 654.399408283 1421.23884487 654.399408283 1421.23884487 647.189795204 1422.27365656 c 1,6,7
 545.388087412 1286.0063406 545.388087412 1286.0063406 300.116481056 1272.68658824 c 2,8,-1
 289.57421875 1272.11407875 l 1,9,-1
 289.57421875 1282.671875 l 1,10,-1
 289.57421875 1360.92578125 l 1,11,-1
 289.57421875 1370.04787117 l 1,12,-1
 298.657934481 1370.88371392 l 2,13,14
 473.976406723 1387.01573284 473.976406723 1387.01573284 545.579422578 1448.78633513 c 1,15,16
 503.019386504 1459.76517802 503.019386504 1459.76517802 461.659858462 1482.708673 c 0,17,18
 369.982875175 1534.15430851 369.982875175 1534.15430851 370.250170025 1625.62552973 c 0,19,20
 371.041612066 1693.63389695 371.041612066 1693.63389695 408.49038534 1739.17916877 c 0,21,22
 457.305666103 1798.0023159 457.305666103 1798.0023159 542.964142497 1797.95995879 c 0,23,24
 558.983143994 1797.97046826 558.983143994 1797.97046826 574.040381068 1795.58483581 c 128,-1,25
 589.097618142 1793.19920336 589.097618142 1793.19920336 603.128294577 1788.43250767 c 128,-1,26
 617.158971012 1783.66581198 617.158971012 1783.66581198 630.151556321 1776.49333135 c 128,-1,27
 643.14414163 1769.32085071 643.14414163 1769.32085071 654.982677151 1759.78879206 c 0,28,29
 666.426351987 1750.57404494 666.426351987 1750.57404494 675.818270914 1739.81924511 c 128,-1,30
 685.21018984 1729.06444529 685.21018984 1729.06444529 692.541487683 1716.7708827 c 128,-1,31
 699.872785525 1704.47732012 699.872785525 1704.47732012 705.112455179 1690.68365456 c 0,32,33
 710.599004334 1675.60569635 710.599004334 1675.60569635 713.191463145 1659.27510376 c 128,-1,34
 715.783921956 1642.94451116 715.783921956 1642.94451116 715.545266838 1625.28608535 c 0,35,36
 715.036258704 1570.83223129 715.036258704 1570.83223129 693.789100459 1514.4016356 c 1,37,38
 701.54131693 1513.50643527 701.54131693 1513.50643527 708.335232196 1513.01603224 c 128,-1,39
 715.129147461 1512.52562922 715.129147461 1512.52562922 722.969049775 1512.27721017 c 2,40,-1
 732.65234375 1511.9703805 l 1,41,-1
 732.65234375 1502.28222656 l 1,42,-1
 732.65234375 1427.00195312 l 1,43,-1
 732.65234375 1417.00242203 l 1,44,-1
 722.652812661 1417.00195314 l 2,0,1
594.23867863 1531.78321197 m 1,45,-1
 596.931063156 1537.99221245 l 2,46,47
 617.007895062 1584.10082108 617.007895062 1584.10082108 617.158130462 1623.71659772 c 0,48,49
 617.086043618 1642.52770418 617.086043618 1642.52770418 611.693495761 1655.77088063 c 128,-1,50
 606.300947903 1669.01405708 606.300947903 1669.01405708 595.655859299 1677.72299222 c 0,51,52
 573.218317253 1697.05811108 573.218317253 1697.05811108 546.804180607 1697.47260191 c 0,53,54
 506.890680085 1697.94181538 506.890680085 1697.94181538 485.35019664 1669.83400709 c 0,55,56
 469.985673696 1649.61299109 469.985673696 1649.61299109 469.868223726 1622.02007811 c 0,57,58
 469.982046733 1581.41814678 469.982046733 1581.41814678 529.930076292 1553.86909018 c 0,59,60
 550.417215557 1544.36605064 550.417215557 1544.36605064 594.23867863 1531.78321197 c 1,45,-1
EndSplineSet
EndChar

StartChar: uni0650
Encoding: 1616 1616 51
GlifName: uni0650
Width: -26
VWidth: 2316
GlyphClass: 4
Flags: W
AnchorPoint: "Anchor-7" 571.144 -44.8242 mark 0
AnchorPoint: "Anchor-6" 571.144 -44.8242 mark 0
AnchorPoint: "Anchor-0" 619.091 -324.624 basemark 0
AnchorPoint: "Anchor-0" 571.144 -44.8242 mark 0
LayerCount: 2
Fore
SplineSet
332.900390625 -345.599609375 m 1,0,-1
 332.900390625 -242.022460938 l 1,1,-1
 332.900390625 -235.308961846 l 1,2,-1
 339.114044393 -232.766998648 l 1,3,-1
 794.513458456 -46.466217397 l 1,4,-1
 808.299804688 -40.8263175765 l 1,5,-1
 808.299804688 -55.7216796875 l 1,6,-1
 808.299804688 -159.299804688 l 1,7,-1
 808.299804688 -166.013317104 l 1,8,-1
 802.086133918 -168.555273934 l 1,9,-1
 346.686719855 -354.855078621 l 1,10,-1
 332.900390625 -360.494941922 l 1,11,-1
 332.900390625 -345.599609375 l 1,0,-1
EndSplineSet
EndChar

StartChar: uni0651
Encoding: 1617 1617 52
GlifName: uni0651
Width: -26
VWidth: 2393
GlyphClass: 4
Flags: W
AnchorPoint: "Anchor-10" 598.801 1463.71 mark 0
AnchorPoint: "Anchor-9" 598.801 1463.71 mark 0
AnchorPoint: "Anchor-1" 570.087 1849.1 basemark 0
AnchorPoint: "Anchor-1" 598.801 1463.71 mark 0
LayerCount: 2
Fore
SplineSet
618.412645919 1768.89242112 m 2,0,1
 619.30749402 1748.07848034 619.30749402 1748.07848034 619.858659898 1727.40284431 c 128,-1,2
 620.409825777 1706.72720828 620.409825777 1706.72720828 620.623282745 1685.93068262 c 0,3,4
 620.423638877 1642.49315672 620.423638877 1642.49315672 634.277786218 1623.29711008 c 128,-1,5
 648.131933559 1604.10106343 648.131933559 1604.10106343 676.611536658 1604.25164957 c 0,6,7
 707.00449922 1604.48846798 707.00449922 1604.48846798 722.167046056 1626.04174361 c 128,-1,8
 737.329592892 1647.59501923 737.329592892 1647.59501923 737.627208882 1695.2404651 c 0,9,10
 737.659516994 1699.7577161 737.659516994 1699.7577161 737.431492037 1704.9594675 c 128,-1,11
 737.20346708 1710.1612189 737.20346708 1710.1612189 736.71568548 1716.04815989 c 128,-1,12
 736.227903879 1721.93510088 736.227903879 1721.93510088 735.473833248 1728.51195407 c 128,-1,13
 734.719762616 1735.08880727 734.719762616 1735.08880727 733.706793956 1742.31800659 c 128,-1,14
 732.693825296 1749.54720591 732.693825296 1749.54720591 731.408157339 1757.47427959 c 128,-1,15
 730.122489382 1765.40135328 730.122489382 1765.40135328 728.578782012 1773.94792963 c 128,-1,16
 727.035074641 1782.49450598 727.035074641 1782.49450598 725.212257706 1791.74691885 c 128,-1,17
 723.389440772 1800.99933173 723.389440772 1800.99933173 721.308988734 1810.84095415 c 2,18,-1
 719.13196939 1821.13939027 l 1,19,-1
 729.528395956 1822.7860579 l 1,20,-1
 817.60456783 1836.73625321 l 1,21,-1
 826.334444655 1838.11895961 l 1,22,-1
 828.778902953 1829.62500588 l 2,23,24
 847.011141889 1766.27199467 847.011141889 1766.27199467 846.527436109 1705.01225672 c 0,25,26
 846.769789179 1601.41683475 846.769789179 1601.41683475 807.605412545 1546.89629847 c 128,-1,27
 768.441035912 1492.37576219 768.441035912 1492.37576219 690.470246765 1491.66628051 c 0,28,29
 631.084250607 1491.23402318 631.084250607 1491.23402318 588.240970019 1535.03857026 c 1,30,31
 551.365722158 1428.19470822 551.365722158 1428.19470822 431.98662674 1427.88961904 c 0,32,33
 360.213905445 1428.05473914 360.213905445 1428.05473914 322.956209773 1473.69156341 c 128,-1,34
 285.698514102 1519.32838767 285.698514102 1519.32838767 284.303887988 1606.3481088 c 0,35,36
 283.379905143 1667.17297955 283.379905143 1667.17297955 297.434663046 1718.38765035 c 2,37,-1
 299.821453858 1727.08496883 l 1,38,-1
 308.718205051 1725.60580102 l 1,39,-1
 387.032658176 1712.5852932 l 1,40,-1
 397.382508131 1710.86453417 l 1,41,-1
 395.167108556 1700.60917409 l 2,42,43
 385.30795128 1654.96990922 385.30795128 1654.96990922 385.576868959 1619.70855201 c 0,44,45
 385.866831848 1580.92533379 385.866831848 1580.92533379 400.043558855 1563.50064917 c 128,-1,46
 414.220285862 1546.07596454 414.220285862 1546.07596454 443.719459544 1545.90215613 c 0,47,48
 480.086450215 1545.67938079 480.086450215 1545.67938079 498.983795789 1570.47892633 c 128,-1,49
 517.881141363 1595.27847187 517.881141363 1595.27847187 519.957531817 1649.59880369 c 0,50,51
 521.89813562 1700.23233456 521.89813562 1700.23233456 521.096395807 1768.34519121 c 2,52,-1
 520.977302836 1778.46289062 l 1,53,-1
 531.095703125 1778.46289062 l 1,54,-1
 608.421875 1778.46289062 l 1,55,-1
 618.001185324 1778.46289062 l 1,56,-1
 618.412645919 1768.89242112 l 2,0,1
EndSplineSet
EndChar

StartChar: uni0652
Encoding: 1618 1618 53
GlifName: uni0652
Width: -26
VWidth: 2316
GlyphClass: 4
Flags: W
AnchorPoint: "Anchor-10" 595.219 1271.43 mark 0
AnchorPoint: "Anchor-9" 595.219 1271.43 mark 0
AnchorPoint: "Anchor-1" 595.537 1682.66 basemark 0
AnchorPoint: "Anchor-1" 595.219 1271.43 mark 0
LayerCount: 2
Fore
SplineSet
411.07421875 1461.82128906 m 0,0,1
 411.07421875 1487.25295096 411.07421875 1487.25295096 417.0190656 1510.28969992 c 128,-1,2
 422.963912449 1533.32644888 422.963912449 1533.32644888 434.816824736 1553.78627462 c 128,-1,3
 446.669737022 1574.24610035 446.669737022 1574.24610035 464.323532052 1591.90023799 c 128,-1,4
 481.977537754 1609.55390109 481.977537754 1609.55390109 502.437339731 1621.40678572 c 128,-1,5
 522.897141709 1633.25967035 522.897141709 1633.25967035 545.933937818 1639.20454221 c 128,-1,6
 568.970733926 1645.14941406 568.970733926 1645.14941406 594.40234375 1645.14941406 c 0,7,8
 671.229912566 1645.14941406 671.229912566 1645.14941406 724.481224062 1591.90016937 c 128,-1,9
 777.731445312 1538.64994812 777.731445312 1538.64994812 777.731445312 1461.82128906 c 0,10,11
 777.731445312 1442.75107007 777.731445312 1442.75107007 774.379084605 1425.00318691 c 128,-1,12
 771.026723898 1407.25530375 771.026723898 1407.25530375 764.36219078 1390.95894162 c 128,-1,13
 757.697657662 1374.6625795 757.697657662 1374.6625795 747.709812588 1359.82335413 c 128,-1,14
 737.721967513 1344.98412876 737.721967513 1344.98412876 724.48115545 1331.7433167 c 0,15,16
 697.988518687 1305.25119406 697.988518687 1305.25119406 665.28436159 1291.87217906 c 128,-1,17
 632.580204494 1278.49316406 632.580204494 1278.49316406 594.40234375 1278.49316406 c 0,18,19
 517.573684689 1278.49316406 517.573684689 1278.49316406 464.323394825 1331.74345393 c 128,-1,20
 411.07421875 1384.9936634 411.07421875 1384.9936634 411.07421875 1461.82128906 c 0,0,1
512.667473694 1461.02255928 m 0,21,22
 512.514981663 1452.08791253 512.514981663 1452.08791253 513.9216743 1444.02370683 c 128,-1,23
 515.328366937 1435.95950114 515.328366937 1435.95950114 518.360572559 1428.55110724 c 128,-1,24
 521.39277818 1421.14271335 521.39277818 1421.14271335 526.038455789 1414.38904198 c 128,-1,25
 530.684133398 1407.63537062 530.684133398 1407.63537062 537.054923409 1401.31682753 c 0,26,27
 549.250099923 1389.01805924 549.250099923 1389.01805924 563.985281311 1382.98956484 c 128,-1,28
 578.720462699 1376.96107044 578.720462699 1376.96107044 596.758670815 1376.92872722 c 0,29,30
 631.880987988 1376.99253354 631.880987988 1376.99253354 656.462187089 1401.31740603 c 0,31,32
 680.98434728 1426.09589542 680.98434728 1426.09589542 680.851490069 1461.02248286 c 0,33,34
 680.984346467 1495.90865026 680.984346467 1495.90865026 656.462211415 1520.7254764 c 0,35,36
 631.881049168 1545.01195067 631.881049168 1545.01195067 596.758599543 1545.11421598 c 0,37,38
 561.174174181 1545.01195434 561.174174181 1545.01195434 537.054847191 1520.72610679 c 0,39,40
 512.071360812 1495.90914792 512.071360812 1495.90914792 512.667473694 1461.02255928 c 0,21,22
EndSplineSet
EndChar

StartChar: uni0653
Encoding: 1619 1619 54
GlifName: uni0653
Width: -30
VWidth: 2673
GlyphClass: 4
Flags: W
AnchorPoint: "Anchor-10" 461.017 1539.11 mark 0
AnchorPoint: "Anchor-9" 461.017 1539.11 mark 0
AnchorPoint: "Anchor-1" 461.017 1995.25 basemark 0
AnchorPoint: "Anchor-1" 461.017 1539.11 mark 0
LayerCount: 2
Fore
SplineSet
400.348632812 1636.8046875 m 2,0,1
 289.097070303 1652.11547185 289.097070303 1652.11547185 197.061523438 1542.6328125 c 1,2,-1
 95.6953125 1669.29980469 l 5,3,4
 214.313143403 1839.44918336 214.313143403 1839.44918336 383.756835938 1812.15820312 c 6,5,-1
 532.506835938 1788.20019531 l 6,6,7
 632 1772 632 1772 752.004882812 1833.74121094 c 5,8,-1
 817.659179688 1677.28320312 l 1,9,10
 689.104504559 1597.06521074 689.104504559 1597.06521074 540.869140625 1617.46582031 c 2,11,-1
 400.348632812 1636.8046875 l 2,0,1
EndSplineSet
EndChar

StartChar: uni0657
Encoding: 1623 1623 57
GlifName: uni0657
Width: -26
VWidth: 2316
GlyphClass: 4
Flags: W
AnchorPoint: "Anchor-10" 513.285 1400.55 mark 0
AnchorPoint: "Anchor-9" 513.285 1400.55 mark 0
AnchorPoint: "Anchor-1" 573.285 2089.85 basemark 0
AnchorPoint: "Anchor-1" 513.285 1400.55 mark 0
LayerCount: 2
Fore
SplineSet
264.808507494 1814.65723412 m 2,0,1
 321.90247807 1813.06248809 321.90247807 1813.06248809 389.727361986 1806.15219534 c 1,2,3
 541.443736303 2019.70779015 541.443736303 2019.70779015 783.730396573 2042.668288 c 2,4,-1
 794.673828125 2043.70535143 l 1,5,-1
 794.673828125 2032.71289062 l 1,6,-1
 794.673828125 1954.59179688 l 1,7,-1
 794.673828125 1946.06661093 l 1,8,-1
 786.256026125 1944.71775771 l 2,9,10
 699.39612922 1930.7994865 699.39612922 1930.7994865 628.593810435 1890.3349333 c 128,-1,11
 557.79149165 1849.8703801 557.79149165 1849.8703801 503.201464312 1783.38144601 c 1,12,13
 557.798449709 1765.22347105 557.798449709 1765.22347105 597.073754521 1736.50521159 c 0,14,15
 632.265637506 1709.94804333 632.265637506 1709.94804333 650.127296646 1675.33309362 c 128,-1,16
 667.988955785 1640.71814391 667.988955785 1640.71814391 667.976561937 1598.87444814 c 0,17,18
 667.984749854 1574.46490521 667.984749854 1574.46490521 662.706686796 1552.59069946 c 128,-1,19
 657.428623737 1530.7164937 657.428623737 1530.7164937 646.836830423 1511.48171698 c 128,-1,20
 636.245037108 1492.24694026 636.245037108 1492.24694026 620.447595793 1475.98124782 c 0,21,22
 574.252928555 1427.99915345 574.252928555 1427.99915345 501.360237084 1428.01367205 c 0,23,24
 422.921952913 1427.99925002 422.921952913 1427.99925002 366.660355719 1483.05479978 c 0,25,26
 322.021094029 1527.84669221 322.021094029 1527.84669221 321.63552931 1603.29540241 c 0,27,28
 321.982169769 1644.90155089 321.982169769 1644.90155089 342.2098304 1713.45910995 c 1,29,30
 324.067200349 1714.79035361 324.067200349 1714.79035361 305.006142728 1715.50353931 c 128,-1,31
 285.945085106 1716.21672502 285.945085106 1716.21672502 264.454611447 1716.37723202 c 2,32,-1
 254.529296875 1716.45136172 l 1,33,-1
 254.529296875 1726.37695312 l 1,34,-1
 254.529296875 1804.66113281 l 1,35,-1
 254.529296875 1814.94435254 l 1,36,-1
 264.808507494 1814.65723412 l 2,0,1
501.186651833 1526.40112916 m 0,37,38
 536.869352751 1526.92566049 536.869352751 1526.92566049 553.59522326 1549.80158766 c 0,39,40
 560.222509977 1559.35675663 560.222509977 1559.35675663 563.697201699 1571.10290841 c 128,-1,41
 567.171893421 1582.8490602 567.171893421 1582.8490602 567.313206395 1596.65855147 c 0,42,43
 567.175414574 1622.75357532 567.175414574 1622.75357532 549.632087961 1643.44819442 c 128,-1,44
 532.088761349 1664.14281352 532.088761349 1664.14281352 495.132733237 1679.77805618 c 0,45,46
 482.447208429 1685.09779239 482.447208429 1685.09779239 468.861357254 1689.63242809 c 128,-1,47
 455.275506079 1694.16706379 455.275506079 1694.16706379 443.200105724 1697.20299204 c 1,48,49
 420.0026413 1640.46636587 420.0026413 1640.46636587 420.023431251 1604.95366433 c 0,50,51
 420.00233399 1586.08216436 420.00233399 1586.08216436 425.95840058 1572.43794911 c 0,52,53
 434.856324819 1552.00548951 434.856324819 1552.00548951 457.021477414 1539.16442005 c 0,54,55
 479.615981606 1526.04460345 479.615981606 1526.04460345 501.186651833 1526.40112916 c 0,37,38
EndSplineSet
EndChar

StartChar: uni065A
Encoding: 1626 1626 58
GlifName: uni065A_
Width: 1135
VWidth: 2316
GlyphClass: 4
Flags: W
AnchorPoint: "Anchor-10" 573.285 1350.55 mark 0
AnchorPoint: "Anchor-9" 573.285 1350.55 mark 0
AnchorPoint: "Anchor-1" 571.012 1862.38 basemark 0
AnchorPoint: "Anchor-1" 573.285 1350.55 mark 0
LayerCount: 2
Fore
SplineSet
493.785304065 1439.29243179 m 1,0,-1
 299.942530627 1763.35688492 l 1,1,-1
 290.89034856 1778.49023438 l 1,2,-1
 308.524414062 1778.49023438 l 1,3,-1
 432.922851562 1778.49023438 l 1,4,-1
 438.665709045 1778.49023438 l 1,5,-1
 441.559999535 1773.53004339 l 1,6,-1
 573.285186296 1547.78142337 l 1,7,-1
 705.01130479 1773.53006955 l 1,8,-1
 707.905600154 1778.49023438 l 1,9,-1
 713.6484375 1778.49023438 l 1,10,-1
 838.047851562 1778.49023438 l 1,11,-1
 855.682053877 1778.49023438 l 1,12,-1
 846.629700818 1763.35682778 l 1,13,-1
 652.783997694 1439.29237465 l 1,14,-1
 649.872946482 1434.42578125 l 1,15,-1
 644.202148438 1434.42578125 l 1,16,-1
 502.3671875 1434.42578125 l 1,17,-1
 496.696345459 1434.42578125 l 1,18,-1
 493.785304065 1439.29243179 l 1,0,-1
EndSplineSet
EndChar

StartChar: afii57392
Encoding: 1632 1632 59
GlifName: afii57392
Width: 913
VWidth: 2952
GlyphClass: 2
Flags: W
LayerCount: 2
Fore
SplineSet
325.298828125 533.278320312 m 4,0,1
 324.9765625 514.065429688 324.9765625 514.065429688 329.602539062 496.901367188 c 4,2,3
 333.880859375 479.5625 333.880859375 479.5625 342.581054688 465.09375 c 4,4,5
 351.688476562 450.624023438 351.688476562 450.624023438 364.536132812 436.95703125 c 4,6,7
 373.948242188 427.250976562 373.948242188 427.250976562 385.3984375 419.693359375 c 4,8,9
 396.208007812 412.78125 396.208007812 412.78125 408.512695312 407.3984375 c 4,10,11
 432.9375 397.19921875 432.9375 397.19921875 462.532226562 397.1640625 c 4,12,13
 519.750976562 397.19921875 519.750976562 397.19921875 559.41796875 436.958007812 c 4,14,15
 578.740234375 456.189453125 578.740234375 456.189453125 588.84375 480.5390625 c 4,16,17
 592.096679688 488.465820312 592.096679688 488.465820312 594.267578125 496.9375 c 4,18,19
 596.547851562 505.161132812 596.547851562 505.161132812 597.544921875 514.470703125 c 4,20,21
 598.774414062 524.08203125 598.774414062 524.08203125 598.653320312 533.278320312 c 4,22,23
 598.774414062 561.923828125 598.774414062 561.923828125 588.84375 586.020507812 c 4,24,25
 584.305664062 597.541015625 584.305664062 597.541015625 576.65625 608.82421875 c 4,26,27
 569.8359375 619.799804688 569.8359375 619.799804688 559.419921875 629.6015625 c 4,28,29
 518.626953125 669.881835938 518.626953125 669.881835938 461.41796875 669.39453125 c 4,30,31
 447.40625 668.772460938 447.40625 668.772460938 433.635742188 666.69140625 c 4,32,33
 420.694335938 664.3203125 420.694335938 664.3203125 408.30078125 659.190429688 c 4,34,35
 400.66015625 655.416015625 400.66015625 655.416015625 392.805664062 651.556640625 c 132,-1,36
 385.078125 647.625 385.078125 647.625 378.25390625 641.731445312 c 4,37,38
 371.721679688 636.495117188 371.721679688 636.495117188 364.53515625 629.6015625 c 4,39,40
 324.9765625 590.862304688 324.9765625 590.862304688 325.298828125 533.278320312 c 4,0,1
219.48828125 771.606445312 m 4,41,42
 244 796 244 796 271.228515625 814.737304688 c 4,43,44
 298 833 298 833 328.219726562 845.7421875 c 4,45,46
 388 871 388 871 456.678710938 870.51953125 c 4,47,48
 503 871 503 871 544.352539062 859.534179688 c 4,49,50
 586 849 586 849 623.717773438 826.42578125 c 4,51,52
 631 822 631 822 638.50390625 817.172851562 c 4,53,54
 646 812 646 812 652.915039062 807.057617188 c 132,-1,55
 660 802 660 802 666.947265625 796.0859375 c 132,-1,56
 674 790 674 790 680.599609375 784.266601562 c 4,57,58
 687 778 687 778 693.870117188 771.606445312 c 4,59,60
 743 722 743 722 768.001953125 662.87890625 c 4,61,62
 780 633 780 633 786.591796875 600.984375 c 132,-1,63
 793 569 793 569 792.784179688 534.4140625 c 4,64,65
 793 396 793 396 693.870117188 297.221679688 c 4,66,67
 682 285 682 285 668.635742188 274.1484375 c 4,68,69
 656 263 656 263 642.115234375 254.12109375 c 4,70,71
 638 251 638 251 634.288085938 248.953125 c 4,72,73
 630 246 630 246 626.353515625 244.03515625 c 4,74,75
 622 242 622 242 618.3125 239.3671875 c 4,76,77
 614 237 614 237 610.165039062 234.952148438 c 4,78,79
 606 233 606 233 601.9140625 230.790039062 c 4,80,81
 598 229 598 229 593.559570312 226.881835938 c 4,82,83
 589 225 589 225 585.102539062 223.228515625 c 4,84,85
 570 217 570 217 554.7109375 212.454101562 c 4,86,87
 539 208 539 208 523.118164062 204.813476562 c 4,88,89
 507 202 507 202 490.418945312 200.3203125 c 4,90,91
 474 199 474 199 456.625 198.923828125 c 4,92,93
 388 199 388 199 328.237304688 223.231445312 c 4,94,95
 318 227 318 227 308.67578125 232.147460938 c 4,96,97
 299 237 299 237 289.672851562 242.447265625 c 4,98,99
 271 253 271 253 253.403320312 267.145507812 c 4,100,101
 236 281 236 281 219.487304688 297.22265625 c 4,102,103
 203 314 203 314 189.419921875 331.111328125 c 4,104,105
 176 349 176 349 164.674804688 367.379882812 c 4,106,107
 154 386 154 386 145.358398438 405.948242188 c 4,108,109
 133 436 133 436 126.76953125 467.84375 c 4,110,111
 121 500 121 500 120.577148438 534.415039062 c 4,112,113
 121 569 121 569 126.767578125 600.986328125 c 4,114,115
 133 633 133 633 145.353515625 662.875976562 c 4,116,117
 158 693 158 693 176.32421875 719.801757812 c 4,118,119
 195 747 195 747 219.48828125 771.606445312 c 4,41,42
EndSplineSet
EndChar

StartChar: afii57393
Encoding: 1633 1633 60
GlifName: afii57393
Width: 656
VWidth: 2972
GlyphClass: 2
Flags: W
LayerCount: 2
Fore
SplineSet
297.916015625 1354.31054688 m 6,0,1
 504.115234375 902.09375 504.115234375 902.09375 504.115234375 258.771484375 c 6,2,-1
 504.115234375 31.5537109375 l 5,3,-1
 504.115234375 11.5537109375 l 5,4,-1
 484.115234375 11.5537109375 l 5,5,-1
 304.796875 11.5537109375 l 5,6,-1
 284.796875 11.5537109375 l 5,7,-1
 284.796875 31.5537109375 l 5,8,-1
 284.791992188 261.924804688 l 6,9,10
 285 898.327148438 285 898.327148438 96.9453125 1279.05078125 c 6,11,-1
 86.95703125 1299.27246094 l 5,12,-1
 108.228515625 1306.77050781 l 5,13,-1
 273.0703125 1364.875 l 5,14,-1
 290.325195312 1370.95800781 l 5,15,-1
 297.916015625 1354.31054688 l 6,0,1
EndSplineSet
EndChar

StartChar: afii57394
Encoding: 1634 1634 61
GlifName: afii57394
Width: 1140
VWidth: 2972
GlyphClass: 2
Flags: W
LayerCount: 2
Fore
SplineSet
389.938476562 1112.39355469 m 6,0,1
 454.516601562 943.005859375 454.516601562 943.005859375 645.283203125 940.767578125 c 4,2,3
 684 940 684 940 714.08203125 949.545898438 c 132,-1,4
 744 959 744 959 766.186523438 977.884765625 c 4,5,6
 788 997 788 997 803.56640625 1026.24609375 c 4,7,8
 846.188476562 1108.36328125 846.188476562 1108.36328125 821.553710938 1292.34570312 c 6,9,-1
 816.125 1332.88964844 l 5,10,-1
 813.40234375 1353.22167969 l 5,11,-1
 833.796875 1355.42773438 l 5,12,-1
 1013.54199219 1374.87402344 l 5,13,-1
 1033.72265625 1377.05761719 l 5,14,-1
 1035.60742188 1356.84667969 l 5,15,-1
 1041.01464844 1298.84960938 l 6,16,17
 1048 1223 1048 1223 1045.17578125 1155.24023438 c 4,18,19
 1042 1088 1042 1088 1029.06152344 1029.04785156 c 132,-1,20
 1016 970 1016 970 992.208984375 920.383789062 c 4,21,22
 893 713 893 713 649.17578125 713.568359375 c 4,23,24
 623 714 623 714 598.162109375 715.814453125 c 4,25,26
 573 718 573 718 550.77734375 722.129882812 c 4,27,28
 528 726 528 726 507.477539062 732.435546875 c 132,-1,29
 487 739 487 739 468.641601562 746.627929688 c 5,30,31
 504.115234375 484.147460938 504.115234375 484.147460938 504.115234375 258.771484375 c 6,32,-1
 504.115234375 31.5537109375 l 1,33,-1
 504.115234375 11.5537109375 l 1,34,-1
 484.115234375 11.5537109375 l 1,35,-1
 304.796875 11.5537109375 l 1,36,-1
 284.796875 11.5537109375 l 1,37,-1
 284.796875 31.5537109375 l 1,38,-1
 284.791992188 261.924804688 l 6,39,40
 285 898.327148438 285 898.327148438 96.9453125 1279.05078125 c 6,41,-1
 86.95703125 1299.27246094 l 5,42,-1
 108.227539062 1306.77050781 l 5,43,-1
 272.84765625 1364.79980469 l 5,44,-1
 291.23828125 1371.28222656 l 5,45,-1
 298.184570312 1353.0625 l 5,46,-1
 389.938476562 1112.39355469 l 6,0,1
EndSplineSet
EndChar

StartChar: afii57395
Encoding: 1635 1635 62
GlifName: afii57395
Width: 1421
VWidth: 2972
GlyphClass: 2
Flags: W
LayerCount: 2
Fore
SplineSet
504.115234375 258.778320312 m 2,0,-1
 504.115234375 31.5537109375 l 1,1,-1
 504.115234375 11.5537109375 l 1,2,-1
 484.115234375 11.5537109375 l 1,3,-1
 304.796875 11.5537109375 l 1,4,-1
 284.796875 11.5537109375 l 1,5,-1
 284.796875 31.5537109375 l 1,6,-1
 284.791992188 261.923828125 l 2,7,8
 285 898.327148438 285 898.327148438 96.9453125 1279.05078125 c 2,9,-1
 86.95703125 1299.27246094 l 1,10,-1
 108.227539062 1306.77050781 l 1,11,-1
 272.817382812 1364.7890625 l 1,12,-1
 291.546875 1371.39160156 l 1,13,-1
 298.28125 1352.70898438 l 1,14,-1
 407.967773438 1048.43652344 l 2,15,16
 444 948 444 948 560.66796875 947.631835938 c 0,17,18
 680.653320312 947.001953125 680.653320312 947.001953125 681.365234375 1184.62011719 c 2,19,-1
 681.662109375 1283.70996094 l 1,20,-1
 681.716796875 1302.08300781 l 1,21,-1
 700.028320312 1303.58398438 l 1,22,-1
 858.68359375 1316.58691406 l 1,23,-1
 879.563476562 1318.29785156 l 1,24,-1
 880.3046875 1297.36132812 l 1,25,-1
 883.997070312 1193.13671875 l 2,26,27
 893 942 893 942 1000.74023438 940.890625 c 0,28,29
 1065 940 1065 940 1091.15234375 997.51953125 c 0,30,31
 1125.2109375 1072.46484375 1125.2109375 1072.46484375 1091 1329 c 2,32,-1
 1087.70117188 1353.73632812 l 1,33,-1
 1107.56445312 1356.00195312 l 1,34,-1
 1284.3671875 1376.16503906 l 1,35,-1
 1304.62402344 1378.47558594 l 1,36,-1
 1307.5859375 1353.30664062 l 2,37,38
 1339.46582031 1082.40722656 1339.46582031 1082.40722656 1301.49121094 957.33203125 c 4,39,40
 1278 878 1278 878 1236.43945312 824.76171875 c 0,41,42
 1194 771 1194 771 1134.10839844 744.176757812 c 0,43,44
 1074 717 1074 717 996.490234375 717.76953125 c 0,45,46
 936 718 936 718 881.17578125 745.138671875 c 0,47,48
 826 772 826 772 777.912109375 823.3671875 c 1,49,50
 685 717 685 717 583.087890625 716.943359375 c 0,51,52
 518 717 518 717 473.874023438 736.385742188 c 1,53,54
 504 397 504 397 504.115234375 258.778320312 c 2,0,-1
EndSplineSet
EndChar

StartChar: afii57396
Encoding: 1636 1636 63
GlifName: afii57396
Width: 1066
VWidth: 2972
GlyphClass: 2
Flags: W
LayerCount: 2
Fore
SplineSet
129.322265625 318.123046875 m 0,0,1
 121 528 121 528 481.192382812 703.100585938 c 5,2,3
 211 780 211 780 211.663085938 1017.03125 c 4,4,5
 212 1101 212 1101 260.047851562 1171.66992188 c 4,6,7
 377 1343 377 1343 674 1343.95800781 c 4,8,9
 744.227539062 1344 744.227539062 1344 822.55859375 1334.2265625 c 6,10,-1
 841.342773438 1331.8828125 l 5,11,-1
 825.969726562 1110.04882812 l 5,12,-1
 805.208007812 1112.40332031 l 6,13,14
 756 1118 756 1118 713.874023438 1118.45898438 c 4,15,16
 452 1119 452 1119 450.830078125 998.967773438 c 4,17,18
 450 876 450 876 807.541015625 847.157226562 c 5,19,-1
 810.217773438 631.634765625 l 5,20,21
 349 446 349 446 355.478515625 328.504882812 c 0,22,23
 362.014648438 220.765625 362.014648438 220.765625 723.704101562 223.053710938 c 2,24,-1
 937.52734375 224.40625 l 1,25,-1
 940.2265625 -0.025390625 l 1,26,-1
 717.026367188 0.46875 l 2,27,28
 141 2 141 2 129.322265625 318.123046875 c 0,0,1
EndSplineSet
EndChar

StartChar: afii57397
Encoding: 1637 1637 64
GlifName: afii57397
Width: 1186
VWidth: 2972
GlyphClass: 2
Flags: W
LayerCount: 2
Fore
SplineSet
567.859375 968.688476562 m 1,0,1
 315 693 315 693 314.721679688 508.231445312 c 0,2,3
 315 355 315 355 410.916992188 280.903320312 c 0,4,5
 477 230 477 230 609.084960938 230.291015625 c 4,6,7
 748 230 748 230 815.000976562 309.252929688 c 0,8,9
 872 376 872 376 871.259765625 515.245117188 c 0,10,11
 871 733 871 733 567.859375 968.688476562 c 1,0,1
345.752929688 1167.26757812 m 1,12,-1
 455.455078125 1326.09570312 l 1,13,-1
 466.409179688 1341.95507812 l 1,14,-1
 482.662109375 1331.59375 l 2,15,16
 1086 947 1086 947 1086.70605469 492.28515625 c 0,17,18
 1087 195 1087 195 896.674804688 76.9609375 c 0,19,20
 785 8 785 8 605.173828125 8.388671875 c 4,21,22
 426 9 426 9 308.522460938 72.78125 c 0,23,24
 96 188 96 188 98.6298828125 491.140625 c 0,25,26
 102 785 102 785 387.758789062 1111.13183594 c 1,27,-1
 350.045898438 1140.02539062 l 1,28,-1
 334.93359375 1151.60351562 l 1,29,-1
 345.752929688 1167.26757812 l 1,12,-1
EndSplineSet
EndChar

StartChar: afii57398
Encoding: 1638 1638 65
GlifName: afii57398
Width: 1285
VWidth: 2972
GlyphClass: 2
Flags: W
LayerCount: 2
Fore
SplineSet
924.919921875 26.8046875 m 2,0,1
 805.014648438 517.389648438 805.014648438 517.389648438 791.930664062 1071.515625 c 5,2,3
 632 1031 632 1031 474.202148438 1030.50097656 c 4,4,5
 271.706054688 1029.99902344 271.706054688 1029.99902344 83.189453125 1115.09277344 c 6,6,-1
 71.41796875 1120.40625 l 5,7,-1
 71.41796875 1133.32128906 l 5,8,-1
 71.41796875 1343.89746094 l 5,9,-1
 71.41796875 1375.25683594 l 5,10,-1
 99.8525390625 1362.03222656 l 6,11,12
 293 1272 293 1272 520.328125 1272.2421875 c 4,13,14
 738.12890625 1272 738.12890625 1272 968.077148438 1364.29589844 c 6,15,-1
 995.14453125 1375.16015625 l 5,16,-1
 995.525390625 1345.99707031 l 6,17,18
 1005.98242188 524.3671875 1005.98242188 524.3671875 1152.23046875 37.3056640625 c 2,19,-1
 1159.96289062 11.5537109375 l 1,20,-1
 1133.07519531 11.5537109375 l 1,21,-1
 944.34765625 11.5537109375 l 1,22,-1
 928.647460938 11.5537109375 l 1,23,-1
 924.919921875 26.8046875 l 2,0,1
EndSplineSet
EndChar

StartChar: afii57399
Encoding: 1639 1639 66
GlifName: afii57399
Width: 1301
VWidth: 2952
GlyphClass: 2
Flags: W
LayerCount: 2
Fore
SplineSet
1219.36132812 1268.98925781 m 5,0,1
 873 575 873 575 750.373046875 11.5537109375 c 1,2,-1
 550.517578125 11.5537109375 l 1,3,4
 427 576 427 576 81.517578125 1268.97949219 c 5,5,-1
 286.118164062 1372.90429688 l 5,6,7
 545 817 545 817 650.435546875 394.05078125 c 1,8,9
 756 818 756 818 1014.78222656 1372.90039062 c 5,10,-1
 1219.36132812 1268.98925781 l 5,0,1
EndSplineSet
EndChar

StartChar: afii57400
Encoding: 1640 1640 67
GlifName: afii57400
Width: 1301
VWidth: 2952
GlyphClass: 2
Flags: W
LayerCount: 2
Fore
SplineSet
1219.36132812 88.267578125 m 1,0,-1
 1014.78222656 -15.6435546875 l 1,1,2
 756 539 756 539 650.435546875 963.206054688 c 5,3,4
 545 540 545 540 286.118164062 -15.6474609375 c 1,5,-1
 81.517578125 88.27734375 l 1,6,7
 427 781 427 781 550.517578125 1345.703125 c 5,8,-1
 750.373046875 1345.703125 l 5,9,10
 873 782 873 782 1219.36132812 88.267578125 c 1,0,-1
EndSplineSet
EndChar

StartChar: afii57401
Encoding: 1641 1641 68
GlifName: afii57401
Width: 1076
VWidth: 2972
GlyphClass: 2
Flags: W
LayerCount: 2
Fore
SplineSet
94.9462890625 907.9375 m 0,0,1
 95 1055 95 1055 169.508789062 1175.04882812 c 0,2,3
 290.206054688 1369.71679688 290.206054688 1369.71679688 482.0546875 1370.31542969 c 0,4,5
 665 1370 665 1370 769.313476562 1238.56152344 c 0,6,7
 873 1107 873 1107 885.920898438 852.442382812 c 0,8,9
 910.313476562 384.174804688 910.313476562 384.174804688 918.776367188 32.0341796875 c 2,10,-1
 919.268554688 11.5537109375 l 1,11,-1
 898.782226562 11.5537109375 l 1,12,-1
 726.748046875 11.5537109375 l 1,13,-1
 707.141601562 11.5537109375 l 1,14,-1
 706.751953125 31.15625 l 1,15,-1
 693.719726562 646.772460938 l 1,16,17
 588 595 588 595 447.270507812 595.165039062 c 0,18,19
 333 595 333 595 254.227539062 630.137695312 c 0,20,21
 176 665 176 665 135.34765625 735.118164062 c 0,22,23
 95 805 95 805 94.9462890625 907.9375 c 0,0,1
449.725585938 814.890625 m 0,24,25
 565 815 565 815 674.458007812 866.50390625 c 1,26,-1
 673.454101562 881.049804688 l 1,27,28
 654 1138 654 1138 488.71484375 1138.7265625 c 0,29,30
 413 1139 413 1139 360.961914062 1068.45019531 c 0,31,32
 305 993 305 993 305.008789062 917.301757812 c 0,33,34
 305 891 305 891 312.896484375 872.73046875 c 0,35,36
 337.783203125 815.20703125 337.783203125 815.20703125 449.725585938 814.890625 c 0,24,25
EndSplineSet
EndChar

StartChar: afii57381
Encoding: 1642 1642 69
GlifName: afii57381
Width: 1288
VWidth: 4058
GlyphClass: 2
Flags: W
LayerCount: 2
Fore
SplineSet
729.512695312 335.344726562 m 4,0,1
 729.512695312 413.622070312 729.512695312 413.622070312 785.442382812 468.514648438 c 4,2,3
 840.25 523.322265625 840.25 523.322265625 918.368164062 523.83984375 c 4,4,5
 928.036132812 523.903320312 928.036132812 523.903320312 937.405273438 523.088867188 c 132,-1,6
 946.774414062 522.2734375 946.774414062 522.2734375 955.852539062 520.577148438 c 132,-1,7
 964.930664062 518.879882812 964.930664062 518.879882812 973.706054688 516.27734375 c 132,-1,8
 982.481445312 513.673828125 982.481445312 513.673828125 990.866210938 510.18359375 c 4,9,10
 1002.01074219 505.54296875 1002.01074219 505.54296875 1012.58105469 499.265625 c 132,-1,11
 1023.15234375 492.98828125 1023.15234375 492.98828125 1032.90429688 485.267578125 c 132,-1,12
 1042.65625 477.546875 1042.65625 477.546875 1051.65039062 468.3828125 c 4,13,14
 1078.98339844 441.048828125 1078.98339844 441.048828125 1092.74902344 407.671875 c 132,-1,15
 1106.50390625 374.323242188 1106.50390625 374.323242188 1106.50390625 335.344726562 c 4,16,17
 1106.50390625 296.693359375 1106.50390625 296.693359375 1092.62988281 263.051757812 c 132,-1,18
 1078.75585938 229.411132812 1078.75585938 229.411132812 1051.58496094 202.23828125 c 4,19,20
 996.6640625 147.318359375 996.6640625 147.318359375 918.48046875 147.318359375 c 4,21,22
 892.771484375 147.318359375 892.771484375 147.318359375 869.157226562 153.504882812 c 132,-1,23
 845.54296875 159.69140625 845.54296875 159.69140625 824.501953125 171.921875 c 132,-1,24
 803.461914062 184.153320312 803.461914062 184.153320312 785.422851562 202.192382812 c 4,25,26
 757.836914062 229.266601562 757.836914062 229.266601562 743.674804688 262.971679688 c 132,-1,27
 729.512695312 296.67578125 729.512695312 296.67578125 729.512695312 335.344726562 c 4,0,1
180.96875 1149.37011719 m 4,28,29
 181 1227 181 1227 236.895507812 1282.53710938 c 4,30,31
 255 1300 255 1300 275.936523438 1312.68847656 c 4,32,33
 297 1325 297 1325 320.469726562 1331.22558594 c 4,34,35
 344 1338 344 1338 369.815429688 1337.86523438 c 4,36,37
 448 1338 448 1338 503.109375 1282.40527344 c 4,38,39
 558 1227 558 1227 557.959960938 1149.38183594 c 4,40,41
 558 1071 558 1071 502.922851562 1016.14941406 c 4,42,43
 475 989 475 989 442.584960938 975.099609375 c 4,44,45
 409 961 409 961 369.880859375 961.344726562 c 4,46,47
 331 961 331 961 297.646484375 975.090820312 c 4,48,49
 264 989 264 989 236.893554688 1016.20507812 c 4,50,51
 181 1071 181 1071 180.96875 1149.37011719 c 4,28,29
879.12890625 1375.94140625 m 5,52,-1
 1032.40039062 1296.97558594 l 5,53,-1
 1050.21582031 1287.796875 l 5,54,-1
 1041 1270 l 5,55,-1
 372.7109375 14.4775390625 l 5,56,-1
 363.28515625 -3.7265625 l 5,57,-1
 345.319335938 6.146484375 l 5,58,-1
 192.479492188 90.13671875 l 5,59,-1
 175.356445312 99.5458984375 l 5,60,-1
 184.36328125 116.883789062 l 5,61,-1
 852.220703125 1367.38183594 l 5,62,-1
 861.409179688 1385.0703125 l 5,63,-1
 879.12890625 1375.94140625 l 5,52,-1
EndSplineSet
EndChar

StartChar: uni066B
Encoding: 1643 1643 70
GlifName: uni066B_
Width: 772
VWidth: 2952
GlyphClass: 2
Flags: W
LayerCount: 2
Fore
SplineSet
526.755859375 722.005859375 m 1,0,-1
 668.05859375 658.266601562 l 1,1,-1
 203.7890625 -413.061523438 l 1,2,-1
 60.3642578125 -346.9921875 l 1,3,-1
 526.755859375 722.005859375 l 1,0,-1
EndSplineSet
PairPos2: "'kern' Horizontal Kerning lookup 15-4" uni06F4 dx=-110 dy=0 dh=-110 dv=0 dx=0 dy=0 dh=0 dv=0
PairPos2: "'kern' Horizontal Kerning lookup 15-4" uni06F3 dx=-130 dy=0 dh=-130 dv=0 dx=0 dy=0 dh=0 dv=0
PairPos2: "'kern' Horizontal Kerning lookup 15-4" uni06F2 dx=-130 dy=0 dh=-130 dv=0 dx=0 dy=0 dh=0 dv=0
EndChar

StartChar: uni066C
Encoding: 1644 1644 71
GlifName: uni066C_
Width: 555
VWidth: 2852
GlyphClass: 2
Flags: W
LayerCount: 2
Fore
SplineSet
125.383789062 150.813476562 m 0,0,1
 126.405273438 201.640625 126.405273438 201.640625 145.28125 236.2890625 c 0,2,3
 164.849609375 271.064453125 164.849609375 271.064453125 198.630859375 288.575195312 c 128,-1,4
 232.413085938 306.086914062 232.413085938 306.086914062 278.901367188 306.182617188 c 0,5,6
 433.491210938 307.045898438 433.491210938 307.045898438 461.813476562 169.854492188 c 0,7,8
 469.240234375 134.083984375 469.240234375 134.083984375 466.202148438 91.439453125 c 128,-1,9
 463.1640625 48.794921875 463.1640625 48.794921875 449.80078125 -1.7646484375 c 0,10,11
 390.205078125 -228.668945312 390.205078125 -228.668945312 183.350585938 -398.778320312 c 2,12,-1
 178.513671875 -402.755859375 l 1,13,-1
 172.823242188 -400.141601562 l 1,14,-1
 101.674804688 -367.446289062 l 1,15,-1
 87.9150390625 -361.123046875 l 1,16,-1
 99.1337890625 -350.951171875 l 2,17,18
 284.6953125 -182.69921875 284.6953125 -182.69921875 301.80859375 -0.0498046875 c 1,19,20
 292.265625 -0.35546875 292.265625 -0.35546875 283.640625 -0.21484375 c 0,21,22
 204.927734375 1.0654296875 204.927734375 1.0654296875 164.499023438 39.4296875 c 128,-1,23
 124.069335938 77.79296875 124.069335938 77.79296875 125.383789062 150.813476562 c 0,0,1
EndSplineSet
PairPos2: "'kern' Horizontal Kerning lookup 15-4" uni06F4 dx=-130 dy=0 dh=-130 dv=0 dx=0 dy=0 dh=0 dv=0
PairPos2: "'kern' Horizontal Kerning lookup 15-4" uni06F2 dx=-130 dy=0 dh=-130 dv=0 dx=0 dy=0 dh=0 dv=0
PairPos2: "'kern' Horizontal Kerning lookup 15-4" uni06F3 dx=-150 dy=0 dh=-150 dv=0 dx=0 dy=0 dh=0 dv=0
EndChar

StartChar: afii63167
Encoding: 1645 1645 72
GlifName: afii63167
Width: 1584
VWidth: 2952
GlyphClass: 2
Flags: W
LayerCount: 2
Fore
SplineSet
232.590820312 1038.65136719 m 1,0,-1
 662.741210938 1038.65136719 l 1,1,-1
 664.913085938 1038.65136719 l 1,2,-1
 665.591796875 1040.71484375 l 1,3,-1
 799.995117188 1449.92871094 l 1,4,-1
 934.400390625 1040.71484375 l 1,5,-1
 935.079101562 1038.65136719 l 1,6,-1
 937.250976562 1038.65136719 l 1,7,-1
 1367.40136719 1038.65136719 l 1,8,-1
 1019.86132812 784.586914062 l 1,9,-1
 1018.10644531 783.303710938 l 1,10,-1
 1018.77929688 781.236328125 l 1,11,-1
 1151.70117188 372.89453125 l 1,12,-1
 801.751953125 625.767578125 l 1,13,-1
 799.995117188 627.037109375 l 1,14,-1
 798.23828125 625.767578125 l 1,15,-1
 448.291992188 372.89453125 l 1,16,-1
 581.211914062 781.236328125 l 1,17,-1
 581.884765625 783.303710938 l 1,18,-1
 580.129882812 784.586914062 l 1,19,-1
 232.590820312 1038.65136719 l 1,0,-1
EndSplineSet
EndChar

StartChar: uni066E
Encoding: 1646 1646 73
GlifName: uni066E_
Width: 1807
VWidth: 2972
GlyphClass: 2
Flags: W
AnchorPoint: "Anchor-10" 977.36 1435.35 basechar 0
AnchorPoint: "Anchor-7" 927.36 -237.261 basechar 0
LayerCount: 2
Fore
SplineSet
860.911132812 0 m 2,0,1
 476 0 476 0 277.879882812 126.299804688 c 0,2,3
 80 253 80 253 80.16015625 505.848632812 c 0,4,5
 79.9996761253 645.281397732 79.9996761253 645.281397732 136.416015625 770.975585938 c 2,6,-1
 144.5078125 789.00390625 l 1,7,-1
 338.241210938 714.834960938 l 5,8,-1
 330.9921875 696.787109375 l 2,9,10
 299 617 299 617 299.424804688 534.564453125 c 0,11,12
 299 380 299 380 432.088867188 302.149414062 c 0,13,14
 565 224 565 224 841.873046875 224.13671875 c 0,15,16
 1336 224 1336 224 1461.69921875 316.197265625 c 0,17,18
 1489 336 1489 336 1503.76074219 373.091796875 c 0,19,20
 1518 410 1518 410 1518.37988281 465.400390625 c 0,21,22
 1518.00131198 552.697462571 1518.00131198 552.697462571 1482.328125 706.1015625 c 2,23,-1
 1477.87890625 725.234375 l 1,24,-1
 1496.92871094 730.02734375 l 1,25,-1
 1660.01367188 771.0625 l 1,26,-1
 1678.01367188 775.591796875 l 1,27,-1
 1683.87207031 757.978515625 l 2,28,29
 1735 604 1735 604 1734.90625 479.716796875 c 0,30,31
 1735 358 1735 358 1698.49023438 269.571289062 c 0,32,33
 1662 182 1662 182 1588.26464844 129.944335938 c 0,34,35
 1402 0 1402 0 864.356445312 0 c 2,36,-1
 860.911132812 0 l 2,0,1
EndSplineSet
Substitution2: "'fina' Terminal Forms in Arabic lookup 9 subtable" uni066E.fina
EndChar

StartChar: uni066F
Encoding: 1647 1647 74
GlifName: uni066F_
Width: 1511
VWidth: 2972
GlyphClass: 2
Flags: W
AnchorPoint: "Anchor-10" 121.809 1382.22 basechar 0
AnchorPoint: "Anchor-7" 335.219 -741.353 basechar 0
LayerCount: 2
Fore
SplineSet
747.329101562 -459.724609375 m 0,0,1
 417.771484375 -459.865234375 417.771484375 -459.865234375 249.569335938 -308.5546875 c 128,-1,2
 81.3662109375 -157.243164062 81.3662109375 -157.243164062 81.7529296875 141.067382812 c 0,3,4
 82.0048828125 353.983398438 82.0048828125 353.983398438 174.545898438 577.767578125 c 2,5,-1
 182.180664062 596.228515625 l 1,6,-1
 200.649414062 588.616210938 l 1,7,-1
 359.169921875 523.278320312 l 1,8,-1
 377.272460938 515.81640625 l 1,9,-1
 370.197265625 497.560546875 l 2,10,11
 298.005859375 311.275390625 298.005859375 311.275390625 298.268554688 142.869140625 c 0,12,13
 298.139648438 -52.4228515625 298.139648438 -52.4228515625 410.200195312 -148.0078125 c 128,-1,14
 522.260742188 -243.591796875 522.260742188 -243.591796875 754.34765625 -243.203125 c 0,15,16
 862.25390625 -242.91796875 862.25390625 -242.91796875 944.69921875 -221.267578125 c 128,-1,17
 1027.14453125 -199.616210938 1027.14453125 -199.616210938 1084.6875 -156.3984375 c 128,-1,18
 1142.22949219 -113.180664062 1142.22949219 -113.180664062 1175.74902344 -49.20703125 c 128,-1,19
 1209.26757812 14.767578125 1209.26757812 14.767578125 1219.89453125 100.580078125 c 1,20,21
 1137.05957031 79.9111328125 1137.05957031 79.9111328125 1043.88476562 79.3193359375 c 0,22,23
 875.50390625 78.1171875 875.50390625 78.1171875 786.413085938 151.740234375 c 128,-1,24
 697.321289062 225.36328125 697.321289062 225.36328125 695.42578125 370.452148438 c 0,25,26
 694.98046875 415.920898438 694.98046875 415.920898438 703.458007812 457.498046875 c 0,27,28
 737.577148438 624.751953125 737.577148438 624.751953125 822.083007812 711.4765625 c 0,29,30
 866.029296875 756.959960938 866.029296875 756.959960938 921.876953125 780.08203125 c 128,-1,31
 977.724609375 803.204101562 977.724609375 803.204101562 1043.77734375 803.43359375 c 0,32,33
 1088.47753906 803.734375 1088.47753906 803.734375 1128.19628906 792.723632812 c 128,-1,34
 1167.91601562 781.711914062 1167.91601562 781.711914062 1201.92089844 759.37890625 c 0,35,36
 1247.17480469 729.57421875 1247.17480469 729.57421875 1283.359375 686.626953125 c 128,-1,37
 1319.54492188 643.680664062 1319.54492188 643.680664062 1346.42480469 588.083984375 c 128,-1,38
 1373.3046875 532.486328125 1373.3046875 532.486328125 1391.29101562 464.860351562 c 128,-1,39
 1409.27832031 397.235351562 1409.27832031 397.235351562 1418.62890625 317.045898438 c 0,40,41
 1427.39257812 242.14453125 1427.39257812 242.14453125 1426.81835938 172.092773438 c 128,-1,42
 1426.24414062 102.040039062 1426.24414062 102.040039062 1416.28417969 37.279296875 c 0,43,44
 1378.40429688 -210.211914062 1378.40429688 -210.211914062 1209.58300781 -335.038085938 c 128,-1,45
 1040.76171875 -459.865234375 1040.76171875 -459.865234375 747.329101562 -459.724609375 c 0,0,1
899.454101562 397.69140625 m 0,46,47
 899.6875 344.34765625 899.6875 344.34765625 936.559570312 318.412109375 c 128,-1,48
 973.430664062 292.477539062 973.430664062 292.477539062 1056.50195312 293.232421875 c 0,49,50
 1129.99023438 293.900390625 1129.99023438 293.900390625 1205.06347656 314.034179688 c 1,51,52
 1197.75097656 366.232421875 1197.75097656 366.232421875 1186.08105469 408.868164062 c 128,-1,53
 1174.41113281 451.50390625 1174.41113281 451.50390625 1157.88671875 486.999023438 c 0,54,55
 1114.09570312 583.979492188 1114.09570312 583.979492188 1037.39453125 583.857421875 c 0,56,57
 947.763671875 583.979492188 947.763671875 583.979492188 910.623046875 463.30078125 c 0,58,59
 899.952148438 428.8203125 899.952148438 428.8203125 899.454101562 397.69140625 c 0,46,47
EndSplineSet
Substitution2: "'fina' Terminal Forms in Arabic lookup 9 subtable" uni066F.fina
EndChar

StartChar: uni0670
Encoding: 1648 1648 75
GlifName: uni0670
Width: -29
VWidth: 2574
GlyphClass: 4
Flags: W
AnchorPoint: "Anchor-10" 636.984 1500.61 mark 0
AnchorPoint: "Anchor-9" 636.984 1500.61 mark 0
AnchorPoint: "Anchor-1" 636.984 1997.18 basemark 0
AnchorPoint: "Anchor-1" 636.984 1500.61 mark 0
LayerCount: 2
Fore
SplineSet
583.435546875 1568.26757812 m 1,0,-1
 583.435546875 1969.51660156 l 1,1,-1
 583.435546875 1979.51660156 l 1,2,-1
 593.435546875 1979.51660156 l 1,3,-1
 680.533203125 1979.51660156 l 1,4,-1
 690.533203125 1979.51660156 l 1,5,-1
 690.533203125 1969.51660156 l 1,6,-1
 690.533203125 1568.26757812 l 1,7,-1
 690.533203125 1558.26757812 l 1,8,-1
 680.533203125 1558.26757812 l 1,9,-1
 593.435546875 1558.26757812 l 1,10,-1
 583.435546875 1558.26757812 l 1,11,-1
 583.435546875 1568.26757812 l 1,0,-1
EndSplineSet
EndChar

StartChar: uni0674
Encoding: 1652 1652 76
GlifName: uni0674
Width: 551
VWidth: 2537
GlyphClass: 2
Flags: W
LayerCount: 2
Fore
SplineSet
152.948491566 1975.76088251 m 1,0,1
 91 2034 91 2034 90.783177468 2130.52033426 c 0,2,3
 91 2223 91 2223 152.443070705 2287.8851281 c 0,4,5
 225 2364 225 2364 337.015755588 2364.01562478 c 0,6,7
 414.947485303 2364.00001052 414.947485303 2364.00001052 483.287077756 2319.88082729 c 2,8,-1
 487.834244882 2316.94523326 l 1,9,-1
 487.863138755 2311.53287644 l 1,10,-1
 488.565287193 2180.00748581 l 1,11,-1
 488.664791368 2161.36851331 l 1,12,-1
 473.080048363 2171.59284617 l 2,13,14
 458 2182 458 2182 442.759277635 2188.94073833 c 0,15,16
 428 2196 428 2196 412.303337993 2201.30142593 c 0,17,18
 397 2206 397 2206 381.746050392 2208.71619203 c 0,19,20
 366 2211 366 2211 351.000639113 2211.26163512 c 0,21,22
 321 2211 321 2211 298.851272424 2203.22453972 c 0,23,24
 276 2195 276 2195 261.132392926 2179.92006407 c 0,25,26
 257 2176 257 2176 253.437810663 2170.97299087 c 128,-1,27
 250 2166 250 2166 247.192352845 2161.51841104 c 0,28,29
 244 2157 244 2157 242.384062981 2151.53540044 c 0,30,31
 240 2146 240 2146 239.005151233 2140.99955146 c 128,-1,32
 238 2136 238 2136 237.043383333 2129.89017217 c 0,33,34
 236 2124 236 2124 236.490691667 2118.18308722 c 0,35,36
 237 2092 237 2092 258.487214698 2070.87955655 c 0,37,38
 280 2050 280 2050 324.366218291 2033.19552266 c 0,39,40
 335 2029 335 2029 343.018422455 2031.09583776 c 0,41,42
 368.171466296 2036.09332445 368.171466296 2036.09332445 482.840812883 2058.36057317 c 2,43,-1
 494.747070312 2060.67260863 l 1,44,-1
 494.747070312 2048.54394531 l 1,45,-1
 494.747070312 1923.015625 l 5,46,-1
 494.747070312 1915.13964844 l 5,47,-1
 487.090820312 1913.29394531 l 5,48,-1
 80.6298828125 1815.30566406 l 5,49,-1
 68.2861328125 1812.33007812 l 5,50,-1
 68.2861328125 1825.02734375 l 5,51,-1
 68.2861328125 1948.27050781 l 1,52,-1
 68.2861328125 1956.22585765 l 1,53,-1
 76.0378046502 1958.01448136 l 1,54,-1
 152.948491566 1975.76088251 l 1,0,1
EndSplineSet
EndChar

StartChar: uni06A1
Encoding: 1697 1697 80
GlifName: uni06A_1
Width: 1821
VWidth: 2972
GlyphClass: 2
Flags: W
AnchorPoint: "Anchor-10" 640.853 1650.62 basechar 0
AnchorPoint: "Anchor-7" 653.182 -332.248 basechar 0
LayerCount: 2
Fore
SplineSet
1737.56054688 493.369140625 m 0,0,1
 1736 200 1736 200 1594.140625 93.5693359375 c 0,2,3
 1469 0 1469 0 1160.20996094 0 c 2,4,-1
 829.911132812 0 l 2,5,6
 476 0 476 0 277.879882812 126.299804688 c 0,7,8
 79 253 79 253 79.16015625 505.848632812 c 0,9,10
 78.9996761253 645.281397732 78.9996761253 645.281397732 135.416015625 770.975585938 c 2,11,-1
 143.5078125 789.00390625 l 1,12,-1
 337.096679688 714.897460938 l 5,13,-1
 330.052734375 696.938476562 l 2,14,15
 298 615 298 615 298.43359375 531.317382812 c 0,16,17
 298 380 298 380 433.396484375 301.623046875 c 0,18,19
 567.534898761 224.268214208 567.534898761 224.268214208 816.158203125 224.159179688 c 2,20,-1
 1181.35058594 223.999023438 l 2,21,22
 1361 224 1361 224 1448.53222656 267.296875 c 0,23,24
 1536 311 1536 311 1540.63867188 392.799804688 c 1,25,26
 1456 371 1456 371 1361.16210938 370.76953125 c 0,27,28
 1194 371 1194 371 1104.59472656 444.452148438 c 0,29,30
 1011 522 1011 522 1012.83398438 661.745117188 c 0,31,32
 1013 677 1013 677 1013.3515625 691.444335938 c 0,33,34
 1014 706 1014 706 1016.03808594 720.639648438 c 0,35,36
 1018 735 1018 735 1020.84472656 748.860351562 c 0,37,38
 1031 803 1031 803 1047.33496094 848.98828125 c 0,39,40
 1064 895 1064 895 1086.85546875 933.90234375 c 0,41,42
 1110 973 1110 973 1139.4921875 1002.93164062 c 0,43,44
 1184 1049 1184 1049 1239.6015625 1071.81542969 c 0,45,46
 1295 1095 1295 1095 1361.28027344 1094.88476562 c 0,47,48
 1451 1095 1451 1095 1519.18945312 1050.91894531 c 0,49,50
 1692 940 1692 940 1730.05761719 618.290039062 c 0,51,52
 1734 585 1734 585 1735.3984375 554.000976562 c 0,53,54
 1737 523 1737 523 1737.56054688 493.369140625 c 0,0,1
1216.85839844 689.228515625 m 0,55,56
 1217 636 1217 636 1253.78222656 610.296875 c 0,57,58
 1291 584 1291 584 1374.01367188 584.684570312 c 0,59,60
 1447 585 1447 585 1522.41308594 605.41015625 c 1,61,62
 1508 708 1508 708 1475.28320312 778.470703125 c 0,63,64
 1452 829 1452 829 1422.59960938 851.877929688 c 0,65,66
 1393 875 1393 875 1354.79296875 875.30859375 c 0,67,68
 1325 875 1325 875 1302.18164062 862.962890625 c 0,69,70
 1279 851 1279 851 1260.14160156 823.755859375 c 0,71,72
 1254 815 1254 815 1227.98925781 754.629882812 c 0,73,74
 1226 750 1226 750 1225.03515625 744.665039062 c 0,75,76
 1224 740 1224 740 1222.54394531 734.913085938 c 128,-1,77
 1221 730 1221 730 1220.51269531 725.37109375 c 0,78,79
 1220 721 1220 721 1218.93261719 716.034179688 c 128,-1,80
 1218 711 1218 711 1217.80078125 706.900390625 c 0,81,82
 1217 702 1217 702 1217.11132812 697.965820312 c 0,83,84
 1217 694 1217 694 1216.85839844 689.228515625 c 0,55,56
EndSplineSet
Substitution2: "'init' Initial Forms in Arabic lookup 13 subtable" uni06A1.init
Substitution2: "'medi' Medial Forms in Arabic lookup 11 subtable" uni06A1.medi
Substitution2: "'fina' Terminal Forms in Arabic lookup 9 subtable" uni06A1.fina
EndChar

StartChar: uni06A9
Encoding: 1705 1705 81
GlifName: uni06A_9
Width: 1848
VWidth: 2972
GlyphClass: 2
Flags: W
AnchorPoint: "Anchor-7" 720.268 -216.468 basechar 0
AnchorPoint: "Anchor-10" 1095.88 1455.07 basechar 0
LayerCount: 2
Fore
SplineSet
1513.93847656 693.24609375 m 0,0,1
 1650 546 1650 546 1646.70703125 370.030273438 c 0,2,3
 1644 245 1644 245 1570.37792969 162.69921875 c 0,4,5
 1496 80 1496 80 1357.29394531 39.94921875 c 0,6,7
 1218 0 1218 0 1014.10449219 0 c 2,8,-1
 832.553710938 0 l 2,9,10
 466 0 466 0 272.547363281 126.288574219 c 0,11,12
 79 253 79 253 79.16015625 505.848632812 c 0,13,14
 78.9996761253 645.281397732 78.9996761253 645.281397732 135.416015625 770.975585938 c 2,15,-1
 143.5078125 789.00390625 l 1,16,-1
 337.096679688 714.897460938 l 5,17,-1
 330.052734375 696.938476562 l 2,18,19
 314 656 314 656 306 612 c 128,-1,20
 298 568 298 568 298.43359375 531.370117188 c 0,21,22
 300.000034837 223.993164062 300.000034837 223.993164062 832.553710938 223.993164062 c 2,23,-1
 1013.27441406 223.993164062 l 2,24,25
 1428 224 1428 224 1427.21679688 395.0546875 c 0,26,27
 1427 484 1427 484 1330.00390625 575.53125 c 0,28,29
 1163 731 1163 731 1058.17285156 811.245117188 c 0,30,31
 1018 842 1018 842 991.4765625 874.670898438 c 0,32,33
 965 907 965 907 950.40234375 942.50390625 c 128,-1,34
 936 978 936 978 936.411132812 1014.46777344 c 0,35,36
 935.999277277 1157.25055493 935.999277277 1157.25055493 1089.50683594 1215.54296875 c 2,37,-1
 1782.76367188 1478.79785156 l 1,38,-1
 1809.86328125 1489.08886719 l 1,39,-1
 1809.86328125 1460.10058594 l 1,40,-1
 1809.86328125 1279.46289062 l 1,41,-1
 1809.86328125 1265.57617188 l 1,42,-1
 1796.8515625 1260.72363281 l 1,43,-1
 1156.140625 1021.78613281 l 1,44,45
 1279 918 1279 918 1368.30078125 835.931640625 c 0,46,47
 1458 754 1458 754 1513.93847656 693.24609375 c 0,0,1
EndSplineSet
Substitution2: "'init' Initial Forms in Arabic lookup 13 subtable" uniFB90
Substitution2: "'medi' Medial Forms in Arabic lookup 11 subtable" uniFB91
Substitution2: "'fina' Terminal Forms in Arabic lookup 9 subtable" uniFB8F
EndChar

StartChar: afii57514
Encoding: 1722 1722 83
GlifName: afii57514
Width: 1455
VWidth: 2972
GlyphClass: 2
Flags: W
LayerCount: 2
Fore
SplineSet
1311.82421875 -135.793945312 m 0,0,1
 1157.453125 -450.0078125 1157.453125 -450.0078125 727.338867188 -449.724609375 c 0,2,3
 407.588867188 -449.865234375 407.588867188 -449.865234375 244.477539062 -298.444335938 c 128,-1,4
 81.3662109375 -147.022460938 81.3662109375 -147.022460938 81.7529296875 151.067382812 c 0,5,6
 82.0048828125 363.983398438 82.0048828125 363.983398438 174.545898438 587.767578125 c 2,7,-1
 182.180664062 606.228515625 l 1,8,-1
 200.649414062 598.616210938 l 1,9,-1
 359.169921875 533.278320312 l 1,10,-1
 377.272460938 525.81640625 l 1,11,-1
 370.197265625 507.560546875 l 2,12,13
 298.005859375 321.275390625 298.005859375 321.275390625 298.268554688 152.869140625 c 0,14,15
 298.225585938 87.8564453125 298.225585938 87.8564453125 309.909179688 34.2001953125 c 128,-1,16
 321.592773438 -19.4560546875 321.592773438 -19.4560546875 345.344726562 -62.458984375 c 128,-1,17
 369.095703125 -105.461914062 369.095703125 -105.461914062 405.018554688 -137.40234375 c 128,-1,18
 440.942382812 -169.34375 440.942382812 -169.34375 489.446289062 -190.67578125 c 128,-1,19
 537.951171875 -212.0078125 537.951171875 -212.0078125 599.067382812 -222.588867188 c 128,-1,20
 660.184570312 -233.169921875 660.184570312 -233.169921875 734.391601562 -233.203125 c 0,21,22
 842.203125 -233.154296875 842.203125 -233.154296875 921.947265625 -207.131835938 c 128,-1,23
 1001.69042969 -181.110351562 1001.69042969 -181.110351562 1054.69042969 -128.232421875 c 128,-1,24
 1107.68945312 -75.3544921875 1107.68945312 -75.3544921875 1133.93359375 4.369140625 c 128,-1,25
 1160.17773438 84.091796875 1160.17773438 84.091796875 1160.5546875 191.982421875 c 0,26,27
 1160.98925781 371.408203125 1160.98925781 371.408203125 1072.46875 553.004882812 c 2,28,-1
 1062.61035156 573.228515625 l 1,29,-1
 1083.84960938 580.649414062 l 1,30,-1
 1256.49121094 640.966796875 l 1,31,-1
 1274.63867188 647.307617188 l 1,32,-1
 1281.69238281 629.424804688 l 2,33,34
 1305.4765625 569.127929688 1305.4765625 569.127929688 1323.33496094 509.80078125 c 128,-1,35
 1341.19335938 450.47265625 1341.19335938 450.47265625 1353.14257812 392.038085938 c 128,-1,36
 1365.09082031 333.603515625 1365.09082031 333.603515625 1371.08789062 276.0703125 c 128,-1,37
 1377.08496094 218.536132812 1377.08496094 218.536132812 1377.11425781 161.985351562 c 0,38,39
 1377.05566406 79.88671875 1377.05566406 79.88671875 1360.7421875 5.3544921875 c 128,-1,40
 1344.4296875 -69.177734375 1344.4296875 -69.177734375 1311.82421875 -135.793945312 c 0,0,1
EndSplineSet
Substitution2: "'fina' Terminal Forms in Arabic lookup 9 subtable" uniFB9F
EndChar

StartChar: uni06F4
Encoding: 1780 1780 90
GlifName: uni06F_4
Width: 1203
VWidth: 2972
GlyphClass: 2
Flags: W
LayerCount: 2
Fore
SplineSet
1052.74023438 1299.58300781 m 1,0,-1
 1011.74511719 1135.19433594 l 1,1,-1
 1006.17285156 1112.84765625 l 1,2,3
 907 1153 907 1153 830.239257812 1152.92675781 c 0,4,5
 707 1153 707 1153 639.19140625 1100.828125 c 0,6,7
 553 1034 553 1034 546.557617188 945.140625 c 0,8,9
 546 937 546 937 551.143554688 926.806640625 c 0,10,11
 557 917 557 917 573.284179688 903.099609375 c 0,12,13
 590 889 590 889 616.72265625 875.412109375 c 0,14,15
 683 841 683 841 782.952148438 840.590820312 c 0,16,17
 939.087890625 841 939.087890625 841 1057.60546875 889.061523438 c 2,18,-1
 1081.52832031 898.762695312 l 1,19,-1
 1084.94628906 873.17578125 l 1,20,-1
 1108.2734375 698.5390625 l 1,21,-1
 1110.26171875 683.65234375 l 1,22,-1
 1096.52050781 677.591796875 l 2,23,24
 968 621 968 621 823.233398438 621.181640625 c 0,25,26
 598 621 598 621 472.609375 731.083007812 c 1,27,28
 489 564 489 564 496.322265625 447.416992188 c 0,29,30
 504.115234375 323.163085938 504.115234375 323.163085938 504.115234375 258.771484375 c 2,31,-1
 504.115234375 31.5537109375 l 1,32,-1
 504.115234375 11.5537109375 l 1,33,-1
 484.115234375 11.5537109375 l 1,34,-1
 304.796875 11.5537109375 l 1,35,-1
 284.796875 11.5537109375 l 1,36,-1
 284.796875 31.5537109375 l 1,37,-1
 284.791992188 261.924804688 l 2,38,39
 285 898.327148438 285 898.327148438 96.9453125 1279.05078125 c 2,40,-1
 86.95703125 1299.27246094 l 1,41,-1
 108.227539062 1306.77050781 l 1,42,-1
 272.923828125 1364.82617188 l 1,43,-1
 291.39453125 1371.33691406 l 1,44,-1
 298.291992188 1353.00683594 l 2,45,46
 373 1153 373 1153 391.899414062 1103.13671875 c 1,47,48
 431 1193 431 1193 491.22265625 1253.80273438 c 0,49,50
 552 1314 552 1314 632.821289062 1344.06347656 c 0,51,52
 714 1374 714 1374 815.125976562 1373.43164062 c 0,53,54
 930.31640625 1372.99902344 930.31640625 1372.99902344 1041.58105469 1322.64355469 c 2,55,-1
 1056.77636719 1315.76660156 l 1,56,-1
 1052.74023438 1299.58300781 l 1,0,-1
EndSplineSet
PairPos2: "'kern' Horizontal Kerning lookup 15-4" uni06F8 dx=-40 dy=0 dh=-40 dv=0 dx=0 dy=0 dh=0 dv=0
PairPos2: "'kern' Horizontal Kerning lookup 15-4" uni06F5 dx=-40 dy=0 dh=-40 dv=0 dx=0 dy=0 dh=0 dv=0
PairPos2: "'kern' Horizontal Kerning lookup 15-4" uni06F0 dx=-64 dy=0 dh=-64 dv=0 dx=0 dy=0 dh=0 dv=0
EndChar

StartChar: uni06F5
Encoding: 1781 1781 91
GlifName: uni06F_5
Width: 1299
VWidth: 2972
GlyphClass: 2
Flags: W
LayerCount: 2
Fore
SplineSet
308.965820312 359.411132812 m 4,0,1
 309 315 309 315 317.920898438 287.513671875 c 132,-1,2
 327 260 327 260 342.749023438 249.043945312 c 4,3,4
 359 238 359 238 383.056640625 237.844726562 c 4,5,6
 520.072265625 238 520.072265625 238 575.153320312 496.747070312 c 6,7,-1
 578.52734375 512.596679688 l 5,8,-1
 594.731445312 512.583007812 l 5,9,-1
 719.0390625 512.477539062 l 5,10,-1
 735.954101562 512.462890625 l 5,11,-1
 738.748046875 495.780273438 l 6,12,13
 783 234 783 234 904.271484375 234.079101562 c 4,14,15
 947 234 947 234 968.099609375 263.055664062 c 132,-1,16
 989 292 989 292 988.978515625 359.676757812 c 4,17,18
 989 638 989 638 636.017578125 1000.04003906 c 5,19,20
 309 564 309 564 308.965820312 359.411132812 c 4,0,1
368.447265625 11.9833984375 m 4,21,22
 232 12 232 12 163.25390625 101.041992188 c 4,23,24
 94 190 94 190 94.2421875 359.330078125 c 4,25,26
 94 645 94 645 473.719726562 1159.30664062 c 5,27,-1
 430.515625 1199.74804688 l 5,28,-1
 416.85546875 1212.53515625 l 5,29,-1
 552.59375 1395.51171875 l 5,30,31
 1205 806 1205 806 1204.44238281 369.233398438 c 4,32,33
 1204 195 1204 195 1132.31640625 103.469726562 c 4,34,35
 1060 12 1060 12 919.303710938 11.943359375 c 4,36,37
 742.182617188 12.169921875 742.182617188 12.169921875 657.516601562 190.030273438 c 5,38,39
 574 12 574 12 368.447265625 11.9833984375 c 4,21,22
EndSplineSet
PairPos2: "'kern' Horizontal Kerning lookup 15-4" uni06F8 dx=-38 dy=0 dh=-38 dv=0 dx=0 dy=0 dh=0 dv=0
PairPos2: "'kern' Horizontal Kerning lookup 15-4" uni06F7 dx=-100 dy=0 dh=-100 dv=0 dx=0 dy=0 dh=0 dv=0
PairPos2: "'kern' Horizontal Kerning lookup 15-4" uni06F6 dx=-42 dy=0 dh=-42 dv=0 dx=0 dy=0 dh=0 dv=0
PairPos2: "'kern' Horizontal Kerning lookup 15-4" uni06F4 dx=-42 dy=0 dh=-42 dv=0 dx=0 dy=0 dh=0 dv=0
PairPos2: "'kern' Horizontal Kerning lookup 15-4" uni06F3 dx=-100 dy=0 dh=-100 dv=0 dx=0 dy=0 dh=0 dv=0
PairPos2: "'kern' Horizontal Kerning lookup 15-4" uni06F2 dx=-100 dy=0 dh=-100 dv=0 dx=0 dy=0 dh=0 dv=0
EndChar

StartChar: uni06F6
Encoding: 1782 1782 92
GlifName: uni06F_6
Width: 1053
VWidth: 2952
GlyphClass: 2
Flags: W
LayerCount: 2
Fore
SplineSet
717.57421875 1145.01660156 m 2,0,1
 666.045898438 1150 666.045898438 1150 604.625976562 1150.46582031 c 0,2,3
 522 1150 522 1150 464.130859375 1129.84765625 c 0,4,5
 406 1109 406 1109 370.9609375 1069.97460938 c 0,6,7
 353 1050 353 1050 341.713867188 1029.43457031 c 0,8,9
 330 1009 330 1009 324.405273438 987.494140625 c 128,-1,10
 319 966 319 966 318.594726562 943.733398438 c 0,11,12
 319 780 319 780 651.461914062 778.37890625 c 1,13,14
 854 888 854 888 909.690429688 911.025390625 c 1,15,-1
 969.095703125 702.970703125 l 1,16,-1
 956.791992188 697.411132812 l 2,17,18
 515.349609375 498.158203125 515.349609375 498.158203125 303.749023438 -16.0205078125 c 2,19,-1
 296.6328125 -33.3125 l 1,20,-1
 278.90234375 -27.3740234375 l 1,21,-1
 109.659179688 29.30859375 l 1,22,-1
 89.54296875 36.0458984375 l 1,23,24
 232 390 232 390 445.856445312 590.609375 c 1,25,26
 273 616 273 616 183.547851562 706.134765625 c 0,27,28
 94 796 94 796 94.64453125 948.983398438 c 0,29,30
 95 1048 95 1048 135.4375 1131.21484375 c 0,31,32
 260 1381 260 1381 573.114257812 1376.40820312 c 0,33,34
 600 1376 600 1376 628.868164062 1374.61816406 c 0,35,36
 657 1373 657 1373 687.26171875 1369.81738281 c 0,37,38
 714.561523438 1367.04492188 714.561523438 1367.04492188 748.313476562 1362.01367188 c 2,39,-1
 768.034179688 1359.07421875 l 1,40,-1
 765.155273438 1339.34570312 l 1,41,-1
 739.2890625 1162.03710938 l 1,42,-1
 736.5390625 1143.18261719 l 1,43,-1
 717.57421875 1145.01660156 l 2,0,1
EndSplineSet
EndChar

StartChar: uniFB8F
Encoding: 64399 64399 107
GlifName: uniF_B_8F_
Width: 1924
VWidth: 2972
GlyphClass: 2
Flags: W
AnchorPoint: "Anchor-10" 1140.88 1458.07 basechar 0
AnchorPoint: "Anchor-7" 720.268 -216.468 basechar 0
LayerCount: 2
Fore
SplineSet
830.911132812 0 m 2,0,1
 475 0 475 0 277.131835938 126.294921875 c 0,2,3
 79 253 79 253 79.16015625 505.848632812 c 0,4,5
 78.9996761253 645.281397732 78.9996761253 645.281397732 135.416015625 770.975585938 c 2,6,-1
 143.5078125 789.00390625 l 1,7,-1
 337.096679688 714.897460938 l 1,8,-1
 330.052734375 696.938476562 l 2,9,10
 298 615 298 615 298.43359375 531.370117188 c 0,11,12
 299 380 299 380 438.041015625 301.498046875 c 0,13,14
 576.012169069 223.993164062 576.012169069 223.993164062 830.911132812 223.993164062 c 2,15,-1
 1012.63183594 223.993164062 l 2,16,17
 1425 224 1425 224 1426.57421875 395.205078125 c 0,18,19
 1427 439 1427 439 1402.85742188 484.170898438 c 0,20,21
 1379 529 1379 529 1329.38378906 575.510742188 c 0,22,23
 1277 625 1277 625 1228.70019531 667.227539062 c 0,24,25
 1181 710 1181 710 1138.05566406 745.82421875 c 0,26,27
 1095 782 1095 782 1057.53222656 811.243164062 c 0,28,29
 936 906 936 906 935.768554688 1014.45214844 c 0,30,31
 936 1085 936 1085 975.047851562 1136.25585938 c 0,32,33
 1014.12381667 1187.16129972 1014.12381667 1187.16129972 1088.86425781 1215.54296875 c 2,34,-1
 1782.12109375 1478.79785156 l 1,35,-1
 1809.22070312 1489.08886719 l 1,36,-1
 1809.22070312 1460.10058594 l 1,37,-1
 1809.22070312 1279.46289062 l 1,38,-1
 1809.22070312 1265.57617188 l 1,39,-1
 1796.20898438 1260.72363281 l 1,40,-1
 1155.58984375 1021.8203125 l 1,41,42
 1398 818 1398 818 1513.27832031 693.263671875 c 0,43,44
 1596 604 1596 604 1646.77050781 461.572265625 c 0,45,46
 1731.00242363 223.993164059 1731.00242363 223.993164059 1915.76367188 223.993164062 c 2,47,-1
 1944.08984375 223.993164062 l 5,48,49
 1944.09570312 0 l 5,50,-1
 1915.65722656 0 l 2,51,52
 1703 0 1703 0 1567.51367188 163.552734375 c 1,53,54
 1436 0 1436 0 1013.46191406 0 c 2,55,-1
 830.911132812 0 l 2,0,1
EndSplineSet
EndChar

StartChar: uniFB9F
Encoding: 64415 64415 115
GlifName: uniF_B_9F_
Width: 1539
VWidth: 2972
GlyphClass: 2
Flags: W
AnchorPoint: "Anchor-10" 693.458 1386.61 basechar 0
AnchorPoint: "Anchor-7" 585.902 -780.086 basechar 0
LayerCount: 2
Fore
SplineSet
1368.86328125 36.9052734375 m 1,0,1
 1365 -33 1365 -33 1351.25488281 -93.154296875 c 0,2,3
 1337 -154 1337 -154 1311.84472656 -205.751953125 c 0,4,5
 1157 -520 1157 -520 727.338867188 -519.724609375 c 0,6,7
 408 -520 408 -520 244.477539062 -368.444335938 c 128,-1,8
 81 -217 81 -217 81.7529296875 81.0673828125 c 0,9,10
 81.999989174 293.990669842 81.999989174 293.990669842 174.545898438 517.767578125 c 2,11,-1
 182.180664062 536.228515625 l 1,12,-1
 200.649414062 528.616210938 l 1,13,-1
 359.169921875 463.278320312 l 1,14,-1
 377.272460938 455.81640625 l 1,15,-1
 370.197265625 437.560546875 l 2,16,17
 298 251 298 251 298.268554688 82.869140625 c 0,18,19
 298 -112 298 -112 405.3359375 -207.6640625 c 0,20,21
 513 -303 513 -303 734.391601562 -303.203125 c 0,22,23
 950 -303 950 -303 1054.72070312 -198.263671875 c 0,24,25
 1160 -93 1160 -93 1160.5546875 121.982421875 c 0,26,27
 1161.00096732 301.388866168 1161.00096732 301.388866168 1072.46875 483.004882812 c 2,28,-1
 1062.61035156 503.228515625 l 1,29,-1
 1083.84960938 510.649414062 l 1,30,-1
 1256.49121094 570.966796875 l 1,31,-1
 1275.86035156 577.734375 l 1,32,-1
 1282.13085938 558.198242188 l 1,33,-1
 1355.30273438 330.219726562 l 2,34,35
 1389.0003098 223.99902344 1389.0003098 223.99902344 1529.02050781 223.999023438 c 2,36,-1
 1559.13378906 223.999023438 l 5,37,-1
 1559.13671875 0 l 5,38,-1
 1533.41894531 0 l 2,39,40
 1431 0 1431 0 1368.86328125 36.9052734375 c 1,0,1
EndSplineSet
EndChar

StartChar: uniFBE8
Encoding: 64488 64488 118
GlifName: uniF_B_E_8
Width: 646
VWidth: 2972
GlyphClass: 2
Flags: W
AnchorPoint: "Anchor-10" 311.384 1373 basechar 0
AnchorPoint: "Anchor-7" 303.422 -203.625 basechar 0
LayerCount: 2
Fore
SplineSet
68.673828125 0 m 2,0,-1
 -20.9384765625 0 l 1,1,2
 -20.9384765625 223.993164062 l 1,3,-1
 68.68359375 223.993164062 l 2,4,5
 221.864106221 224.006707533 221.864106221 224.006707533 275.563476562 253.483398438 c 4,6,7
 351 297 351 297 351.221679688 445.029296875 c 0,8,9
 351.00090071 561.524734519 351.00090071 561.524734519 314.9453125 704.751953125 c 2,10,-1
 310.0625 724.1484375 l 1,11,-1
 329.459960938 729.029296875 l 1,12,-1
 492.544921875 770.063476562 l 1,13,-1
 510.883789062 774.677734375 l 1,14,-1
 516.516601562 756.625976562 l 2,15,16
 566 598 566 598 566.223632812 448.333984375 c 0,17,18
 566 193 566 193 417.5859375 81.265625 c 0,19,20
 311 0 311 0 68.673828125 0 c 2,0,-1
EndSplineSet
EndChar

StartChar: uniFBE9
Encoding: 64489 64489 119
GlifName: uniF_B_E_9
Width: 717
VWidth: 2972
GlyphClass: 2
Flags: W
AnchorPoint: "Anchor-10" 315.665 1317.09 basechar 0
AnchorPoint: "Anchor-7" 350.537 -157.742 basechar 0
LayerCount: 2
Fore
SplineSet
737.650390625 0 m 1,0,-1
 715.006835938 0 l 2,1,2
 524 0 524 0 440.198242188 125.774414062 c 1,3,4
 332 0 332 0 95.759765625 0 c 2,5,-1
 -20.1171875 0 l 5,6,7
 -20.1171875 223.993164062 l 5,8,-1
 91.01171875 223.993164062 l 2,9,10
 305 224 305 224 326.887695312 339.834960938 c 0,11,12
 333 373 333 373 333.291992188 419.265625 c 0,13,14
 332.997309137 468.4491132 332.997309137 468.4491132 330.049804688 512.340820312 c 2,15,-1
 324.559570312 594.096679688 l 1,16,-1
 323.284179688 613.08203125 l 1,17,-1
 342.182617188 615.299804688 l 1,18,-1
 506.989257812 634.647460938 l 1,19,-1
 527.818359375 637.092773438 l 1,20,-1
 529.2734375 616.170898438 l 1,21,-1
 545.344726562 385.0078125 l 2,22,23
 549 329 549 329 568.880859375 293.903320312 c 0,24,25
 589 258 589 258 624.961914062 241.19921875 c 0,26,27
 661.014323567 223.993164061 661.014323567 223.993164061 716.57421875 223.993164062 c 2,28,-1
 737.64453125 223.993164062 l 1,29,-1
 737.650390625 0 l 1,0,-1
EndSplineSet
EndChar

StartChar: uniFE73
Encoding: 65139 65139 127
GlifName: uniF_E_73
Width: 672
VWidth: 2972
GlyphClass: 2
Flags: W
AnchorPoint: "Anchor-10" 342.943 1032.47 basechar 0
AnchorPoint: "Anchor-7" 416.943 -186.304 basechar 0
LayerCount: 2
Fore
SplineSet
320.336914062 446.018554688 m 2,0,1
 320.336914062 334.180664062 320.336914062 334.180664062 392.497070312 279.26171875 c 128,-1,2
 464.65625 224.342773438 464.65625 224.342773438 618.00390625 224.342773438 c 2,3,-1
 688.674804688 224.342773438 l 1,4,-1
 708.674804688 224.342773438 l 1,5,-1
 708.674804688 204.342773438 l 1,6,-1
 708.674804688 21.5537109375 l 1,7,-1
 708.674804688 1.5537109375 l 1,8,-1
 688.674804688 1.5537109375 l 1,9,-1
 607.989257812 1.5537109375 l 2,10,11
 352.658203125 1.7822265625 352.658203125 1.7822265625 221.1015625 114.467773438 c 128,-1,12
 89.544921875 227.153320312 89.544921875 227.153320312 89.544921875 448.563476562 c 2,13,-1
 89.544921875 472.69140625 l 1,14,-1
 89.544921875 492.69140625 l 1,15,-1
 109.544921875 492.69140625 l 1,16,-1
 300.336914062 492.69140625 l 1,17,-1
 320.336914062 492.69140625 l 1,18,-1
 320.336914062 472.69140625 l 1,19,-1
 320.336914062 446.018554688 l 2,0,1
EndSplineSet
EndChar

StartChar: uniFE8E
Encoding: 65166 65166 153
GlifName: uniF_E_8E_
Width: 531
VWidth: 2972
GlyphClass: 2
Flags: W
AnchorPoint: "Anchor-10" 234.697 1541.11 basechar 0
AnchorPoint: "Anchor-7" 296.078 -219.903 basechar 0
LayerCount: 2
Fore
SplineSet
551.537109375 0 m 1,0,-1
 517.658203125 0 l 2,1,2
 130.283203125 0 130.283203125 0 130.283203125 454.395507812 c 2,3,-1
 130.283203125 1390.171875 l 5,4,-1
 150.283203125 1390.171875 l 5,5,-1
 323.598632812 1390.171875 l 5,6,-1
 343.598632812 1390.171875 l 5,7,-1
 343.598632812 456.465820312 l 2,8,9
 344.000011803 223.993164062 344.000011803 223.993164062 520.712890625 223.993164062 c 2,10,-1
 551.53125 223.993164062 l 1,11,-1
 551.537109375 0 l 1,0,-1
EndSplineSet
EndChar

StartChar: uniFEA2
Encoding: 65186 65186 173
GlifName: uniF_E_A_2
Width: 1386
VWidth: 2972
GlyphClass: 2
Flags: W
AnchorPoint: "Anchor-7" 580.833 -790.619 basechar 0
AnchorPoint: "Anchor-10" 649.478 1282.07 basechar 0
LayerCount: 2
Fore
SplineSet
1405.8984375 0 m 13,0,-1
 1331.49511719 0 l 2,1,2
 1111 0 1111 0 995.833984375 108.87890625 c 0,3,4
 881 218 881 218 876.342773438 430.064453125 c 1,5,6
 592 354 592 354 453.517578125 219.890625 c 0,7,8
 315 85 315 85 315.249023438 -109.31640625 c 0,9,10
 315 -284 315 -284 440.446289062 -370.92578125 c 128,-1,11
 566 -458 566 -458 826.40625 -457.783203125 c 0,12,13
 1038.45586969 -458.00046708 1038.45586969 -458.00046708 1234.68847656 -364.237304688 c 2,14,-1
 1257.71191406 -353.236328125 l 1,15,-1
 1262.89453125 -378.220703125 l 1,16,-1
 1298.95410156 -552.047851562 l 1,17,-1
 1302.1171875 -567.29296875 l 1,18,-1
 1288.11328125 -574.098632812 l 2,19,20
 1085 -673 1085 -673 811.515625 -673.249023438 c 0,21,22
 613 -673 613 -673 469.709960938 -626.625 c 0,23,24
 326 -580 326 -580 239.325195312 -485.895507812 c 0,25,26
 105 -341 105 -341 104.98046875 -124.543945312 c 0,27,28
 105 164 105 164 276.098632812 351.479492188 c 128,-1,29
 447 539 447 539 784.043945312 624.821289062 c 1,30,31
 772 630 772 630 758.640625 634.90234375 c 0,32,33
 745 640 745 640 729.424804688 646.5234375 c 0,34,35
 538 724 538 724 469.56640625 723.6875 c 0,36,37
 435 724 435 724 404.62109375 714.477539062 c 0,38,39
 374 705 374 705 348.290039062 686.110351562 c 0,40,41
 322.114959168 667.083564354 322.114959168 667.083564354 299.436523438 637.872070312 c 2,42,-1
 271.408203125 601.76953125 l 1,43,-1
 261.396484375 588.873046875 l 1,44,-1
 246.756835938 596.100585938 l 1,45,-1
 92.896484375 672.060546875 l 1,46,-1
 73.3515625 681.709960938 l 1,47,-1
 84.642578125 700.353515625 l 1,48,-1
 101.3515625 727.947265625 l 2,49,50
 233 946 233 946 471.784179688 945.841796875 c 0,51,52
 603 946 603 946 783.751953125 858.008789062 c 0,53,54
 1092.44704874 707.782443911 1092.44704874 707.782443911 1258.76269531 700.672851562 c 2,55,-1
 1279.39160156 699.791015625 l 1,56,-1
 1277.85253906 679.200195312 l 1,57,-1
 1264.85839844 505.369140625 l 1,58,-1
 1263.57714844 488.227539062 l 1,59,-1
 1246.4375 486.91796875 l 2,60,61
 1145 479 1145 479 1069.85742188 468.868164062 c 1,62,63
 1072 343 1072 343 1135.94238281 283.372070312 c 0,64,65
 1199.33692127 223.682770869 1199.33692127 223.682770869 1330.55175781 224.061523438 c 2,66,-1
 1405.99707031 224.279296875 l 21,67,-1
 1405.8984375 0 l 13,0,-1
EndSplineSet
EndChar

StartChar: uniFEA3
Encoding: 65187 65187 174
GlifName: uniF_E_A_3
Width: 1337
VWidth: 2972
GlyphClass: 2
Flags: W
AnchorPoint: "Anchor-10" 565.825 1200.07 basechar 0
AnchorPoint: "Anchor-7" 513.524 -214.745 basechar 0
LayerCount: 2
Fore
SplineSet
-20.9384765625 0 m 5,0,1
 -20.9384765625 223.999023438 l 5,2,-1
 52.54296875 223.999023438 l 2,3,4
 378.361756294 224.000001085 378.361756294 224.000001085 859.82421875 472.607421875 c 2,5,-1
 892.716796875 489.591796875 l 1,6,7
 864 500 864 500 821.63671875 517.395507812 c 0,8,9
 779 534 779 534 719.391601562 558.510742188 c 0,10,11
 527 636 527 636 460.337890625 635.657226562 c 0,12,13
 356.332898605 635.998906353 356.332898605 635.998906353 289.4453125 549.842773438 c 2,14,-1
 261.416992188 513.740234375 l 1,15,-1
 251.405273438 500.84375 l 1,16,-1
 236.765625 508.071289062 l 1,17,-1
 82.9052734375 584.03125 l 1,18,-1
 63.3603515625 593.680664062 l 1,19,-1
 74.6513671875 612.32421875 l 1,20,-1
 91.3447265625 639.892578125 l 2,21,22
 157 748 157 748 249.547851562 802.459960938 c 0,23,24
 343 857 343 857 461.282226562 857.8125 c 0,25,26
 593 858 593 858 773.759765625 769.979492188 c 0,27,28
 1082.45122792 619.780447434 1082.45122792 619.780447434 1248.77441406 612.643554688 c 2,29,-1
 1268.11914062 611.813476562 l 1,30,-1
 1267.91601562 592.452148438 l 1,31,-1
 1266.09082031 418.783203125 l 1,32,-1
 1265.90039062 400.637695312 l 1,33,-1
 1247.82226562 399.068359375 l 2,34,35
 1137 389 1137 389 831.014648438 228.461914062 c 0,36,37
 398 0 398 0 40.767578125 0 c 2,38,-1
 -20.9384765625 0 l 5,0,1
EndSplineSet
EndChar

StartChar: uniFEA4
Encoding: 65188 65188 175
GlifName: uniF_E_A_4
Width: 1351
VWidth: 2972
GlyphClass: 2
Flags: W
AnchorPoint: "Anchor-10" 565.825 1200.07 basechar 0
AnchorPoint: "Anchor-7" 513.524 -214.745 basechar 0
LayerCount: 2
Fore
SplineSet
1360.42773438 0 m 9,0,-1
 1301.09667969 0 l 2,1,2
 1123 0 1123 0 1018.15820312 64.5400390625 c 0,3,4
 913 129 913 129 888.44140625 258.205078125 c 1,5,6
 874 251 874 251 860.06640625 243.653320312 c 0,7,8
 846 236 846 236 831.014648438 228.461914062 c 0,9,10
 398 0 398 0 40.767578125 0 c 2,11,-1
 -20.9384765625 0 l 5,12,-1
 -20.9384765625 223.999023438 l 5,13,-1
 52.54296875 223.999023438 l 2,14,15
 378.364366683 224.000001093 378.364366683 224.000001093 859.82421875 472.607421875 c 2,16,-1
 892.591796875 489.52734375 l 1,17,18
 865 500 865 500 821.79296875 517.249023438 c 0,19,20
 779 534 779 534 719.383789062 558.513671875 c 0,21,22
 527 636 527 636 460.337890625 635.657226562 c 0,23,24
 356.332898605 635.998906353 356.332898605 635.998906353 289.4453125 549.842773438 c 2,25,-1
 261.416992188 513.740234375 l 1,26,-1
 251.405273438 500.84375 l 1,27,-1
 236.765625 508.071289062 l 1,28,-1
 82.9052734375 584.03125 l 1,29,-1
 63.3603515625 593.680664062 l 1,30,-1
 74.6513671875 612.32421875 l 1,31,-1
 91.3447265625 639.892578125 l 2,32,33
 157 748 157 748 249.547851562 802.459960938 c 0,34,35
 343 857 343 857 461.282226562 857.8125 c 0,36,37
 593 858 593 858 773.759765625 769.979492188 c 0,38,39
 1082.45122792 619.780447434 1082.45122792 619.780447434 1248.77441406 612.643554688 c 2,40,-1
 1268.11914062 611.813476562 l 1,41,-1
 1267.91601562 592.452148438 l 1,42,-1
 1266.09082031 418.783203125 l 1,43,-1
 1265.89746094 400.385742188 l 1,44,-1
 1247.54785156 399.045898438 l 2,45,46
 1212 396 1212 396 1163.70117188 380.944335938 c 0,47,48
 1116 365 1116 365 1059.94335938 338.075195312 c 1,49,50
 1074.96313596 224.279296875 1074.96313596 224.279296875 1316.61132812 224.279296875 c 2,51,-1
 1360.53320312 224.279296875 l 17,52,-1
 1360.42773438 0 l 9,0,-1
EndSplineSet
EndChar

StartChar: uniFEAA
Encoding: 65194 65194 181
GlifName: uniF_E_A_A_
Width: 1061
VWidth: 2972
GlyphClass: 2
Flags: W
AnchorPoint: "Anchor-7" 417.24 -219.316 basechar 0
AnchorPoint: "Anchor-10" 522.848 1265.53 basechar 0
LayerCount: 2
Fore
SplineSet
337.551757812 0.8193359375 m 0,0,1
 196.515573706 1.00062267754 196.515573706 1.00062267754 97.1865234375 26.154296875 c 2,2,-1
 82.0966796875 29.9755859375 l 1,3,-1
 82.0966796875 45.5419921875 l 1,4,-1
 82.0966796875 234.252929688 l 1,5,-1
 82.0966796875 259.71875 l 1,6,-1
 106.836914062 253.682617188 l 2,7,8
 224 225 224 225 322.985351562 225.068359375 c 0,9,10
 650 225 650 225 648.358398438 369.575195312 c 0,11,12
 647.996501785 410.394573817 647.996501785 410.394573817 558.440429688 620.568359375 c 2,13,-1
 437.600585938 904.16015625 l 1,14,-1
 429.9765625 922.052734375 l 1,15,-1
 447.650390625 930.173828125 l 1,16,-1
 612.282226562 1005.81542969 l 1,17,-1
 631.47265625 1014.6328125 l 1,18,-1
 639.232421875 994.991210938 l 1,19,-1
 831.168945312 509.196289062 l 2,20,21
 888 365 888 365 944.052734375 294.404296875 c 128,-1,22
 1000.00543223 223.993164061 1000.00543223 223.993164061 1048.87988281 223.993164062 c 2,23,-1
 1081.51171875 223.993164062 l 5,24,25
 1081.51757812 0 l 5,26,-1
 1048.53222656 0 l 2,27,28
 883 0 883 0 784.451171875 147.487304688 c 1,29,30
 643 1 643 1 337.551757812 0.8193359375 c 0,0,1
EndSplineSet
EndChar

StartChar: uniFEAE
Encoding: 65198 65198 185
GlifName: uniF_E_A_E_
Width: 870
VWidth: 2164
GlyphClass: 2
Flags: W
AnchorPoint: "Anchor-7" 322.969 -647.998 basechar 0
AnchorPoint: "Anchor-10" 507.256 946.2 basechar 0
LayerCount: 2
Fore
SplineSet
692.19140625 33.6611328125 m 1,0,1
 613.908586558 -401.508161603 613.908586558 -401.508161603 52.716796875 -507.651367188 c 2,2,-1
 36.4423828125 -510.729492188 l 1,3,-1
 30.3857421875 -495.314453125 l 1,4,-1
 -31.7451171875 -337.193359375 l 1,5,-1
 -40.5986328125 -314.662109375 l 1,6,-1
 -16.802734375 -310.21875 l 2,7,8
 155 -278 155 -278 268.21484375 -213.647460938 c 0,9,10
 381 -149 381 -149 436.970703125 -53.1005859375 c 0,11,12
 493 43 493 43 493.250976562 172.353515625 c 0,13,14
 493.999321408 303.880732379 493.999321408 303.880732379 416.622070312 484.109375 c 2,15,-1
 408.233398438 503.6484375 l 1,16,-1
 428.249023438 510.826171875 l 1,17,-1
 594.388671875 570.405273438 l 1,18,-1
 613.868164062 577.390625 l 1,19,-1
 620.185546875 557.68359375 l 1,20,-1
 682.224609375 364.129882812 l 2,21,22
 698 316 698 316 721.682617188 284.723632812 c 0,23,24
 746 254 746 254 777.544921875 238.805664062 c 0,25,26
 810.002140693 223.999023439 810.002140693 223.999023439 851.31640625 223.999023438 c 2,27,-1
 890.573242188 223.999023438 l 5,28,-1
 890.57421875 0 l 5,29,-1
 861.80078125 0 l 2,30,31
 746 0 746 0 692.19140625 33.6611328125 c 1,0,1
EndSplineSet
PairPos2: "'kern' Horizontal Kerning lookup 15-5" uni06C0 dx=-178 dy=0 dh=-178 dv=0 dx=0 dy=0 dh=0 dv=0
PairPos2: "'kern' Horizontal Kerning lookup 15-2" uniFBFE dx=60 dy=0 dh=60 dv=0 dx=0 dy=0 dh=0 dv=0
PairPos2: "'kern' Horizontal Kerning lookup 15-1" uniFEE7 dx=-178 dy=0 dh=-178 dv=0 dx=0 dy=0 dh=0 dv=0
PairPos2: "'kern' Horizontal Kerning lookup 15-2" uniFB90 dx=-226 dy=0 dh=-226 dv=0 dx=0 dy=0 dh=0 dv=0
PairPos2: "'kern' Horizontal Kerning lookup 15-2" uniFB8E dx=-226 dy=0 dh=-226 dv=0 dx=0 dy=0 dh=0 dv=0
PairPos2: "'kern' Horizontal Kerning lookup 15-2" uni06A9 dx=-226 dy=0 dh=-226 dv=0 dx=0 dy=0 dh=0 dv=0
PairPos2: "'kern' Horizontal Kerning lookup 15-2" uni064A dx=-60 dy=0 dh=-60 dv=0 dx=0 dy=0 dh=0 dv=0
PairPos2: "'kern' Horizontal Kerning lookup 15-2" afii57414 dx=-60 dy=0 dh=-60 dv=0 dx=0 dy=0 dh=0 dv=0
PairPos2: "'kern' Horizontal Kerning lookup 15-2" uni0649 dx=-60 dy=0 dh=-60 dv=0 dx=0 dy=0 dh=0 dv=0
PairPos2: "'kern' Horizontal Kerning lookup 15-2" uniFEEB dx=-178 dy=0 dh=-178 dv=0 dx=0 dy=0 dh=0 dv=0
PairPos2: "'kern' Horizontal Kerning lookup 15-2" uni0647 dx=-178 dy=0 dh=-178 dv=0 dx=0 dy=0 dh=0 dv=0
PairPos2: "'kern' Horizontal Kerning lookup 15-2" uni0646 dx=-60 dy=0 dh=-60 dv=0 dx=0 dy=0 dh=0 dv=0
PairPos2: "'kern' Horizontal Kerning lookup 15-2" uniFEE3 dx=-178 dy=0 dh=-178 dv=0 dx=0 dy=0 dh=0 dv=0
PairPos2: "'kern' Horizontal Kerning lookup 15-2" uni0645 dx=-178 dy=0 dh=-178 dv=0 dx=0 dy=0 dh=0 dv=0
PairPos2: "'kern' Horizontal Kerning lookup 15-2" uniFEFB dx=-143 dy=0 dh=-143 dv=0 dx=0 dy=0 dh=0 dv=0
PairPos2: "'kern' Horizontal Kerning lookup 15-2" uniFEDF dx=-143 dy=0 dh=-143 dv=0 dx=0 dy=0 dh=0 dv=0
PairPos2: "'kern' Horizontal Kerning lookup 15-2" uni0644 dx=-60 dy=0 dh=-60 dv=0 dx=0 dy=0 dh=0 dv=0
PairPos2: "'kern' Horizontal Kerning lookup 15-2" uniFEDB dx=-226 dy=0 dh=-226 dv=0 dx=0 dy=0 dh=0 dv=0
PairPos2: "'kern' Horizontal Kerning lookup 15-2" uni0643 dx=-143 dy=0 dh=-143 dv=0 dx=0 dy=0 dh=0 dv=0
PairPos2: "'kern' Horizontal Kerning lookup 15-2" uniFED7 dx=-178 dy=0 dh=-178 dv=0 dx=0 dy=0 dh=0 dv=0
PairPos2: "'kern' Horizontal Kerning lookup 15-2" uni0642 dx=-60 dy=0 dh=-60 dv=0 dx=0 dy=0 dh=0 dv=0
PairPos2: "'kern' Horizontal Kerning lookup 15-2" uniFED3 dx=-178 dy=0 dh=-178 dv=0 dx=0 dy=0 dh=0 dv=0
PairPos2: "'kern' Horizontal Kerning lookup 15-2" uni0641 dx=-178 dy=0 dh=-178 dv=0 dx=0 dy=0 dh=0 dv=0
PairPos2: "'kern' Horizontal Kerning lookup 15-2" uniFECF dx=-178 dy=0 dh=-178 dv=0 dx=0 dy=0 dh=0 dv=0
PairPos2: "'kern' Horizontal Kerning lookup 15-2" uniFECB dx=-178 dy=0 dh=-178 dv=0 dx=0 dy=0 dh=0 dv=0
PairPos2: "'kern' Horizontal Kerning lookup 15-2" uniFEC7 dx=-178 dy=0 dh=-178 dv=0 dx=0 dy=0 dh=0 dv=0
PairPos2: "'kern' Horizontal Kerning lookup 15-2" uni0638 dx=-178 dy=0 dh=-178 dv=0 dx=0 dy=0 dh=0 dv=0
PairPos2: "'kern' Horizontal Kerning lookup 15-2" uniFEC3 dx=-178 dy=0 dh=-178 dv=0 dx=0 dy=0 dh=0 dv=0
PairPos2: "'kern' Horizontal Kerning lookup 15-2" uni0637 dx=-178 dy=0 dh=-178 dv=0 dx=0 dy=0 dh=0 dv=0
PairPos2: "'kern' Horizontal Kerning lookup 15-2" uniFEBF dx=-178 dy=0 dh=-178 dv=0 dx=0 dy=0 dh=0 dv=0
PairPos2: "'kern' Horizontal Kerning lookup 15-2" uni0636 dx=-178 dy=0 dh=-178 dv=0 dx=0 dy=0 dh=0 dv=0
PairPos2: "'kern' Horizontal Kerning lookup 15-2" uniFEBB dx=-178 dy=0 dh=-178 dv=0 dx=0 dy=0 dh=0 dv=0
PairPos2: "'kern' Horizontal Kerning lookup 15-2" uni0635 dx=-178 dy=0 dh=-178 dv=0 dx=0 dy=0 dh=0 dv=0
PairPos2: "'kern' Horizontal Kerning lookup 15-2" uniFEB7 dx=-178 dy=0 dh=-178 dv=0 dx=0 dy=0 dh=0 dv=0
PairPos2: "'kern' Horizontal Kerning lookup 15-2" uni0634 dx=-178 dy=0 dh=-178 dv=0 dx=0 dy=0 dh=0 dv=0
PairPos2: "'kern' Horizontal Kerning lookup 15-2" uniFEB3 dx=-178 dy=0 dh=-178 dv=0 dx=0 dy=0 dh=0 dv=0
PairPos2: "'kern' Horizontal Kerning lookup 15-2" uni0633 dx=-178 dy=0 dh=-178 dv=0 dx=0 dy=0 dh=0 dv=0
PairPos2: "'kern' Horizontal Kerning lookup 15-2" uni0630 dx=-178 dy=0 dh=-178 dv=0 dx=0 dy=0 dh=0 dv=0
PairPos2: "'kern' Horizontal Kerning lookup 15-2" uni062F dx=-178 dy=0 dh=-178 dv=0 dx=0 dy=0 dh=0 dv=0
PairPos2: "'kern' Horizontal Kerning lookup 15-2" uniFEA7 dx=-178 dy=0 dh=-178 dv=0 dx=0 dy=0 dh=0 dv=0
PairPos2: "'kern' Horizontal Kerning lookup 15-2" uniFEA3 dx=-178 dy=0 dh=-178 dv=0 dx=0 dy=0 dh=0 dv=0
PairPos2: "'kern' Horizontal Kerning lookup 15-2" uniFE9F dx=-178 dy=0 dh=-178 dv=0 dx=0 dy=0 dh=0 dv=0
PairPos2: "'kern' Horizontal Kerning lookup 15-2" uniFE9B dx=-178 dy=0 dh=-178 dv=0 dx=0 dy=0 dh=0 dv=0
PairPos2: "'kern' Horizontal Kerning lookup 15-2" uni062B dx=-178 dy=0 dh=-178 dv=0 dx=0 dy=0 dh=0 dv=0
PairPos2: "'kern' Horizontal Kerning lookup 15-2" uniFE97 dx=-178 dy=0 dh=-178 dv=0 dx=0 dy=0 dh=0 dv=0
PairPos2: "'kern' Horizontal Kerning lookup 15-2" uni062A dx=-178 dy=0 dh=-178 dv=0 dx=0 dy=0 dh=0 dv=0
PairPos2: "'kern' Horizontal Kerning lookup 15-2" uni0629 dx=-178 dy=0 dh=-178 dv=0 dx=0 dy=0 dh=0 dv=0
PairPos2: "'kern' Horizontal Kerning lookup 15-2" uni0628 dx=-178 dy=0 dh=-178 dv=0 dx=0 dy=0 dh=0 dv=0
PairPos2: "'kern' Horizontal Kerning lookup 15-2" uni0627 dx=-143 dy=0 dh=-143 dv=0 dx=0 dy=0 dh=0 dv=0
PairPos2: "'kern' Horizontal Kerning lookup 15-2" uni0623 dx=-143 dy=0 dh=-143 dv=0 dx=0 dy=0 dh=0 dv=0
PairPos2: "'kern' Horizontal Kerning lookup 15-2" uni0622 dx=-143 dy=0 dh=-143 dv=0 dx=0 dy=0 dh=0 dv=0
PairPos2: "'kern' Horizontal Kerning lookup 15-2" uni0621 dx=-178 dy=0 dh=-178 dv=0 dx=0 dy=0 dh=0 dv=0
PairPos2: "'kern' Horizontal Kerning lookup 15-2" uniFB94 dx=-226 dy=0 dh=-226 dv=0 dx=0 dy=0 dh=0 dv=0
PairPos2: "'kern' Horizontal Kerning lookup 15-2" uniFB92 dx=-226 dy=0 dh=-226 dv=0 dx=0 dy=0 dh=0 dv=0
PairPos2: "'kern' Horizontal Kerning lookup 15-2" uni06AF dx=-226 dy=0 dh=-226 dv=0 dx=0 dy=0 dh=0 dv=0
PairPos2: "'kern' Horizontal Kerning lookup 15-2" afii57506 dx=-178 dy=0 dh=-178 dv=0 dx=0 dy=0 dh=0 dv=0
PairPos2: "'kern' Horizontal Kerning lookup 15-2" afii57440 dx=-178 dy=0 dh=-178 dv=0 dx=0 dy=0 dh=0 dv=0
PairPos2: "'kern' Horizontal Kerning lookup 15-2" uniFE8B dx=-178 dy=0 dh=-178 dv=0 dx=0 dy=0 dh=0 dv=0
EndChar

StartChar: uniFEB2
Encoding: 65202 65202 189
GlifName: uniF_E_B_2
Width: 2559
VWidth: 2972
GlyphClass: 2
Flags: W
AnchorPoint: "Anchor-7" 671.902 -736.086 basechar 0
AnchorPoint: "Anchor-10" 1800.53 1110.1 basechar 0
LayerCount: 2
Fore
SplineSet
1544.55761719 224.9921875 m 0,0,1
 1626 225 1626 225 1664.04785156 263.303710938 c 0,2,3
 1702 302 1702 302 1701.96777344 386.374023438 c 0,4,5
 1702 412 1702 412 1701.77050781 432.673828125 c 0,6,7
 1702 453 1702 453 1701.15722656 467.840820312 c 0,8,9
 1701.00442738 478.685766251 1701.00442738 478.685766251 1700.15625 491.314453125 c 2,10,-1
 1694.66503906 573.07421875 l 1,11,-1
 1693.38964844 592.05859375 l 1,12,-1
 1712.28808594 594.27734375 l 1,13,-1
 1877.09472656 613.625 l 1,14,-1
 1897.92382812 616.0703125 l 1,15,-1
 1899.37890625 595.1484375 l 1,16,-1
 1915.453125 363.948242188 l 2,17,18
 1920 292 1920 292 1953.58398438 258.11328125 c 0,19,20
 1989 223 1989 223 2053.20996094 224.520507812 c 0,21,22
 2083 225 2083 225 2104.60449219 234.805664062 c 0,23,24
 2126 245 2126 245 2141.92480469 266.689453125 c 0,25,26
 2157 288 2157 288 2165.27246094 323.345703125 c 0,27,28
 2173 358 2173 358 2173.51269531 406.953125 c 0,29,30
 2173.9995757 470.94423363 2173.9995757 470.94423363 2168.52832031 532.419921875 c 2,31,-1
 2163.11035156 593.296875 l 1,32,-1
 2161.38769531 612.65234375 l 1,33,-1
 2180.68457031 614.932617188 l 1,34,-1
 2345.51269531 634.405273438 l 1,35,-1
 2366.04589844 636.831054688 l 1,36,-1
 2367.78808594 616.228515625 l 1,37,-1
 2383.77734375 427.133789062 l 2,38,39
 2393 322 2393 322 2433.828125 272.850585938 c 0,40,41
 2474.99185758 224.009661009 2474.99185758 224.009661009 2549.36230469 224 c 2,42,-1
 2579.43261719 223.99609375 l 5,43,-1
 2579.4453125 -0.056640625 l 5,44,-1
 2551.11425781 -0.056640625 l 2,45,46
 2366 -0 2366 -0 2299.5 118.799804688 c 1,47,48
 2220 0 2220 0 2062.5 0 c 0,49,50
 1879 0 1879 0 1808.33300781 123.217773438 c 1,51,52
 1774 82 1774 82 1733.16796875 54.640625 c 0,53,54
 1692 27 1692 27 1644.54199219 13.57421875 c 128,-1,55
 1597 -0 1597 -0 1542.79394531 -0.0810546875 c 0,56,57
 1491 -0 1491 -0 1447.00292969 9.640625 c 0,58,59
 1403 19 1403 19 1368.95507812 38.810546875 c 1,60,61
 1362 -104 1362 -104 1311.84472656 -205.751953125 c 0,62,63
 1157 -520 1157 -520 727.338867188 -519.724609375 c 0,64,65
 408 -520 408 -520 244.477539062 -368.444335938 c 128,-1,66
 81 -217 81 -217 81.7529296875 81.0673828125 c 0,67,68
 81.999989174 293.990669842 81.999989174 293.990669842 174.545898438 517.767578125 c 2,69,-1
 182.180664062 536.228515625 l 1,70,-1
 200.649414062 528.616210938 l 1,71,-1
 359.169921875 463.278320312 l 1,72,-1
 377.272460938 455.81640625 l 1,73,-1
 370.197265625 437.560546875 l 2,74,75
 298 251 298 251 298.268554688 82.869140625 c 0,76,77
 298 -112 298 -112 405.3359375 -207.6640625 c 0,78,79
 513 -303 513 -303 734.391601562 -303.203125 c 0,80,81
 950 -303 950 -303 1054.72070312 -198.263671875 c 0,82,83
 1160 -93 1160 -93 1160.5546875 121.982421875 c 0,84,85
 1161.00096732 301.388866168 1161.00096732 301.388866168 1072.46875 483.004882812 c 2,86,-1
 1062.61035156 503.228515625 l 1,87,-1
 1083.84960938 510.649414062 l 1,88,-1
 1256.49121094 570.966796875 l 1,89,-1
 1275.8125 577.716796875 l 1,90,-1
 1282.11621094 558.245117188 l 1,91,-1
 1342.03515625 373.135742188 l 2,92,93
 1354 335 1354 335 1372.50488281 307.471679688 c 128,-1,94
 1391 280 1391 280 1415.95703125 261.298828125 c 0,95,96
 1441 243 1441 243 1473.03515625 233.95703125 c 128,-1,97
 1505 225 1505 225 1544.55761719 224.9921875 c 0,0,1
EndSplineSet
EndChar

StartChar: uniFEB3
Encoding: 65203 65203 190
GlifName: uniF_E_B_3
Width: 1569
VWidth: 2972
GlyphClass: 2
Flags: W
AnchorPoint: "Anchor-10" 859.961 1103.67 basechar 0
AnchorPoint: "Anchor-7" 759.534 -216.974 basechar 0
LayerCount: 2
Fore
SplineSet
797.54296875 354.905273438 m 4,0,1
 803 382 803 382 802.953125 421.454101562 c 4,2,3
 803.000467942 465.434708304 803.000467942 465.434708304 798.860351562 511.981445312 c 6,4,-1
 793.459960938 572.697265625 l 5,5,-1
 791.736328125 592.065429688 l 5,6,-1
 811.049804688 594.33203125 l 5,7,-1
 975.775390625 613.665039062 l 5,8,-1
 996.603515625 616.110351562 l 5,9,-1
 998.05859375 595.188476562 l 5,10,-1
 1014.13085938 364.001953125 l 6,11,12
 1019 291 1019 291 1052.33300781 258.131835938 c 4,13,14
 1087 224 1087 224 1151.49511719 224.538085938 c 4,15,16
 1191 225 1191 225 1216.2734375 243.887695312 c 4,17,18
 1242 263 1242 263 1256.00585938 306.740234375 c 4,19,20
 1270 350 1270 350 1269.98632812 419.401367188 c 4,21,22
 1270.00002184 519.159099064 1270.00002184 519.159099064 1226.76855469 668.754882812 c 6,23,-1
 1221.10449219 688.354492188 l 5,24,-1
 1240.81347656 693.627929688 l 5,25,-1
 1411.76464844 739.368164062 l 5,26,-1
 1430.22753906 744.30859375 l 5,27,-1
 1436 726.087890625 l 6,28,29
 1487 565 1487 565 1486.01953125 425.919921875 c 4,30,31
 1486 423 1486 423 1486 420.456054688 c 4,32,33
 1485 184 1485 184 1357.53125 72.2060546875 c 4,34,35
 1277 1 1277 1 1154.72460938 0.9931640625 c 4,36,37
 978 1 978 1 907.004882812 123.564453125 c 5,38,39
 803 0 803 0 636.321289062 0 c 4,40,41
 444 1 444 1 369.94140625 121.57421875 c 5,42,43
 277 0 277 0 48.849609375 0 c 6,44,-1
 -20.9384765625 0 l 1,45,-1
 -20.9384765625 223.999023438 l 1,46,-1
 51.00390625 223.999023438 l 6,47,48
 180 224 180 224 232.5859375 282.6953125 c 4,49,50
 258 311 258 311 267.344726562 355.104492188 c 4,51,52
 273 382 273 382 272.716796875 421.467773438 c 4,53,54
 272.998718223 462.81202523 272.998718223 462.81202523 268.624023438 511.99609375 c 6,55,-1
 263.223632812 572.711914062 l 5,56,-1
 261.5 592.080078125 l 5,57,-1
 280.813476562 594.346679688 l 5,58,-1
 445.5390625 613.6796875 l 5,59,-1
 466.3671875 616.125 l 5,60,-1
 467.822265625 595.203125 l 5,61,-1
 483.892578125 364.037109375 l 6,62,63
 489 292 489 292 526.047851562 257.833007812 c 4,64,65
 563 224 563 224 638.07421875 224.073242188 c 4,66,67
 684 224 684 224 716.265625 238.08984375 c 4,68,69
 748 252 748 252 768.552734375 280.990234375 c 132,-1,70
 789 310 789 310 797.54296875 354.905273438 c 4,0,1
EndSplineSet
EndChar

StartChar: uniFEB4
Encoding: 65204 65204 191
GlifName: uniF_E_B_4
Width: 1658
VWidth: 2965
GlyphClass: 2
Flags: W
AnchorPoint: "Anchor-7" 759.534 -216.974 basechar 0
AnchorPoint: "Anchor-10" 873.961 1103.67 basechar 0
LayerCount: 2
Fore
SplineSet
1014.12988281 364.018554688 m 6,0,1
 1016.44937966 330.654839872 1016.44937966 330.654839872 1026.20605469 301.33203125 c 4,2,3
 1036 275 1036 275 1053.02539062 258.03515625 c 132,-1,4
 1070 241 1070 241 1095.06640625 232.818359375 c 4,5,6
 1120 225 1120 225 1153.36621094 224.579101562 c 4,7,8
 1213 225 1213 225 1243.08398438 267.225585938 c 4,9,10
 1273 310 1273 310 1272.38769531 404.139648438 c 4,11,12
 1272.00114802 481.769444866 1272.00114802 481.769444866 1267.48828125 532.4765625 c 6,13,-1
 1262.0703125 593.353515625 l 5,14,-1
 1260.34765625 612.708984375 l 5,15,-1
 1279.64453125 614.989257812 l 5,16,-1
 1444.47265625 634.461914062 l 5,17,-1
 1465.00585938 636.887695312 l 5,18,-1
 1466.74804688 616.28515625 l 5,19,-1
 1482.73632812 427.192382812 l 6,20,21
 1492 322 1492 322 1532.81054688 272.837890625 c 4,22,23
 1574.00571666 223.993221819 1574.00571666 223.993221819 1648.31640625 223.998046875 c 6,24,-1
 1678.39648438 224 l 5,25,-1
 1678.40527344 0 l 5,26,-1
 1650.08007812 0 l 6,27,28
 1464 0 1464 0 1398.296875 118.752929688 c 5,29,30
 1318 0 1318 0 1154 0 c 4,31,32
 985 0 985 0 907.880859375 124.614257812 c 5,33,34
 804 0 804 0 636.321289062 0 c 4,35,36
 444 1 444 1 369.94140625 121.57421875 c 5,37,38
 277 0 277 0 48.849609375 0 c 6,39,-1
 -20.9384765625 0 l 1,40,41
 -20.9384765625 223.999023438 l 1,42,-1
 51.00390625 223.999023438 l 6,43,44
 149 224 149 224 201.827148438 256.715820312 c 4,45,46
 255 289 255 289 268.352539062 355.142578125 c 4,47,48
 273 377 273 377 272.716796875 421.475585938 c 4,49,50
 273 442 273 442 271.836914062 464.786132812 c 4,51,52
 270.890455501 486.514921831 270.890455501 486.514921831 268.624023438 511.99609375 c 6,53,-1
 263.223632812 572.711914062 l 5,54,-1
 261.5 592.080078125 l 5,55,-1
 280.813476562 594.346679688 l 5,56,-1
 445.5390625 613.6796875 l 5,57,-1
 466.3671875 616.125 l 5,58,-1
 467.822265625 595.203125 l 5,59,-1
 483.892578125 364.037109375 l 6,60,61
 487 316 487 316 504.71484375 284.795898438 c 4,62,63
 522 254 522 254 555.028320312 239.026367188 c 132,-1,64
 588 224 588 224 638.07421875 224.073242188 c 4,65,66
 707 224 707 224 746.254882812 255.798828125 c 4,67,68
 785 288 785 288 798.543945312 354.908203125 c 4,69,70
 803 377 803 377 802.953125 421.455078125 c 4,71,72
 803 443 803 443 801.954101562 466.0703125 c 4,73,74
 800.913436412 488.898905647 800.913436412 488.898905647 798.860351562 511.981445312 c 6,75,-1
 793.459960938 572.697265625 l 5,76,-1
 791.736328125 592.065429688 l 5,77,-1
 811.049804688 594.33203125 l 5,78,-1
 975.775390625 613.665039062 l 5,79,-1
 996.603515625 616.110351562 l 5,80,-1
 998.05859375 595.188476562 l 5,81,-1
 1014.12988281 364.018554688 l 6,0,1
EndSplineSet
EndChar

StartChar: uniFEBA
Encoding: 65210 65210 197
GlifName: uniF_E_B_A_
Width: 2616
VWidth: 2972
GlyphClass: 2
Flags: W
AnchorPoint: "Anchor-7" 723.902 -692.086 basechar 0
AnchorPoint: "Anchor-10" 2048.53 1233.1 basechar 0
LayerCount: 2
Fore
SplineSet
1414.13476562 256.010742188 m 1,0,1
 1762 837 1762 837 2109.66113281 831.422851562 c 0,2,3
 2186 830 2186 830 2250.99511719 808.299804688 c 0,4,5
 2316 786 2316 786 2366.75976562 743.939453125 c 0,6,7
 2504 630 2504 630 2504.59667969 443.802734375 c 0,8,9
 2505 329 2505 329 2444.6875 235.884765625 c 1,10,11
 2489 224 2489 224 2605.73828125 224 c 2,12,-1
 2636.37109375 224 l 5,13,-1
 2636.41210938 0 l 5,14,-1
 2600.2265625 0 l 2,15,16
 2366 0 2366 0 2253.00292969 83.890625 c 1,17,18
 2091 0 2091 0 1763.15136719 0 c 2,19,-1
 1712.34082031 0 l 2,20,21
 1487 0 1487 0 1369.25195312 45.7353515625 c 1,22,23
 1364 -99 1364 -99 1311.84472656 -205.751953125 c 0,24,25
 1157 -520 1157 -520 727.338867188 -519.724609375 c 0,26,27
 408 -520 408 -520 244.477539062 -368.444335938 c 128,-1,28
 81 -217 81 -217 81.7529296875 81.0673828125 c 0,29,30
 81.999989174 293.990669842 81.999989174 293.990669842 174.545898438 517.767578125 c 2,31,-1
 182.180664062 536.228515625 l 1,32,-1
 200.649414062 528.616210938 l 1,33,-1
 359.169921875 463.278320312 l 1,34,-1
 377.272460938 455.81640625 l 1,35,-1
 370.197265625 437.560546875 l 2,36,37
 298 251 298 251 298.268554688 82.869140625 c 0,38,39
 298 -112 298 -112 405.3359375 -207.6640625 c 0,40,41
 513 -303 513 -303 734.391601562 -303.203125 c 0,42,43
 950 -303 950 -303 1054.72070312 -198.263671875 c 0,44,45
 1160 -93 1160 -93 1160.5546875 121.982421875 c 0,46,47
 1161.00096732 301.388866168 1161.00096732 301.388866168 1072.46875 483.004882812 c 2,48,-1
 1062.61035156 503.228515625 l 1,49,-1
 1083.84960938 510.649414062 l 1,50,-1
 1256.49121094 570.966796875 l 1,51,-1
 1275.8125 577.716796875 l 1,52,-1
 1282.11621094 558.245117188 l 1,53,-1
 1342.03710938 373.129882812 l 2,54,55
 1374 273 1374 273 1414.13476562 256.010742188 c 1,0,1
2111.96777344 604.57421875 m 0,56,57
 2009.49707031 605.211914062 2009.49707031 605.211914062 1893.45703125 510.556640625 c 128,-1,58
 1777.41601562 415.901367188 1777.41601562 415.901367188 1651.43457031 224.447265625 c 1,59,-1
 1758.73828125 224.534179688 l 2,60,61
 2282.05761719 224.982421875 2282.05761719 224.982421875 2282.66113281 435.440429688 c 0,62,63
 2282.96484375 526.533203125 2282.96484375 526.533203125 2213.64355469 574.424804688 c 0,64,65
 2170.69140625 604.0546875 2170.69140625 604.0546875 2111.96777344 604.57421875 c 0,56,57
EndSplineSet
EndChar

StartChar: uniFEBB
Encoding: 65211 65211 198
GlifName: uniF_E_B_B_
Width: 1680
VWidth: 2972
GlyphClass: 2
Flags: W
AnchorPoint: "Anchor-10" 1118.91 1222.52 basechar 0
AnchorPoint: "Anchor-7" 699.209 -220.348 basechar 0
LayerCount: 2
Fore
SplineSet
1597.57910156 443.73046875 m 0,0,1
 1597 221 1597 221 1408.68457031 110.444335938 c 0,2,3
 1221 0 1221 0 856.133789062 0 c 2,4,-1
 805.323242188 0 l 2,5,6
 454 0 454 0 347.325195312 131.724609375 c 1,7,8
 234 0 234 0 9.984375 0 c 2,9,-1
 -20.9384765625 0 l 5,10,-1
 -19.9384765625 224 l 5,11,-1
 10.1103515625 224 l 2,12,13
 82 224 82 224 130.453125 237.788085938 c 0,14,15
 179 252 179 252 204.505859375 276.889648438 c 0,16,17
 230 302 230 302 236.899414062 339.8984375 c 0,18,19
 247.947284445 394.738328279 247.947284445 394.738328279 240.049804688 512.340820312 c 2,20,-1
 234.559570312 594.096679688 l 1,21,-1
 233.284179688 613.08203125 l 1,22,-1
 252.182617188 615.299804688 l 1,23,-1
 416.989257812 634.647460938 l 1,24,-1
 437.666992188 637.075195312 l 1,25,-1
 439.262695312 616.317382812 l 1,26,-1
 457.109375 384.16796875 l 2,27,28
 465 282 465 282 508.177734375 257.798828125 c 1,29,30
 855 837 855 837 1202.64355469 831.422851562 c 0,31,32
 1357 829 1357 829 1459.74121094 743.940429688 c 0,33,34
 1598 629 1598 629 1597.57910156 443.73046875 c 0,0,1
1204.99316406 604.573242188 m 0,35,36
 996.395507812 604.963867188 996.395507812 604.963867188 744.538085938 224.447265625 c 1,37,-1
 851.720703125 224.534179688 l 2,38,39
 1375.05566406 224.982421875 1375.05566406 224.982421875 1375.64355469 435.444335938 c 0,40,41
 1375.69824219 451.005859375 1375.69824219 451.005859375 1373.84667969 465.107421875 c 128,-1,42
 1371.99414062 479.208007812 1371.99414062 479.208007812 1368.19628906 491.981445312 c 128,-1,43
 1364.3984375 504.754882812 1364.3984375 504.754882812 1358.69042969 516.198242188 c 128,-1,44
 1352.98339844 527.642578125 1352.98339844 527.642578125 1345.26953125 537.920898438 c 128,-1,45
 1337.5546875 548.198242188 1337.5546875 548.198242188 1327.93261719 557.276367188 c 128,-1,46
 1318.30957031 566.354492188 1318.30957031 566.354492188 1306.62304688 574.426757812 c 0,47,48
 1263.68945312 604.0546875 1263.68945312 604.0546875 1204.99316406 604.573242188 c 0,35,36
EndSplineSet
EndChar

StartChar: uniFEBC
Encoding: 65212 65212 199
GlifName: uniF_E_B_C_
Width: 1719
VWidth: 2972
GlyphClass: 2
Flags: W
AnchorPoint: "Anchor-7" 699.209 -220.348 basechar 0
AnchorPoint: "Anchor-10" 1148.91 1222.52 basechar 0
LayerCount: 2
Fore
SplineSet
1597.57910156 443.859375 m 0,0,1
 1598.4200144 330.260050061 1598.4200144 330.260050061 1537.67382812 235.885742188 c 1,2,3
 1559 230 1559 230 1599.6953125 227.067382812 c 0,4,5
 1640 224 1640 224 1698.72070312 224 c 2,6,-1
 1739.35351562 224 l 1,7,-1
 1739.39453125 0 l 1,8,-1
 1693.20898438 0 l 2,9,10
 1459 0 1459 0 1345.98632812 83.890625 c 1,11,12
 1184 0 1184 0 856.133789062 0 c 2,13,-1
 805.323242188 0 l 2,14,15
 457 0 457 0 347.606445312 132.051757812 c 1,16,17
 234 0 234 0 9.984375 0 c 2,18,-1
 -20.9384765625 0 l 1,19,-1
 -20.9384765625 224 l 1,20,-1
 9.1103515625 224 l 2,21,22
 116 224 116 224 171.216796875 253.463867188 c 0,23,24
 226 283 226 283 236.899414062 339.8984375 c 0,25,26
 247.947284445 394.738328279 247.947284445 394.738328279 240.049804688 512.340820312 c 2,27,-1
 234.559570312 594.096679688 l 1,28,-1
 233.284179688 613.08203125 l 1,29,-1
 252.182617188 615.299804688 l 1,30,-1
 416.989257812 634.647460938 l 1,31,-1
 437.666992188 637.075195312 l 1,32,-1
 439.262695312 616.317382812 l 1,33,-1
 457.109375 384.16796875 l 2,34,35
 459 354 459 354 463.849609375 335.172851562 c 0,36,37
 469 313 469 313 475.387695312 298.182617188 c 0,38,39
 482 283 482 283 490.362304688 273.092773438 c 0,40,41
 499 263 499 263 508.2109375 257.780273438 c 1,42,43
 857 837 857 837 1202.64160156 831.422851562 c 0,44,45
 1280 830 1280 830 1344.50390625 808.288085938 c 0,46,47
 1409 786 1409 786 1459.78027344 743.908203125 c 0,48,49
 1528 687 1528 687 1562.63964844 611.958007812 c 0,50,51
 1597 536 1597 536 1597.57910156 443.859375 c 0,0,1
1204.86132812 604.57421875 m 0,52,53
 1103.34960938 606.106445312 1103.34960938 606.106445312 987.387695312 511.51953125 c 128,-1,54
 871.426757812 416.931640625 871.426757812 416.931640625 744.466796875 224.447265625 c 1,55,-1
 851.720703125 224.534179688 l 2,56,57
 1375.05566406 224.982421875 1375.05566406 224.982421875 1375.64355469 435.444335938 c 0,58,59
 1375.69824219 451.005859375 1375.69824219 451.005859375 1373.84667969 465.107421875 c 128,-1,60
 1371.99414062 479.208007812 1371.99414062 479.208007812 1368.19628906 491.981445312 c 128,-1,61
 1364.3984375 504.754882812 1364.3984375 504.754882812 1358.69042969 516.198242188 c 128,-1,62
 1352.98339844 527.642578125 1352.98339844 527.642578125 1345.26953125 537.920898438 c 128,-1,63
 1337.5546875 548.198242188 1337.5546875 548.198242188 1327.93261719 557.276367188 c 128,-1,64
 1318.30957031 566.354492188 1318.30957031 566.354492188 1306.62304688 574.426757812 c 0,65,66
 1263.68945312 604.0546875 1263.68945312 604.0546875 1204.86132812 604.57421875 c 0,52,53
EndSplineSet
EndChar

StartChar: uniFEC2
Encoding: 65218 65218 205
GlifName: uniF_E_C_2
Width: 1515
VWidth: 2972
GlyphClass: 2
Flags: W
AnchorPoint: "Anchor-7" 641.602 -216.453 basechar 0
AnchorPoint: "Anchor-10" 475.36 1506.78 basechar 0
LayerCount: 2
Fore
SplineSet
1003.62109375 831.423828125 m 0,0,1
 1157 830 1157 830 1260.84667969 743.934570312 c 0,2,3
 1329 687 1329 687 1363.69628906 611.962890625 c 0,4,5
 1398 536 1398 536 1398.67773438 443.846679688 c 0,6,7
 1399 334 1399 334 1337.63867188 234.345703125 c 1,8,9
 1381 224 1381 224 1504.70800781 224 c 2,10,-1
 1535.34082031 224 l 1,11,12
 1535.38183594 -0.0009765625 l 1,13,-1
 1499.19628906 -0.0009765625 l 2,14,15
 1371 -0 1371 -0 1280.27441406 19.263671875 c 0,16,17
 1189 39 1189 39 1133.84765625 78.1552734375 c 1,18,19
 1053 38 1053 38 934.904296875 19.2099609375 c 0,20,21
 816.992297574 -0.00125494403468 816.992297574 -0.00125494403468 658.232421875 -0.0009765625 c 2,22,-1
 101.302734375 0 l 1,23,-1
 81.302734375 0 l 1,24,-1
 81.302734375 20 l 1,25,-1
 81.302734375 204.221679688 l 1,26,-1
 81.302734375 224.208007812 l 1,27,-1
 101.2890625 224.221679688 l 1,28,-1
 312.434570312 224.370117188 l 1,29,-1
 374.638671875 324.40234375 l 1,30,-1
 374.638671875 1370.87304688 l 5,31,-1
 374.638671875 1390.87304688 l 5,32,-1
 394.638671875 1390.87304688 l 5,33,-1
 568.950195312 1390.87304688 l 5,34,-1
 588.950195312 1390.87304688 l 5,35,-1
 588.950195312 1370.87304688 l 5,36,-1
 588.950195312 618.915039062 l 1,37,38
 685 726 685 726 788.141601562 779.391601562 c 0,39,40
 892 833 892 833 1003.62109375 831.423828125 c 0,0,1
1006.37597656 604.573242188 m 0,41,42
 788.974609375 602.215820312 788.974609375 602.215820312 546.0625 224.533203125 c 1,43,-1
 653.819335938 224.533203125 l 2,44,45
 1176.06445312 224.982421875 1176.06445312 224.982421875 1176.7421875 435.423828125 c 0,46,47
 1176.97363281 526.533203125 1176.97363281 526.533203125 1107.76367188 574.396484375 c 0,48,49
 1092.75683594 584.619140625 1092.75683594 584.619140625 1076.63183594 591.34765625 c 128,-1,50
 1060.50683594 598.077148438 1060.50683594 598.077148438 1042.9609375 601.389648438 c 128,-1,51
 1025.4140625 604.703125 1025.4140625 604.703125 1006.37597656 604.573242188 c 0,41,42
EndSplineSet
EndChar

StartChar: uniFEC3
Encoding: 65219 65219 206
GlifName: uniF_E_C_3
Width: 1300
VWidth: 2972
GlyphClass: 2
Flags: W
AnchorPoint: "Anchor-7" 481.602 -216.453 basechar 0
AnchorPoint: "Anchor-10" 292.36 1505.78 basechar 0
LayerCount: 2
Fore
SplineSet
1217.015625 443.78125 m 0,0,1
 1217 221 1217 221 1028.92675781 110.432617188 c 128,-1,2
 840.965381804 -0.0203429144916 840.965381804 -0.0203429144916 475.5703125 -0.01171875 c 2,3,-1
 -20.9384765625 0 l 1,4,5
 -20.943359375 224 l 1,6,-1
 128.296875 224 l 1,7,-1
 192.9765625 323.793945312 l 1,8,-1
 192.9765625 1370.87402344 l 1,9,-1
 192.9765625 1390.87402344 l 1,10,-1
 212.9765625 1390.87402344 l 1,11,-1
 386.288085938 1390.87402344 l 1,12,-1
 406.288085938 1390.87402344 l 1,13,-1
 406.288085938 1370.87402344 l 1,14,-1
 406.288085938 618.306640625 l 1,15,16
 502 724 502 724 605.752929688 777.62890625 c 0,17,18
 712 832 712 832 821.8125 831.4140625 c 0,19,20
 976 830 976 830 1079.21875 743.895507812 c 0,21,22
 1217 629 1217 629 1217.015625 443.78125 c 0,0,1
824.474609375 604.561523438 m 0,23,24
 720.841796875 604.309570312 720.841796875 604.309570312 604.720703125 509.609375 c 128,-1,25
 488.598632812 414.909179688 488.598632812 414.909179688 363.779296875 224.522460938 c 1,26,-1
 471.157226562 224.522460938 l 2,27,28
 995.006835938 224.982421875 995.006835938 224.982421875 995.080078125 435.346679688 c 0,29,30
 995.04296875 481.845703125 995.04296875 481.845703125 977.973632812 516.03125 c 128,-1,31
 960.903320312 550.217773438 960.903320312 550.217773438 926.068359375 574.408203125 c 0,32,33
 882.734375 604.053710938 882.734375 604.053710938 824.474609375 604.561523438 c 0,23,24
EndSplineSet
EndChar

StartChar: uniFEC4
Encoding: 65220 65220 207
GlifName: uniF_E_C_4
Width: 1332
VWidth: 2972
GlyphClass: 2
Flags: W
AnchorPoint: "Anchor-10" 289.36 1503.78 basechar 0
AnchorPoint: "Anchor-7" 481.602 -216.453 basechar 0
LayerCount: 2
Fore
SplineSet
1352.71289062 0 m 9,0,-1
 1316.52734375 0 l 2,1,2
 1060 0 1060 0 951.15234375 78.154296875 c 1,3,4
 792 0 792 0 475.563476562 0 c 2,5,-1
 -20.9384765625 0 l 1,6,7
 -20.943359375 224 l 1,8,-1
 129.825195312 224 l 1,9,-1
 192.9765625 324.45703125 l 1,10,-1
 192.9765625 1370.87402344 l 5,11,-1
 192.9765625 1390.87402344 l 5,12,-1
 212.9765625 1390.87402344 l 5,13,-1
 386.290039062 1390.87402344 l 5,14,-1
 406.290039062 1390.87402344 l 5,15,-1
 406.290039062 1370.87402344 l 5,16,-1
 406.288085938 618.1171875 l 1,17,18
 601 834 601 834 821.874023438 831.4140625 c 0,19,20
 975 830 975 830 1079.1875 743.920898438 c 0,21,22
 1217 629 1217 629 1217.015625 443.780273438 c 0,23,24
 1217 333 1217 333 1155.05078125 234.29296875 c 1,25,26
 1197.99592512 224.000976562 1197.99592512 224.000976562 1322.0390625 224.000976562 c 2,27,-1
 1352.67285156 224.000976562 l 17,28,-1
 1352.71289062 0 l 9,0,-1
824.474609375 604.561523438 m 0,29,30
 720.841796875 604.309570312 720.841796875 604.309570312 604.720703125 509.609375 c 128,-1,31
 488.598632812 414.909179688 488.598632812 414.909179688 363.779296875 224.522460938 c 1,32,-1
 471.157226562 224.522460938 l 2,33,34
 995.006835938 224.982421875 995.006835938 224.982421875 995.080078125 435.346679688 c 0,35,36
 995.04296875 481.845703125 995.04296875 481.845703125 977.973632812 516.03125 c 128,-1,37
 960.903320312 550.217773438 960.903320312 550.217773438 926.068359375 574.408203125 c 0,38,39
 882.734375 604.053710938 882.734375 604.053710938 824.474609375 604.561523438 c 0,29,30
EndSplineSet
EndChar

StartChar: uniFECA
Encoding: 65226 65226 213
GlifName: uniF_E_C_A_
Width: 1187
VWidth: 2972
GlyphClass: 2
Flags: W
AnchorPoint: "Anchor-7" 616.833 -870.619 basechar 0
AnchorPoint: "Anchor-10" 580.833 1246.24 basechar 0
LayerCount: 2
Fore
SplineSet
1187.34179688 0 m 1,0,-1
 1167.11914062 0 l 2,1,2
 883 0 883 0 586 207 c 5,3,4
 293 40 293 40 294.666015625 -176.09765625 c 0,5,6
 295 -215 295 -215 302.2421875 -247.422851562 c 0,7,8
 310 -280 310 -280 325.693359375 -308.03125 c 0,9,10
 341 -336 341 -336 365.487304688 -357.932617188 c 0,11,12
 389 -380 389 -380 422.18359375 -396.909179688 c 0,13,14
 455 -414 455 -414 496.245117188 -424.984375 c 0,15,16
 538 -436 538 -436 588.23046875 -441.94140625 c 0,17,18
 639 -448 639 -448 698.609375 -447.788085938 c 0,19,20
 862.02265928 -448.000029389 862.02265928 -448.000029389 1035.2890625 -376.543945312 c 2,21,-1
 1057.59765625 -367.34375 l 1,22,-1
 1062.49804688 -390.970703125 l 1,23,-1
 1098.58300781 -564.9375 l 1,24,-1
 1101.84570312 -580.6640625 l 1,25,-1
 1087.19335938 -587.244140625 l 2,26,27
 1030 -613 1030 -613 966.47265625 -629.8984375 c 0,28,29
 903 -647 903 -647 833.29296875 -655.188476562 c 0,30,31
 764 -663 764 -663 687.709960938 -663.228515625 c 0,32,33
 555 -663 555 -663 452.111328125 -637.626953125 c 0,34,35
 349 -613 349 -613 274.841796875 -562.59765625 c 0,36,37
 85 -436 85 -436 84.4033203125 -176.203125 c 0,38,39
 84 136 84 136 382.725585938 337.786132812 c 1,40,41
 122 498 122 498 122.228515625 651.422851562 c 0,42,43
 122 711 122 711 166.564453125 759.689453125 c 0,44,45
 211 808 211 808 295.51953125 844.740234375 c 0,46,47
 403 891 403 891 594.465820312 893.720703125 c 0,48,49
 616 894 616 894 635.677734375 893.213867188 c 0,50,51
 656 893 656 893 674.975585938 891.55859375 c 128,-1,52
 694 890 694 890 712.368164062 888.7421875 c 0,53,54
 731 887 731 887 747.844726562 884.75 c 0,55,56
 765 882 765 882 781.418945312 879.5703125 c 128,-1,57
 798 877 798 877 813.078125 873.186523438 c 0,58,59
 828 870 828 870 842.834960938 865.588867188 c 0,60,61
 857 861 857 861 870.678710938 856.76171875 c 0,62,63
 884 852 884 852 896.619140625 846.692382812 c 0,64,65
 1058 778 1058 778 1058.28808594 654.64453125 c 0,66,67
 1058 581 1058 581 984.739257812 500.228515625 c 0,68,69
 911 419 911 419 767.366210938 326.450195312 c 5,70,71
 933 224 933 224 1167.421875 224.458984375 c 2,72,-1
 1187.30078125 224.458984375 l 1,73,-1
 1207.29589844 224.458984375 l 1,74,-1
 1207.30078125 204.463867188 l 1,75,-1
 1207.34179688 20.0048828125 l 1,76,-1
 1207.34667969 0 l 1,77,-1
 1187.34179688 0 l 1,0,-1
581.583007812 464.258789062 m 1,78,79
 631.744140625 491.965820312 631.744140625 491.965820312 674.586914062 518.10546875 c 128,-1,80
 717.428710938 544.24609375 717.428710938 544.24609375 745.922851562 563.890625 c 128,-1,81
 774.416992188 583.53515625 774.416992188 583.53515625 794.896484375 599.778320312 c 128,-1,82
 815.375976562 616.022460938 815.375976562 616.022460938 824.862304688 626.049804688 c 128,-1,83
 834.34765625 636.078125 834.34765625 636.078125 835.123046875 640.870117188 c 0,84,85
 831.333007812 647.086914062 831.333007812 647.086914062 806.108398438 653.870117188 c 128,-1,86
 780.8828125 660.653320312 780.8828125 660.653320312 723.870117188 666.326171875 c 128,-1,87
 666.857421875 672 666.857421875 672 593 672 c 0,88,89
 508.106445312 672 508.106445312 672 449.845703125 663.853515625 c 128,-1,90
 391.584960938 655.708007812 391.584960938 655.708007812 371.434570312 646.583007812 c 128,-1,91
 351.28515625 637.458007812 351.28515625 637.458007812 351.328125 629.133789062 c 128,-1,92
 351.278320312 620.963867188 351.278320312 620.963867188 373.270507812 600.271484375 c 128,-1,93
 395.262695312 579.579101562 395.262695312 579.579101562 450.446289062 542.47265625 c 128,-1,94
 505.630859375 505.366210938 505.630859375 505.366210938 581.583007812 464.258789062 c 1,78,79
EndSplineSet
EndChar

StartChar: uniFECB
Encoding: 65227 65227 214
GlifName: uniF_E_C_B_
Width: 1059
VWidth: 2972
GlyphClass: 2
Flags: W
AnchorPoint: "Anchor-10" 550.493 1209.05 basechar 0
AnchorPoint: "Anchor-7" 484.511 -215.021 basechar 0
LayerCount: 2
Fore
SplineSet
850.145507812 588.8125 m 2,0,1
 792.021545618 636.561786014 792.021545618 636.561786014 732.072265625 662.278320312 c 0,2,3
 671 688 671 688 616.323242188 687.301757812 c 0,4,5
 601 687 601 687 586.91796875 686.497070312 c 128,-1,6
 573 686 573 686 559.178710938 683.427734375 c 0,7,8
 546 681 546 681 533.151367188 678.139648438 c 0,9,10
 521 675 521 675 508.72265625 670.653320312 c 0,11,12
 485 662 485 662 465.081054688 649.649414062 c 0,13,14
 445 637 445 637 428.111328125 620.776367188 c 0,15,16
 396 589 396 589 379.118164062 549.385742188 c 0,17,18
 375 540 375 540 372.10546875 529.36328125 c 0,19,20
 369 519 369 519 366.983398438 508.147460938 c 0,21,22
 365 497 365 497 363.796875 485.770507812 c 0,23,24
 363 474 363 474 362.602539062 462.391601562 c 0,25,26
 363 401 363 401 398.249023438 352.944335938 c 0,27,28
 434 305 434 305 507.6875 268.767578125 c 0,29,30
 522.577126843 261.214511039 522.577126843 261.214511039 524.087890625 261.598632812 c 2,31,-1
 956.141601562 371.451171875 l 1,32,-1
 981.0703125 377.790039062 l 1,33,-1
 981.0703125 352.068359375 l 1,34,-1
 981.0703125 168.317382812 l 1,35,-1
 981.0703125 153.600585938 l 1,36,-1
 967.01953125 149.22265625 l 2,37,38
 487.670240462 -0.102725653197 487.670240462 -0.102725653197 85.43359375 -0.021484375 c 2,39,-1
 -20.9384765625 0 l 5,40,-1
 -20.9453125 224.458984375 l 5,41,-1
 229.94921875 224.461914062 l 1,42,43
 224 232 224 232 218.248046875 240.1796875 c 0,44,45
 213 248 213 248 207.168945312 256.321289062 c 0,46,47
 178 301 178 301 162.922851562 355.384765625 c 0,48,49
 148 409 148 409 148.720703125 472.10546875 c 0,50,51
 150 643 150 643 242.462890625 759.33203125 c 0,52,53
 292 822 292 822 366.193359375 861.7265625 c 0,54,55
 463 914 463 914 591.698242188 913.232421875 c 0,56,57
 805.498502404 912.002884048 805.498502404 912.002884048 944.274414062 768.212890625 c 2,58,-1
 953.653320312 758.495117188 l 1,59,-1
 948.14453125 746.165039062 l 1,60,-1
 881.1015625 596.108398438 l 1,61,-1
 870.405273438 572.168945312 l 1,62,-1
 850.145507812 588.8125 l 2,0,1
EndSplineSet
EndChar

StartChar: uniFECC
Encoding: 65228 65228 215
GlifName: uniF_E_C_C_
Width: 1151
VWidth: 2972
GlyphClass: 2
Flags: W
AnchorPoint: "Anchor-7" 584.511 -215.021 basechar 0
AnchorPoint: "Anchor-10" 611.107 1180.89 basechar 0
LayerCount: 2
Fore
SplineSet
798.201171875 253.8671875 m 1,0,1
 878.018264184 223.993164062 878.018264184 223.993164062 1054.80175781 223.993164062 c 2,2,-1
 1151.37792969 223.993164062 l 1,3,-1
 1171.37792969 223.993164062 l 1,4,-1
 1171.37792969 203.993164062 l 1,5,-1
 1171.37695312 20 l 1,6,-1
 1171.37695312 0 l 1,7,-1
 1151.37695312 0 l 1,8,-1
 1055.1875 0 l 2,9,10
 918 0 918 0 808.231445312 29.3818359375 c 0,11,12
 699 59 699 59 617.6015625 117.6953125 c 1,13,14
 467 0 467 0 97.048828125 0 c 2,15,-1
 -20.9384765625 0 l 1,16,-1
 -20.9384765625 0 l 5,17,-1
 -20.9384765625 20 l 5,18,-1
 -20.9384765625 203.993164062 l 5,19,-1
 -20.9384765625 223.993164062 l 5,20,-1
 -20.9384765625 223.993164062 l 1,21,-1
 100.412109375 223.993164062 l 2,22,23
 337 224 337 224 422.913085938 253.517578125 c 1,24,25
 148 417 148 417 148.196289062 580.962890625 c 0,26,27
 148 698 148 698 318.140625 773.970703125 c 0,28,29
 431 825 431 825 618.955078125 825.635742188 c 0,30,31
 801 827 801 827 922.51171875 776.041992188 c 0,32,33
 1084 708 1084 708 1084.2109375 585.974609375 c 0,34,35
 1084 535 1084 535 1050.56542969 480.05859375 c 128,-1,36
 1017 425 1017 425 954.577148438 370.178710938 c 0,37,38
 892 315 892 315 798.201171875 253.8671875 c 1,0,1
850.026367188 559.981445312 m 0,39,40
 849.911132812 568.06640625 849.911132812 568.06640625 830.104492188 576.979492188 c 128,-1,41
 810.297851562 585.891601562 810.297851562 585.891601562 753.313476562 593.833007812 c 128,-1,42
 696.329101562 601.7734375 696.329101562 601.7734375 613.612304688 601.665039062 c 0,43,44
 562.294921875 601.732421875 562.294921875 601.732421875 520.361328125 598.631835938 c 128,-1,45
 478.426757812 595.53125 478.426757812 595.53125 452.588867188 590.748046875 c 128,-1,46
 426.750976562 585.963867188 426.750976562 585.963867188 409.104492188 579.887695312 c 128,-1,47
 391.458007812 573.811523438 391.458007812 573.811523438 384.403320312 568.311523438 c 128,-1,48
 377.34765625 562.811523438 377.34765625 562.811523438 377.293945312 557.893554688 c 0,49,50
 377.104492188 543.04296875 377.104492188 543.04296875 402.526367188 517.026367188 c 0,51,52
 460.385742188 455.174804688 460.385742188 455.174804688 613.463867188 376.44140625 c 1,53,54
 648.06640625 395.18359375 648.06640625 395.18359375 678.490234375 413.833984375 c 128,-1,55
 708.9140625 432.484375 708.9140625 432.484375 735.135742188 451.022460938 c 128,-1,56
 761.356445312 469.559570312 761.356445312 469.559570312 783.506835938 487.98046875 c 128,-1,57
 805.657226562 506.401367188 805.657226562 506.401367188 824.044921875 524.9296875 c 0,58,59
 848.858398438 550.055664062 848.858398438 550.055664062 850.026367188 559.981445312 c 0,39,40
EndSplineSet
EndChar

StartChar: uniFEDA
Encoding: 65242 65242 229
GlifName: uniF_E_D_A_
Width: 2001
VWidth: 2972
GlyphClass: 2
Flags: W
AnchorPoint: "Anchor-10" 948.11 1432.05 basechar 0
AnchorPoint: "Anchor-7" 750.268 -216.468 basechar 0
LayerCount: 2
Fore
SplineSet
688.282226562 701.901367188 m 2,0,1
 781.170898438 691.98828125 781.170898438 691.98828125 848.673828125 691.266601562 c 0,2,3
 951.088867188 691.009765625 951.088867188 691.009765625 1000.90136719 711.40234375 c 0,4,5
 1042.21289062 728.465820312 1042.21289062 728.465820312 1042.74804688 761.861328125 c 0,6,7
 1042.8515625 779.568359375 1042.8515625 779.568359375 1037.18066406 792.35546875 c 128,-1,8
 1031.50976562 805.142578125 1031.50976562 805.142578125 1019.26953125 815.299804688 c 0,9,10
 993.326171875 838.01171875 993.326171875 838.01171875 938.215820312 845.658203125 c 0,11,12
 825.467773438 862.799804688 825.467773438 862.799804688 767.135742188 921.916015625 c 128,-1,13
 708.803710938 981.032226562 708.803710938 981.032226562 710.935546875 1078.95507812 c 0,14,15
 716.451171875 1303.61425781 716.451171875 1303.61425781 1122.140625 1333.49902344 c 2,16,-1
 1143.61035156 1335.08007812 l 1,17,-1
 1143.61035156 1313.55273438 l 1,18,-1
 1143.61035156 1184.98925781 l 1,19,-1
 1143.61035156 1166.75195312 l 1,20,-1
 1125.45019531 1165.07421875 l 2,21,22
 1000.86230469 1153.56152344 1000.86230469 1153.56152344 942.4765625 1127.72949219 c 128,-1,23
 884.090820312 1101.89746094 884.090820312 1101.89746094 884.139648438 1070.44238281 c 0,24,25
 884.032226562 1013.16894531 884.032226562 1013.16894531 1005.96191406 994.5234375 c 0,26,27
 1108.42285156 978.732421875 1108.42285156 978.732421875 1162.06542969 920.586914062 c 128,-1,28
 1215.70703125 862.440429688 1215.70703125 862.440429688 1215.36425781 766.06640625 c 0,29,30
 1215.16601562 700.15234375 1215.16601562 700.15234375 1182.24511719 648.711914062 c 128,-1,31
 1149.32421875 597.272460938 1149.32421875 597.272460938 1085.99707031 562.692382812 c 0,32,33
 1006.10546875 518.997070312 1006.10546875 518.997070312 866.004882812 519.088867188 c 0,34,35
 838.748046875 519.05859375 838.748046875 519.05859375 809.294921875 520.78125 c 128,-1,36
 779.841796875 522.502929688 779.841796875 522.502929688 748.338867188 525.956054688 c 128,-1,37
 716.836914062 529.409179688 716.836914062 529.409179688 683.118164062 534.598632812 c 2,38,-1
 666.16015625 537.208984375 l 1,39,-1
 666.16015625 554.366210938 l 1,40,-1
 666.16015625 682.014648438 l 1,41,-1
 666.16015625 704.262695312 l 1,42,-1
 688.282226562 701.901367188 l 2,0,1
2008.875 0 m 9,43,-1
 1977.96875 0 l 2,44,45
 1709 0 1709 0 1626.16699219 195.081054688 c 1,46,47
 1419 0 1419 0 862.133789062 0 c 2,48,-1
 860.911132812 0 l 2,49,50
 476 0 476 0 277.879882812 126.299804688 c 0,51,52
 80 253 80 253 80.16015625 505.848632812 c 0,53,54
 79.9996761253 645.281397732 79.9996761253 645.281397732 136.416015625 770.975585938 c 2,55,-1
 144.5078125 789.00390625 l 1,56,-1
 338.241210938 714.834960938 l 1,57,-1
 330.9921875 696.787109375 l 2,58,59
 299 617 299 617 299.424804688 534.6171875 c 0,60,61
 300 380 300 380 433.072265625 302.17578125 c 0,62,63
 566 224 566 224 841.87109375 224.13671875 c 0,64,65
 1192 224 1192 224 1362.140625 292.927734375 c 0,66,67
 1531.82910156 361.852430882 1531.82910156 361.852430882 1531.82910156 491.963867188 c 2,68,-1
 1531.82910156 1390.56640625 l 5,69,-1
 1551.82910156 1390.56640625 l 5,70,-1
 1729.70996094 1390.56640625 l 5,71,-1
 1749.70996094 1390.56640625 l 5,72,-1
 1749.70996094 494.338867188 l 2,73,74
 1750 355 1750 355 1807.65332031 289.794921875 c 0,75,76
 1864.75656558 224.279296875 1864.75656558 224.279296875 1985.68261719 224.279296875 c 2,77,-1
 2008.84570312 224.279296875 l 17,78,-1
 2008.875 0 l 9,43,-1
EndSplineSet
EndChar

StartChar: uniFEDB
Encoding: 65243 65243 230
GlifName: uniF_E_D_B_
Width: 950
VWidth: 2972
GlyphClass: 2
Flags: W
AnchorPoint: "Anchor-7" 310.991 -211.935 basechar 0
AnchorPoint: "Anchor-10" 301.533 1475.33 basechar 0
LayerCount: 2
Fore
SplineSet
615.438476562 693.25390625 m 0,0,1
 751 547 751 547 748.21484375 370.002929688 c 0,2,3
 745 184 745 184 589.153320312 92.056640625 c 0,4,5
 433 0 433 0 135.612304688 0 c 2,6,-1
 -20.9384765625 0 l 5,7,-1
 -20.9384765625 223.993164062 l 5,8,-1
 134.782226562 223.993164062 l 2,9,10
 528 224 528 224 528.724609375 395.174804688 c 0,11,12
 529 484 529 484 431.528320312 575.515625 c 0,13,14
 279 718 279 718 159.6796875 811.245117188 c 0,15,16
 100 858 100 858 68.9267578125 908.794921875 c 0,17,18
 38 960 38 960 37.9189453125 1014.47070312 c 0,19,20
 38.000248986 1157.43782545 38.000248986 1157.43782545 191.014648438 1215.54296875 c 2,21,-1
 884.271484375 1478.79785156 l 1,22,-1
 911.37109375 1489.08886719 l 1,23,-1
 911.37109375 1460.10058594 l 1,24,-1
 911.37109375 1279.46289062 l 1,25,-1
 911.37109375 1265.57617188 l 1,26,-1
 898.359375 1260.72363281 l 1,27,-1
 257.73046875 1021.81640625 l 1,28,29
 339 953 339 953 405.40234375 894.46875 c 128,-1,30
 472 836 472 836 524.193359375 785.368164062 c 0,31,32
 577 735 577 735 615.438476562 693.25390625 c 0,0,1
EndSplineSet
EndChar

StartChar: uniFEDC
Encoding: 65244 65244 231
GlifName: uniF_E_D_C_
Width: 1027
VWidth: 2972
GlyphClass: 2
Flags: W
AnchorPoint: "Anchor-10" 254.533 1462.33 basechar 0
AnchorPoint: "Anchor-7" 310.991 -211.935 basechar 0
LayerCount: 2
Fore
SplineSet
257.73046875 1021.81640625 m 1,0,1
 491 826 491 826 615.435546875 693.256835938 c 0,2,3
 658 648 658 648 690.943359375 589.78515625 c 0,4,5
 724 532 724 532 748.947265625 461.49609375 c 0,6,7
 832 224 832 224 1017.9140625 224 c 2,8,-1
 1047.24707031 224 l 1,9,-1
 1047.24609375 0 l 1,10,-1
 1017.80761719 0 l 2,11,12
 805 0 805 0 669.684570312 163.5078125 c 1,13,14
 539 0 539 0 135.612304688 0 c 2,15,-1
 -20.9384765625 0 l 5,16,17
 -20.9384765625 223.993164062 l 5,18,-1
 134.782226562 223.993164062 l 2,19,20
 528 224 528 224 528.724609375 395.174804688 c 0,21,22
 529 484 529 484 431.528320312 575.515625 c 0,23,24
 279 718 279 718 159.6796875 811.245117188 c 0,25,26
 100 858 100 858 68.9267578125 908.794921875 c 0,27,28
 38 960 38 960 37.9189453125 1014.47070312 c 0,29,30
 38.000248986 1157.43782545 38.000248986 1157.43782545 191.014648438 1215.54296875 c 2,31,-1
 884.271484375 1478.79785156 l 1,32,-1
 911.37109375 1489.08886719 l 1,33,-1
 911.37109375 1460.10058594 l 1,34,-1
 911.37109375 1279.46289062 l 1,35,-1
 911.37109375 1265.57617188 l 1,36,-1
 898.359375 1260.72363281 l 1,37,-1
 257.73046875 1021.81640625 l 1,0,1
EndSplineSet
EndChar

StartChar: uniFEDE
Encoding: 65246 65246 233
GlifName: uniF_E_D_E_
Width: 1476
VWidth: 2972
GlyphClass: 2
Flags: W
AnchorPoint: "Anchor-7" 675.902 -712.086 basechar 0
AnchorPoint: "Anchor-10" 593.908 1175.66 basechar 0
LayerCount: 2
Fore
SplineSet
1496.82714844 0 m 9,0,-1
 1460.3515625 0 l 2,1,2
 1395 0 1395 0 1341.52539062 13.3701171875 c 0,3,4
 1288 27 1288 27 1248.9609375 53.673828125 c 1,5,6
 1237 -230 1237 -230 1093.86621094 -375.178710938 c 0,7,8
 951 -520 951 -520 680.89453125 -519.734375 c 0,9,10
 385 -520 385 -520 233.49609375 -374.245117188 c 0,11,12
 82 -229 82 -229 82.7353515625 57.3681640625 c 0,13,14
 82.9999158104 266.933312243 82.9999158104 266.933312243 167.821289062 474.052734375 c 2,15,-1
 175.41796875 492.602539062 l 1,16,-1
 193.950195312 484.963867188 l 1,17,-1
 352.474609375 419.624023438 l 1,18,-1
 370.662109375 412.126953125 l 1,19,-1
 363.467773438 393.818359375 l 2,20,21
 298 227 298 227 298.24609375 58.1943359375 c 0,22,23
 298 -34 298 -34 321.434570312 -101.176757812 c 0,24,25
 345 -169 345 -169 392.234375 -213.865234375 c 0,26,27
 440 -259 440 -259 511.8515625 -281.02734375 c 0,28,29
 584 -303 584 -303 681.7734375 -303.2265625 c 0,30,31
 865 -303 865 -303 954.053710938 -206.5703125 c 0,32,33
 1043.24454092 -109.734498276 1043.24454092 -109.734498276 1043.60449219 89.8359375 c 2,34,-1
 1045.95117188 1390.92285156 l 5,35,-1
 1065.91699219 1390.92285156 l 5,36,-1
 1237.88574219 1390.92285156 l 5,37,-1
 1257.89746094 1390.92285156 l 5,38,-1
 1257.30175781 415.157226562 l 2,39,40
 1257 317 1257 317 1307.29492188 270.782226562 c 0,41,42
 1356.70325326 224.279296875 1356.70325326 224.279296875 1464.70410156 224.279296875 c 2,43,-1
 1496.93652344 224.279296875 l 17,44,-1
 1496.82714844 0 l 9,0,-1
EndSplineSet
EndChar

StartChar: uniFEDF
Encoding: 65247 65247 234
GlifName: uniF_E_D_F_
Width: 635
VWidth: 2972
GlyphClass: 2
Flags: W
AnchorPoint: "Anchor-10" 385.751 1540.65 basechar 0
AnchorPoint: "Anchor-7" 279.812 -216.234 basechar 0
LayerCount: 2
Fore
SplineSet
-20.9384765625 0 m 1,0,1
 -20.9384765625 223.993164062 l 1,2,-1
 41.47265625 223.993164062 l 2,3,4
 126 224 126 224 180.872070312 249.157226562 c 0,5,6
 241 277 241 277 261.885742188 325.130859375 c 0,7,8
 288.313476562 387.76506089 288.313476562 387.76506089 288.313476562 454.663085938 c 2,9,-1
 288.313476562 1390.171875 l 5,10,-1
 308.313476562 1390.171875 l 5,11,-1
 481.627929688 1390.171875 l 5,12,-1
 501.627929688 1390.171875 l 5,13,-1
 501.627929688 448.983398438 l 2,14,15
 502 227 502 227 383.888671875 113.591796875 c 0,16,17
 266 0 266 0 36.2861328125 0 c 2,18,-1
 -20.9384765625 0 l 1,0,1
EndSplineSet
EndChar

StartChar: uniFEE0
Encoding: 65248 65248 235
GlifName: uniF_E_E_0
Width: 718
VWidth: 2972
GlyphClass: 2
Flags: W
AnchorPoint: "Anchor-7" 279.812 -216.234 basechar 0
AnchorPoint: "Anchor-10" 392.751 1540.65 basechar 0
LayerCount: 2
Fore
SplineSet
42.5927734375 0 m 2,0,-1
 -20.9384765625 0 l 1,1,2
 -20.9384765625 223.993164062 l 1,3,-1
 45.1083984375 223.993164062 l 2,4,5
 173 224 173 224 232.068359375 270.23828125 c 0,6,7
 291.583382849 315.681885617 291.583382849 315.681885617 292.081054688 411.276367188 c 2,8,-1
 297.176757812 1390.07617188 l 5,9,-1
 317.081054688 1390.07617188 l 5,10,-1
 489.739257812 1390.07617188 l 5,11,-1
 509.739257812 1390.07617188 l 5,12,-1
 509.739257812 411.220703125 l 2,13,14
 510 315 510 315 557.215820312 269.463867188 c 0,15,16
 605.00718482 223.993164062 605.00718482 223.993164062 705.545898438 223.993164062 c 2,17,-1
 737.98828125 223.993164062 l 1,18,-1
 737.993164062 0 l 1,19,-1
 708.065429688 0 l 2,20,21
 500 0 500 0 392.400390625 128.611328125 c 1,22,23
 286 0 286 0 42.5927734375 0 c 2,0,-1
EndSplineSet
EndChar

StartChar: uniFEE2
Encoding: 65250 65250 237
GlifName: uniF_E_E_2
Width: 1306
VWidth: 2622
GlyphClass: 2
Flags: W
AnchorPoint: "Anchor-10" 769.239 1112.48 basechar 0
AnchorPoint: "Anchor-7" 724.983 -316.909 basechar 0
LayerCount: 2
Fore
SplineSet
789.963867188 745.381835938 m 0,0,1
 959 745 959 745 1062.17382812 618.395507812 c 0,2,3
 1125 542 1125 542 1156.55371094 396.071289062 c 0,4,5
 1176 307 1176 307 1211.08789062 265.2734375 c 0,6,7
 1247.00084971 223.999023439 1247.00084971 223.999023439 1298.39648438 223.999023438 c 2,8,-1
 1326.78320312 223.999023438 l 1,9,-1
 1326.78808594 0 l 1,10,-1
 1298.09472656 0 l 2,11,12
 1240 0 1240 0 1190.60839844 24.501953125 c 0,13,14
 1142 49 1142 49 1105.046875 95.8896484375 c 1,15,16
 1062 36 1062 36 998.557617188 6.1103515625 c 0,17,18
 935 -24 935 -24 851.938476562 -23.13671875 c 0,19,20
 730.942022091 -23.0122816086 730.942022091 -23.0122816086 596.375976562 61.5869140625 c 0,21,22
 548 92 548 92 495.181640625 118.133789062 c 0,23,24
 455 138 455 138 429.56640625 137.748046875 c 0,25,26
 400 137 400 137 375.670898438 112.526367188 c 0,27,28
 352 88 352 88 333.598632812 36.8828125 c 0,29,30
 315 -14 315 -14 305.6484375 -97.5615234375 c 0,31,32
 296 -181 296 -181 295.748046875 -292.993164062 c 0,33,34
 296.000189129 -490.14788383 296.000189129 -490.14788383 309.743164062 -653.1328125 c 2,35,-1
 311.571289062 -674.813476562 l 1,36,-1
 289.813476562 -674.813476562 l 1,37,-1
 110.231445312 -674.813476562 l 1,38,-1
 91.4755859375 -674.813476562 l 1,39,-1
 90.2724609375 -656.095703125 l 2,40,41
 79 -481 79 -481 78.9765625 -320.999023438 c 0,42,43
 79 28 79 28 160.169921875 188.059570312 c 0,44,45
 240 344 240 344 379.27734375 370.5390625 c 1,46,47
 532 746 532 746 789.963867188 745.381835938 c 0,0,1
851.916992188 199 m 0,48,49
 904.4453125 199.434570312 904.4453125 199.434570312 928.546875 227 c 128,-1,50
 952.649414062 254.565429688 952.649414062 254.565429688 952.357421875 316.588867188 c 0,51,52
 952.19140625 342.29296875 952.19140625 342.29296875 947.081054688 368.044921875 c 128,-1,53
 941.970703125 393.796875 941.970703125 393.796875 931.9140625 419.442382812 c 0,54,55
 922.052734375 443.73828125 922.052734375 443.73828125 908.692382812 461.625 c 128,-1,56
 895.33203125 479.51171875 895.33203125 479.51171875 877.924804688 491.484375 c 128,-1,57
 860.517578125 503.45703125 860.517578125 503.45703125 839.071289062 509.504882812 c 128,-1,58
 817.624023438 515.552734375 817.624023438 515.552734375 791.485351562 516.0078125 c 0,59,60
 668.388671875 517.739257812 668.388671875 517.739257812 595.234375 325.513671875 c 1,61,62
 762.109375 199 762.109375 199 851.916992188 199 c 0,48,49
EndSplineSet
EndChar

